<?xml version="1.0" standalone="no"?>
<!DOCTYPE svg PUBLIC "-//W3C//DTD SVG 1.1//EN" "http://www.w3.org/Graphics/SVG/1.1/DTD/svg11.dtd" >
<svg>
<metadata>
Created by FontForge 20090914 at Fri Feb  4 16:43:18 2022
 By www-data
Copyright (c) ParaGraph, 1997. All rights reserved.
</metadata>
<defs>
<font id="Propisi" horiz-adv-x="300" >
  <font-face 
    font-family="Propisi"
    font-weight="400"
    font-stretch="normal"
    units-per-em="1000"
    panose-1="2 0 5 8 3 0 0 2 0 3"
    ascent="800"
    descent="-200"
    x-height="223"
    cap-height="652.999"
    bbox="-134.002 -293.997 1060 879.143"
    underline-thickness="18"
    underline-position="-111"
    unicode-range="U+0020-U+2122"
  />
<missing-glyph horiz-adv-x="500" 
 />
    <glyph glyph-name=".notdef" horiz-adv-x="500" 
 />
    <glyph glyph-name="space" unicode=" " horiz-adv-x="250" 
 />
    <glyph glyph-name="space" unicode="&#xa0;" horiz-adv-x="250" 
 />
    <glyph glyph-name="exclam" unicode="!" horiz-adv-x="270" 
d="M368 615c0 4 0.169922 7.50098 0.50293 10.501s-2.5 4.5 -8.5 4.5c-4.66699 0 -9.33398 -0.833008 -14.001 -2.5s-6.66699 -4.5 -6 -8.5c0 -2 -3.33301 -10.833 -10 -26.5l-27 -61l-39 -84l-45 -94.5l-24 -50l-24 -51l-19 -43c-5.33301 -12.667 -8 -21.334 -8 -26.001
c0 -3.33301 0.166992 -8 0.5 -14s2.83301 -9 7.5 -9c3.33301 0 8.16602 5 14.499 15s13.666 23.167 21.999 39.5s17.5 35.5 27.5 57.5l32 69l43.5 95l38.5 87l27.5 64.5c7 17 10.5 26.167 10.5 27.5zM105.003 22.001c0 6.66699 -2 12.332 -6 16.999
s-9.33301 7.33398 -16 8.00098c-7.33301 0.666992 -13 -1.5 -17 -6.5s-6 -10.833 -6 -17.5c-0.666992 -6.66699 1 -12.167 5 -16.5s9.33301 -6.5 16 -6.5c16 0 24 7.33301 24 22z" />
    <glyph glyph-name="quotedbl" unicode="&#x22;" horiz-adv-x="241" 
d="M325 612l1.99902 10.5c0.666992 3.66699 -3.33301 4.83398 -12 3.50098c-5.33301 -0.666992 -11.666 -5.83398 -18.999 -15.501s-14.333 -20.667 -21 -33s-12.5 -24.333 -17.5 -36s-7.83301 -19.5 -8.5 -23.5c-1.33301 -4.66699 -1.16602 -7.33398 0.500977 -8.00098
s6.5 -1.66699 14.5 -3c3.33301 -0.666992 8.33301 4 15 14s13.167 21.167 19.5 33.5s12.166 24.333 17.499 36s8.33301 18.834 9 21.501zM250.999 614l1.99805 10.0039c0.666992 3.33301 -3.33301 4.66602 -12 3.99902c-5.33301 -0.666992 -11.666 -5.83398 -18.999 -15.501
s-14.333 -20.667 -21 -33s-12.5 -24.333 -17.5 -36s-7.83301 -19.5 -8.5 -23.5c-1.33301 -4.66699 -1.16602 -7.33398 0.500977 -8.00098s6.5 -1.66699 14.5 -3c3.33301 0 8.33301 4.83301 15 14.5s13.167 20.667 19.5 33l17.5 35.5c5.33301 11.333 8.33301 18.666 9 21.999
z" />
    <glyph glyph-name="numbersign" unicode="#" horiz-adv-x="486" 
d="M499 417c0 2.66699 -1.83301 5.83301 -5.5 9.5s-8.16699 5.5 -13.5 5.5c-2 0 -10.5 -7 -25.5 -21l-51.5 -49.5l-57 -57c-18.667 -19 -32.334 -33.5 -41.001 -43.5l-44 51.5l-43.5 51c-13.667 15.667 -25.667 28.667 -36 39s-17.166 15.5 -20.499 15.5
s-6.83301 -2.16699 -10.5 -6.5s-5.5 -7.83301 -5.5 -10.5c0 -2 4.5 -8.83301 13.5 -20.5s20.333 -25.5 34 -41.5l44.5 -51l45 -50l-43 -45.5l-50.5 -54.5l-42.5 -47.5c-12 -13.667 -18 -21.834 -18 -24.501c-0.666992 -4.66699 0.5 -8 3.5 -10s6.5 -3 10.5 -3
c2 0 9.5 6.5 22.5 19.5l45 46l51.5 53.5l41 43l35.5 -38l45.5 -47l41 -40c12 -11.333 19.333 -17 22 -17c7.33301 0 11.666 1.33301 12.999 4s2 7 2 13c0 1.33301 -5.66699 8.33301 -17 21l-39.5 43l-45 48l-33.5 36c6.66699 7.33301 15.5 16.5 26.5 27.5l36 36l39 39
l35.5 35.5c10.667 10.667 19.334 19.834 26.001 27.501s10 12.167 10 13.5z" />
    <glyph glyph-name="dollar" unicode="$" 
d="M233 372c0 7.33301 -2.5 13.333 -7.5 18s-11.167 7 -18.5 7s-13.333 -2.66699 -18 -8s-7 -11.333 -7 -18c0 -7.33301 2.5 -13.333 7.5 -18s10.833 -7 17.5 -7c7.33301 0 13.5 2.5 18.5 7.5s7.5 11.167 7.5 18.5zM233 137c0 7.33301 -2.66797 14 -8.00098 20
s-11.666 9 -18.999 9c-8 0 -14.667 -3 -20 -9s-8 -12.667 -8 -20s2.5 -13.666 7.5 -18.999s11.5 -8 19.5 -8c7.33301 0 13.833 2.66699 19.5 8s8.5 11.666 8.5 18.999z" />
    <glyph glyph-name="percent" unicode="%" horiz-adv-x="775" 
d="M785 234c0 14.667 -4.16699 27.999 -12.5 39.999s-18.666 22.5 -30.999 31.5s-25.333 16 -39 21s-25.834 7.5 -36.501 7.5c-24 0 -45.833 -9 -65.5 -27s-36.5 -39.167 -50.5 -63.5s-24.667 -49.166 -32 -74.499s-11 -45.333 -11 -60
c0 -15.333 3.16699 -29.666 9.5 -42.999s14.666 -24.833 24.999 -34.5s22.333 -17.334 36 -23.001s27.834 -8.5 42.501 -8.5c30.667 0 56.5 10 77.5 30s38 43.167 51 69.5s22.333 52.333 28 78s8.5 44.5 8.5 56.5zM693 702.999
c1.33301 8.66699 1.16797 13.6641 -0.499023 14.9971s-5.16699 2 -10.5 2s-9.83301 -0.833008 -13.5 -2.5s-8 -6 -13 -13s-11.5 -17.5 -19.5 -31.5l-32 -58c-4 -6.66699 -10.167 -17.667 -18.5 -33l-29 -52.5l-35.5 -63.5l-37.5 -67l-35.5 -62l-29 -49l-53.5 -85.5
l-56.5 -88l-54.5 -83.5l-46.5 -71.5l-32.5 -52.5c-8.33301 -14 -12.5 -22.333 -12.5 -25c-0.666992 -5.33301 0.666016 -11.166 3.99902 -17.499s7.66602 -9.16602 12.999 -8.49902c2.66699 0 8.83398 6.5 18.501 19.5s21.5 30 35.5 51l47 72.5l54 86l68 106
c22.667 34.667 43.667 68.334 63 101.001l49.5 83.5l42.5 75.5l39.5 74l40.5 79c13.333 27.333 25.833 49.833 37.5 67.5s17.5 28.167 17.5 31.5zM384.002 503.996c0 28 -2.5 50.3311 -7.5 66.998s-11.833 29.334 -20.5 38.001s-18.667 14.334 -30 17.001s-23.333 4 -36 4
c-23.333 0 -45 -7.5 -65 -22.5s-37.5 -33.5 -52.5 -55.5s-26.833 -45.833 -35.5 -71.5s-13 -49.5 -13 -71.5c0 -12.667 4.5 -26 13.5 -40s19.833 -27 32.5 -39s26 -21.833 40 -29.5s26 -11.5 36 -11.5c20.667 0 39.5 7.66699 56.5 23s31.5 34 43.5 56s21.333 45.333 28 70
s10 46.667 10 66zM754.002 227.994c0 -12.667 -2.83105 -30 -8.49805 -52s-14.167 -43.667 -25.5 -65s-25.333 -40 -42 -56s-36 -24.333 -58 -25c-12 0 -23.167 2.5 -33.5 7.5s-19.166 11.667 -26.499 20s-13 17.833 -17 28.5s-6 21.334 -6 32.001c0 14 3.5 31.5 10.5 52.5
s16.5 41 28.5 60s25.667 35.167 41 48.5s31.666 20 48.999 20c10.667 0 21.167 -1.83301 31.5 -5.5s19.666 -8.5 27.999 -14.5s15.166 -13.333 20.499 -22s8 -18.334 8 -29.001zM351.004 494.994c0 -10 -2.66992 -24.502 -8.00293 -43.502s-12.666 -37.833 -21.999 -56.5
s-20.666 -35 -33.999 -49s-28 -21 -44 -21c-7.33301 0 -15.833 2.66699 -25.5 8s-19 12.333 -28 21s-16.667 18.334 -23 29.001s-9.5 21.667 -9.5 33c0 12 4.16699 28.167 12.5 48.5s19 40.333 32 60s27.833 36.834 44.5 51.501s33.334 22 50.001 22
c13.333 0 23.666 -3.33301 30.999 -10s12.833 -15 16.5 -25s5.83398 -21.167 6.50098 -33.5s1 -23.833 1 -34.5z" />
    <glyph glyph-name="ampersand" unicode="&#x26;" horiz-adv-x="586" 
d="M530 268c-1.33301 6 -3.83789 11.001 -7.50488 15.001s-8.5 6 -14.5 6c-37.333 0 -69.666 -0.166992 -96.999 -0.5l-80.5 -1c-26.333 -0.333008 -54.666 -0.833008 -84.999 -1.5s-66.833 -1 -109.5 -1c-11.333 0 -20.666 -0.666992 -27.999 -2s-11 -6 -11 -14
c0 -6 1.5 -10.5 4.5 -13.5s7 -5 12 -6s10.167 -1.5 15.5 -1.5h17c26 0 51.5 0.166992 76.5 0.5s48.667 0.666016 71 0.999023s42.5 0.5 60.5 0.5h48c10 0 22.333 -0.166992 37 -0.5s28.834 0 42.501 1s25.334 2.66699 35.001 5s14.167 6.5 13.5 12.5z" />
    <glyph glyph-name="quotesingle" unicode="'" horiz-adv-x="241" 
d="M269 614c1.33301 3.33301 2.16602 6.6709 2.49902 10.0039s-3.83398 4.66602 -12.501 3.99902c-5.33301 -0.666992 -11.666 -5.83398 -18.999 -15.501s-14.333 -20.667 -21 -33s-12.5 -24.333 -17.5 -36s-7.83301 -19.5 -8.5 -23.5
c-1.33301 -4.66699 -1.16602 -7.33398 0.500977 -8.00098s6.5 -1.66699 14.5 -3c3.33301 0 8.33301 4.83301 15 14.5s13.167 20.667 19.5 33l17.5 35.5c5.33301 11.333 8.33301 18.666 9 21.999z" />
    <glyph glyph-name="parenleft" unicode="(" horiz-adv-x="298" 
d="M463 714c0 4.66699 -1.83496 8.33105 -5.50195 10.998s-7.83398 3.66699 -12.501 3c-2.66699 0 -9.16699 -3.33301 -19.5 -10s-22.833 -16 -37.5 -28s-30.834 -26.167 -48.501 -42.5s-35.5 -34.5 -53.5 -54.5c-19.333 -21.333 -39.333 -45.833 -60 -73.5
s-39.667 -59 -57 -94s-31.666 -74 -42.999 -117s-17 -90.167 -17 -141.5c0 -22.667 2.16699 -46.5 6.5 -71.5s10 -50 17 -75s14.833 -48.833 23.5 -71.5s17.334 -42.5 26.001 -59.5s17 -30.667 25 -41s14.667 -15.5 20 -15.5c6.66699 0 12.5 0.833008 17.5 2.5
s6.83301 4.83398 5.5 9.50098c-1.33301 7.33301 -4.16602 12.833 -8.49902 16.5s-8.16602 8.5 -11.499 14.5c-13.333 24 -25.333 47.333 -36 70s-19.834 45.834 -27.501 69.501s-13.667 48.5 -18 74.5s-6.5 54 -6.5 84c0 36 2.83301 68.667 8.5 98s14 57.333 25 84
s24.5 53 40.5 79s34.333 53.667 55 83c10.667 14.667 20.834 27.5 30.501 38.5s19.5 21.5 29.5 31.5l31 30l36 34c6 6 12.833 11.833 20.5 17.5l21.5 16.5c6.66699 5.33301 12.167 10.333 16.5 15s6.5 9 6.5 13z" />
    <glyph glyph-name="parenright" unicode=")" horiz-adv-x="298" 
d="M272 387c0 22 -2.16504 45.6699 -6.49805 71.0029s-10 50.333 -17 75s-14.833 48.334 -23.5 71.001s-17.334 42.5 -26.001 59.5s-17 30.667 -25 41s-14.667 15.5 -20 15.5c-6 0 -11.5 -0.666992 -16.5 -2s-6.83301 -4.33301 -5.5 -9c1.33301 -7.33301 4 -12.833 8 -16.5
s7.66699 -8.5 11 -14.5c13.333 -24 25.5 -47.333 36.5 -70s20.333 -46 28 -70s13.5 -48.833 17.5 -74.5s6 -53.5 6 -83.5c0 -36 -2.83301 -68.833 -8.5 -98.5s-14 -57.834 -25 -84.501s-24.5 -53.167 -40.5 -79.5s-34.333 -53.833 -55 -82.5
c-10.667 -14.667 -20.834 -27.334 -30.501 -38.001s-19.5 -21 -29.5 -31l-31 -30l-35 -34c-6.66699 -6.66699 -13.834 -12.834 -21.501 -18.501l-21 -16c-6.33301 -5 -11.666 -9.83301 -15.999 -14.5s-6.5 -9.33398 -6.5 -14.001s1.66699 -8.16699 5 -10.5
s7.66602 -3.16602 12.999 -2.49902c2.66699 0 9.16699 3.33301 19.5 10s22.833 16 37.5 28s30.834 26.167 48.501 42.5s35.5 34.166 53.5 53.499c18.667 20.667 38.334 45 59.001 73s39.667 59.667 57 95s31.666 74.5 42.999 117.5s17 90.167 17 141.5z" />
    <glyph glyph-name="asterisk" unicode="*" horiz-adv-x="377" 
d="M458 569c0 4 -1.8291 8.5 -5.49609 13.5s-7.83398 7.16699 -12.501 6.5c-2 0 -8.33301 -3.83301 -19 -11.5l-37 -27.5l-43 -34l-38 -31c5.33301 10 10.833 21.5 16.5 34.5l16 38c5 12.333 9.16699 23.333 12.5 33s5 16.5 5 20.5c0 5.33301 0.833008 10 2.5 14
s-1.16602 6 -8.49902 6c-5.33301 0 -11.833 -6.66699 -19.5 -20s-15.5 -28.833 -23.5 -46.5s-15.5 -35 -22.5 -52l-15.5 -37.5l-22.5 32.5c-8.33301 11.667 -16.5 22.5 -24.5 32.5s-15.333 18.5 -22 25.5s-12 10.5 -16 10.5c-9.33301 0 -14 -3.66699 -14 -11
c0 -3.33301 0.833008 -6.83301 2.5 -10.5s5.16699 -8.5 10.5 -14.5c5.33301 -5.33301 11.333 -12 18 -20s13.167 -16.5 19.5 -25.5s12.166 -17.667 17.499 -26l14 -22.5l-38.5 -27.5l-45.5 -33.5c-14.667 -11.333 -27.334 -22.166 -38.001 -32.499s-16 -18.5 -16 -24.5
c0 -11.333 4.33301 -17 13 -17c3.33301 0 7.66602 3 12.999 9s12 12.667 20 20l36 30l40 33l-5.5 -15c-3.66699 -10 -7.66699 -21.833 -12 -35.5l-12.5 -40.5c-4 -13.333 -6 -23.333 -6 -30c0 -10.667 0.5 -19 1.5 -25s4.83301 -9 11.5 -9c3.33301 0 6.83301 6.5 10.5 19.5
s8.16699 28.167 13.5 45.5c6 19.333 12.667 39.166 20 59.499s13.333 35.5 18 45.5c7.33301 -9.33301 13.166 -17.333 17.499 -24l17.5 -26c4.66699 -8 9.83398 -16.167 15.501 -24.5l16 -23.5c5 -7.33301 9.66699 -13.5 14 -18.5s7.5 -7.5 9.5 -7.5
c7.33301 -1.33301 11.666 3 12.999 13c0.666992 4 -2.5 11.667 -9.5 23l-24.5 38l-28.5 42c-9.66699 14 -16.834 25.333 -21.501 34l23.5 17l34 24l38 27l35.5 26c10.667 8 19.334 14.833 26.001 20.5s10 9.16699 10 10.5z" />
    <glyph glyph-name="plus" unicode="+" horiz-adv-x="546" 
d="M518 266c-0.666992 6 -3.00098 11.001 -7.00098 15.001s-9.33301 6 -16 6c-6 0 -15.333 -0.166992 -28 -0.5s-26.834 -0.666016 -42.501 -0.999023s-32.167 -0.666016 -49.5 -0.999023s-34 -0.833008 -50 -1.5c-0.666992 12 -1.16699 25.333 -1.5 40
s-0.833008 29.667 -1.5 45s-1.16699 30.666 -1.5 45.999s-0.833008 30 -1.5 44c-0.666992 9.33301 -2.33398 16.833 -5.00098 22.5s-7.66699 10.167 -15 13.5c-6 2.66699 -10 2.5 -12 -0.5s-3.33301 -7.83301 -4 -14.5s-0.666992 -14.5 0 -23.5s1 -18.5 1 -28.5
c-0.666992 -24.667 0 -49.167 2 -73.5s2.66699 -47.833 2 -70.5c-25.333 -1.33301 -50.666 -2 -75.999 -2c-24.667 0 -54 0.666992 -88 2c-11.333 0.666992 -20.666 0.166992 -27.999 -1.5s-11 -6.5 -11 -14.5c0 -6 2.33301 -10.5 7 -13.5s10 -5 16 -6s11.333 -1.5 16 -1.5
h9h22h43c16 0 32.167 0.166992 48.5 0.5s30.166 0.5 41.499 0.5c0 -12 -0.166992 -25 -0.5 -39s-0.5 -27.667 -0.5 -41c0 -12.667 -0.166992 -24.834 -0.5 -36.501s-0.5 -20.834 -0.5 -27.501v-48c0 -10.667 0.333008 -18.334 1 -23.001s2.16699 -7.16699 4.5 -7.5
s5.5 -0.5 9.5 -0.5c4.66699 0 8.33398 3.33301 11.001 10s4.66699 14.5 6 23.5s2.16602 18 2.49902 27s0.5 15.5 0.5 19.5c0 26.667 0.333008 53.334 1 80.001s0.333984 48.334 -0.999023 65.001c10.667 0 22.5 0.166992 35.5 0.5s24.167 0.5 33.5 0.5
s21.5 -0.166992 36.5 -0.5s29.333 -0.333008 43 0s25.334 1.66602 35.001 3.99902s14.167 6.5 13.5 12.5z" />
    <glyph glyph-name="comma" unicode="," horiz-adv-x="179" 
d="M124 32c0 8.66699 -2.83496 16.667 -8.50195 24s-13.167 11 -22.5 11c-7.33301 0 -13 -3.16699 -17 -9.5s-6 -12.5 -6 -18.5c0 -4 1 -7.33301 3 -10l6 -8l5.5 -7.5c1.66699 -2.33301 2.5 -5.5 2.5 -9.5c0 -6.66699 -2 -12.834 -6 -18.501s-8.16699 -11 -12.5 -16l-12 -14
c-3.66699 -4.33301 -5.5 -8.16602 -5.5 -11.499c0 -10.667 4.66699 -16 14 -16c2.66699 0 7.33398 3.66699 14.001 11s13.334 16.333 20.001 27s12.5 22 17.5 34s7.5 22.667 7.5 32z" />
    <glyph glyph-name="hyphen" unicode="-" horiz-adv-x="511" 
d="M411 170c0 3.33301 -1.49609 6.99902 -4.49609 10.999s-8.5 6 -16.5 6c-26.667 -0.666992 -46.334 -1 -59.001 -1s-24.5 0.166992 -35.5 0.5s-24.167 0.5 -39.5 0.5h-72c-10 0 -20.5 -0.666992 -31.5 -2s-17.167 -6.33301 -18.5 -15
c-0.666992 -5.33301 2.16602 -9.66602 8.49902 -12.999s12.166 -5 17.499 -5h65c16.667 0 32 0.166992 46 0.5s28.333 0.5 43 0.5h58c13.333 0 23.166 2 29.499 6s9.5 7.66699 9.5 11z" />
    <glyph glyph-name="period" unicode="." horiz-adv-x="177" 
d="M110 25c0.666992 7.33301 -1.33105 13.5 -5.99805 18.5s-10.334 7.83301 -17.001 8.5c-7.33301 0.666992 -13.666 -1.33301 -18.999 -6s-8 -10.334 -8 -17.001c-0.666992 -7.33301 1.16602 -13.5 5.49902 -18.5s10.166 -7.83301 17.499 -8.5
c6.66699 -0.666992 12.667 1.33301 18 6s8.33301 10.334 9 17.001z" />
    <glyph glyph-name="slash" unicode="/" horiz-adv-x="389" 
d="M513 711c1.33301 8 0.831055 11.3301 -1.50195 9.99707s-6.16602 -2 -11.499 -2c-4 0 -7.5 -0.5 -10.5 -1.5s-6.66699 -4.66699 -11 -11s-10.333 -16.166 -18 -29.499l-31.5 -57c-4 -6.66699 -10.167 -17.667 -18.5 -33l-29 -52.5l-35.5 -63.5l-37.5 -67l-35.5 -62
l-29 -49l-52.5 -85.5l-55 -90l-52.5 -85.5l-44 -74l-31 -54.5c-8 -14.333 -12 -22.833 -12 -25.5c-0.666992 -5.33301 -0.833984 -9.66602 -0.500977 -12.999s3.16602 -4.66602 8.49902 -3.99902c2.66699 0 8.83398 6.66699 18.501 20s21.334 31 35.001 53l46.5 75.5
l54 87.5l66 107.5l61 102.5l48.5 82.5l43.5 73.5l41 72c13.333 24 27 50 41 78c13.333 27.333 25.333 49.5 36 66.5s16.334 27.5 17.001 31.5z" />
    <glyph glyph-name="zero" unicode="0" horiz-adv-x="429" 
d="M470 457c0 32.667 -3.33496 59.832 -10.002 81.499s-15.334 39.167 -26.001 52.5s-22.5 22.833 -35.5 28.5s-25.5 8.5 -37.5 8.5c-43.333 0 -83.666 -17.667 -120.999 -53c-23.333 -22.667 -44.333 -49.667 -63 -81s-32.667 -61.666 -42 -90.999l-25 -74.5
c-8.66699 -25.667 -16.667 -50.667 -24 -75s-13.5 -47.333 -18.5 -69s-7.5 -40.834 -7.5 -57.501c0 -16 1.83301 -31.667 5.5 -47s9.66699 -28.833 18 -40.5s19.5 -21.167 33.5 -28.5s31.333 -11 52 -11c16 0 33.333 3.83301 52 11.5s37.334 18.667 56.001 33
s37.167 31.833 55.5 52.5s35.5 43.667 51.5 69c12 20 23.333 42.833 34 68.5s19.834 51.834 27.501 78.501s13.667 52.667 18 78s6.5 47.333 6.5 66zM435.998 452.998c0 -18 -1.66699 -37.8311 -5 -59.498s-8.16602 -43.834 -14.499 -66.501s-14.166 -45.167 -23.499 -67.5
s-20 -43.166 -32 -62.499c-12.667 -21.333 -26.5 -41.666 -41.5 -60.999s-30.667 -36.5 -47 -51.5s-33 -27 -50 -36s-33.833 -13.5 -50.5 -13.5c-14.667 0 -27 3 -37 9s-18.167 13.5 -24.5 22.5s-10.833 19 -13.5 30s-4 21.833 -4 32.5c0 27.333 3.83301 56.166 11.5 86.499
s16.167 58.666 25.5 84.999s18.5 49.333 27.5 69s14.5 32.5 16.5 38.5c11.333 32.667 24 60 38 82s31.667 43.333 53 64c12.667 12 26.667 21.5 42 28.5s32.666 10.5 51.999 10.5c9.33301 0 18.666 -2.33301 27.999 -7s17.5 -12.5 24.5 -23.5s12.833 -25.333 17.5 -43
s7 -39.834 7 -66.501z" />
    <glyph glyph-name="one" unicode="1" horiz-adv-x="265" 
d="M341 610c0 5.33301 -0.49707 10 -1.49707 14s-4.83301 5.66699 -11.5 5c-6.66699 0 -12.667 -5 -18 -15s-11.333 -22.833 -18 -38.5s-14.834 -33.667 -24.501 -54s-22.167 -40.833 -37.5 -61.5c-12.667 -16.667 -25 -30.667 -37 -42s-23.333 -20.666 -34 -27.999
c-16 -12 -29.833 -21.833 -41.5 -29.5s-18.167 -16.167 -19.5 -25.5c-0.666992 -4.66699 -0.333984 -8.66699 0.999023 -12s3.66602 -5 6.99902 -5c2.66699 0 11.5 5.16699 26.5 15.5s30.5 22.166 46.5 35.499c27.333 22 47.333 40 60 54c-2 -7.33301 -6 -17.5 -12 -30.5
l-15.5 -33l-7.5 -15.5l-47.5 -112.5l-42 -105.5l-30 -79c-7.66699 -20.667 -11.5 -31.334 -11.5 -32.001c-0.666992 -3.33301 0 -6 2 -8s4.66699 -3.66699 8 -5c2.66699 -1.33301 6 -1.16602 10 0.500977s7 5.16699 9 10.5l28.5 70.5l47 115.5l55 135.5l52.5 130.5l39.5 100
c10.333 26.667 15.833 41.667 16.5 45z" />
    <glyph glyph-name="two" unicode="2" horiz-adv-x="396" 
d="M463 515c0 18.667 -4.33301 34.998 -13 48.998s-18.834 25.667 -30.501 35s-23.667 16.5 -36 21.5s-21.833 7.5 -28.5 7.5c-21.333 0 -42.5 -2.83301 -63.5 -8.5s-40 -14.334 -57 -26.001s-30.833 -26.167 -41.5 -43.5s-16 -38 -16 -62c0 -8.66699 1.33301 -17.5 4 -26.5
s5.66699 -17.333 9 -25s7 -13.834 11 -18.501s7.33301 -7 10 -7c8 0 12.833 2.83301 14.5 8.5s1.83398 11.167 0.500977 16.5c-0.666992 4.66699 -3.66699 11.167 -9 19.5s-7.66602 20.5 -6.99902 36.5c0 16 3.66699 30.5 11 43.5s16.833 24 28.5 33s25.167 16 40.5 21
s31.666 7.5 48.999 7.5c28 0 50 -8 66 -24s24.333 -39.667 25 -71c0 -15.333 -4.33301 -31.166 -13 -47.499s-20 -32.666 -34 -48.999s-30 -32.166 -48 -47.499s-36.333 -29.333 -55 -42c-16.667 -11.333 -34.334 -25 -53.001 -41s-37 -33 -55 -51
s-35.167 -36.333 -51.5 -55s-30.666 -36.5 -42.999 -53.5s-22.333 -32.5 -30 -46.5s-11.5 -25.333 -11.5 -34v-22c0 -6 4.66699 -9.33301 14 -10c6.66699 0 13.667 2.33301 21 7s14.666 10 21.999 16s14.5 11.5 21.5 16.5s13.833 7.5 20.5 7.5c9.33301 0 20 -2.66699 32 -8
s23.833 -11.166 35.5 -17.499l33.5 -17.5c10.667 -5.33301 19 -8 25 -8c11.333 0 23.333 2.33301 36 7s24.334 10.334 35.001 17.001s19.667 13.334 27 20.001s11 12 11 16c0 3.33301 -1.5 6.16602 -4.5 8.49902s-6.5 3.83301 -10.5 4.5c-3.33301 0 -8 -1.83301 -14 -5.5
l-20.5 -12c-7.66699 -4.33301 -15.834 -8.5 -24.501 -12.5s-17.334 -6 -26.001 -6c-11.333 0 -22.666 2.33301 -33.999 7s-22.166 10 -32.499 16l-29 16.5c-9 5 -16.833 7.5 -23.5 7.5c-9.33301 -0.666992 -20 -2.5 -32 -5.5s-23.667 -7.16699 -35 -12.5
c21.333 38.667 51 77.5 89 116.5s80 75.167 126 108.5c20 14 39.833 29 59.5 45s37.167 33.167 52.5 51.5s27.833 38.166 37.5 59.499s14.5 44.333 14.5 69z" />
    <glyph glyph-name="three" unicode="3" horiz-adv-x="380" 
d="M431 538c0 10 -1.33496 20.332 -4.00195 30.999s-6.83398 20.334 -12.501 29.001s-13 15.834 -22 21.501s-19.5 8.5 -31.5 8.5c-13.333 0 -26.5 -2.66699 -39.5 -8s-24.667 -11.833 -35 -19.5s-19 -15.667 -26 -24s-10.833 -15.5 -11.5 -21.5
c-0.666992 -5.33301 0 -9.16602 2 -11.499s4 -3.5 6 -3.5h4c10 6 18.667 12.5 26 19.5s14.333 13.333 21 19s13.834 10.334 21.501 14.001s16.834 5.5 27.501 5.5c18.667 0 30.334 -6.33301 35.001 -19s7 -29.334 7 -50.001c0 -16 -4.83301 -31.667 -14.5 -47
s-21.834 -29.5 -36.501 -42.5s-30.5 -24.333 -47.5 -34s-32.5 -16.834 -46.5 -21.501c-17.333 -6 -31.5 -11.667 -42.5 -17s-16.833 -10 -17.5 -14c-1.33301 -6.66699 1.66699 -10.5 9 -11.5s16.666 -1.83301 27.999 -2.5c8.66699 0 18 -1 28 -3s19 -7 27 -15
s14.667 -20 20 -36s8 -38.333 8 -67c0 -26 -6.33301 -49.833 -19 -71.5s-28 -40.334 -46 -56.001s-36.667 -27.834 -56 -36.501s-35.333 -13 -48 -13c-18 0 -31.5 2.66699 -40.5 8s-15.167 11.833 -18.5 19.5s-5 15.834 -5 24.501v23
c-1.33301 15.333 -6.66602 22.666 -15.999 21.999c-5.33301 -0.666992 -9.83301 -2.83398 -13.5 -6.50098s-5.83398 -8.16699 -6.50098 -13.5c-1.33301 -10.667 -0.666016 -22.5 2.00098 -35.5s7.5 -25.333 14.5 -37s16.333 -21.5 28 -29.5s25.5 -12 41.5 -12
c29.333 0 57.333 6.83301 84 20.5s50 31.167 70 52.5s35.667 45.333 47 72s17 53 17 79c0 17.333 -2.16699 33.833 -6.5 49.5s-9.66602 29.334 -15.999 41.001s-13.333 21.334 -21 29.001s-15.167 12.167 -22.5 13.5l40 22c16.667 9.33301 33 21 49 35s29.833 31 41.5 51
s17.5 43 17.5 69z" />
    <glyph glyph-name="four" unicode="4" horiz-adv-x="406" 
d="M403 210c0 4 -1.66797 7.16504 -5.00098 9.49805s-7 4.16602 -11 5.49902c-6 2.66699 -15.5 5.16699 -28.5 7.5s-28.167 3.83301 -45.5 4.5c3.33301 10.667 9.83301 28.167 19.5 52.5l29.5 73.5l25 61.5c7.33301 17.667 11 27.5 11 29.5
c0.666992 7.33301 0.333984 12.666 -0.999023 15.999s-4.66602 5 -9.99902 5c-3.33301 0 -9.83301 -10 -19.5 -30l-32.5 -70l-18 -41l-16.5 -39.5c-5 -12.333 -9.66699 -23.333 -14 -33s-7.5 -17.5 -9.5 -23.5c-12 0 -26.667 0.5 -44 1.5s-35.333 1.16699 -54 0.5
s-36.167 -1.16699 -52.5 -1.5s-28.5 -1.16602 -36.5 -2.49902c4 2.66699 9.5 7.66699 16.5 15s14.667 15.833 23 25.5l26.5 31l28 33.5c25.333 31.333 49.333 62.833 72 94.5s40.667 59.167 54 82.5l34.5 58.5c10.333 18.333 15.5 31.166 15.5 38.499
c0 6.66699 -1.33301 10.834 -4 12.501s-5.66699 2.5 -9 2.5c-1.33301 0 -5 -4.66699 -11 -14l-20 -32l-21.5 -35.5c-7 -11.667 -12.167 -19.834 -15.5 -24.501l-17.5 -26.5l-27 -39.5l-34 -46l-38.5 -48l-47 -51l-41 -42.5c-12 -12.333 -21.833 -23.166 -29.5 -32.499
s-11.5 -16.666 -11.5 -21.999c0 -3.33301 1.16699 -6.83301 3.5 -10.5s6.83301 -5.83398 13.5 -6.50098c3.33301 0 9.16602 0.333008 17.499 1s17.5 1.5 27.5 2.5l29 3c9.33301 1 16.666 1.5 21.999 1.5c28 0.666992 51.667 0.833984 71 0.500977s34.333 -0.833008 45 -1.5
c-4.66699 -9.33301 -10.667 -22.833 -18 -40.5s-14.5 -36.167 -21.5 -55.5s-13.167 -37.166 -18.5 -53.499s-8.33301 -27.5 -9 -33.5c-1.33301 -5.33301 -2 -10 -2 -14c0 -3.33301 1.66699 -6.66602 5 -9.99902c2.66699 -2.66699 5.5 -3.16699 8.5 -1.5s6 4.16699 9 7.5
s5.66699 7.5 8 12.5l6.5 14.5l38.5 100c11.667 30 21.834 54.333 30.501 73c9.33301 0 19.333 -0.166992 30 -0.5s20 -2.16602 28 -5.49902c6 -0.666992 11 -2.5 15 -5.5s8.66699 -4.5 14 -4.5c7.33301 0 12 1.66699 14 5s3 8.66602 3 15.999z" />
    <glyph glyph-name="five" unicode="5" horiz-adv-x="418" 
d="M573 602c0 5.33301 -1.83594 9.83301 -5.50293 13.5s-8.83398 5.16699 -15.501 4.5c-8 -0.666992 -18 -2.66699 -30 -6s-24.667 -6.33301 -38 -9c-19.333 -3.33301 -37.666 -6 -54.999 -8s-31.333 -3 -42 -3c-10 0 -19.167 1.33301 -27.5 4s-15.833 5.5 -22.5 8.5
s-12.167 5.83301 -16.5 8.5s-7.5 4 -9.5 4c-3.33301 0 -8.16602 -6.16699 -14.499 -18.5s-13.166 -28.5 -20.499 -48.5l-24.5 -63l-26.5 -66.5c-8.66699 -21 -15.834 -39.333 -21.501 -55s-8.5 -25.5 -8.5 -29.5v-13c0 -4 3.66699 -6.33301 11 -7
c2.66699 0 5.33398 0.833008 8.00098 2.5s5.66699 3.83398 9 6.50098s7.33301 5 12 7s10.334 3 17.001 3c16 0 29.333 -3.16699 40 -9.5s19.167 -14.5 25.5 -24.5s10.833 -21.333 13.5 -34s4 -25 4 -37c0 -10 -1.66699 -20.833 -5 -32.5s-7.66602 -23.334 -12.999 -35.001
s-11.166 -22.667 -17.499 -33s-12.5 -18.833 -18.5 -25.5c-18.667 -21.333 -37.667 -39 -57 -53s-37.666 -21 -54.999 -21s-31 2.83301 -41 8.5s-17.5 12.834 -22.5 21.501s-8.16699 18 -9.5 28s-2 19.333 -2 28c-1.33301 16.667 -6.33301 25 -15 25
c-4.66699 0 -9 -3.33301 -13 -10s-6 -12.667 -6 -18c0 -3.33301 0.5 -11.333 1.5 -24s4.66699 -25.667 11 -39s16.333 -25.333 30 -36s33.167 -16 58.5 -16c31.333 0 58.166 8.16699 80.499 24.5s42.166 35.166 59.499 56.499c8 10 16 21.333 24 34s15.333 26 22 40
s12 27.833 16 41.5s6 26.5 6 38.5c0 35.333 -5.33301 62.333 -16 81s-23.334 32.167 -38.001 40.5s-29.5 12.833 -44.5 13.5s-26.833 0.666992 -35.5 0l42.5 105.5l40.5 98.5c10.667 -3.33301 21.667 -6 33 -8s25.333 -3 42 -3c15.333 0 32 0.666992 50 2s37 4 57 8
s37.167 8.66699 51.5 14s21.5 10.333 21.5 15z" />
    <glyph glyph-name="six" unicode="6" horiz-adv-x="450" 
d="M492 558c0 8.66699 -2.49902 17.168 -7.49902 25.501s-11.833 16 -20.5 23s-18.667 12.667 -30 17s-23 6.5 -35 6.5c-22.667 0 -44.167 -4.5 -64.5 -13.5s-39.166 -22.167 -56.499 -39.5c-23.333 -22 -44.333 -48.833 -63 -80.5s-32.667 -62.167 -42 -91.5l-25 -74.5
l-24.5 -75c-7.66699 -24.333 -14 -47.333 -19 -69s-7.5 -40.834 -7.5 -57.501c0 -16 1.83301 -31.667 5.5 -47s9.83398 -28.833 18.501 -40.5s20 -21.167 34 -28.5s31 -11 51 -11c28.667 0 55.834 8.33301 81.501 25s48 38 67 64s34 54.5 45 85.5s16.5 60.833 16.5 89.5
c0 22.667 -2.83301 41.334 -8.5 56.001s-13.334 26.167 -23.001 34.5s-20.334 14.166 -32.001 17.499s-23.5 5 -35.5 5c-9.33301 0 -20 -1.66699 -32 -5s-24.5 -7.66602 -37.5 -12.999s-25.5 -11.833 -37.5 -19.5s-22.333 -15.834 -31 -24.501l16.5 47l16.5 46
c11.333 32.667 24 60 38 82s31.667 43 53 63c12.667 12.667 26.667 22.5 42 29.5s32.666 10.5 51.999 10.5c23.333 0 40.666 -6 51.999 -18c7.33301 -8.66699 12.666 -17.5 15.999 -26.5s7.33301 -13.167 12 -12.5s8.33398 3.16699 11.001 7.5s4 8.5 4 12.5z
M383.001 261.001c0 -37.333 -6.66699 -70 -20 -98s-29.166 -51.333 -47.499 -70s-37.333 -32.667 -57 -42s-35.834 -14 -48.501 -14c-14.667 0 -27 3 -37 9s-18.167 13.5 -24.5 22.5s-10.833 19 -13.5 30s-4 21.833 -4 32.5c0 27.333 4.83301 54 14.5 80s23 49 40 69
s36.5 36 58.5 48s45.667 18 71 18c14 0 25.5 -2.33301 34.5 -7s16 -11 21 -19s8.33301 -17.167 10 -27.5s2.5 -20.833 2.5 -31.5z" />
    <glyph glyph-name="seven" unicode="7" horiz-adv-x="443" 
d="M524 616c0 3.33301 -1.32812 5.99707 -3.99512 7.99707s-5.83398 3.5 -9.50098 4.5s-7.33398 1.66699 -11.001 2s-6.5 0.5 -8.5 0.5s-6.66699 -2 -14 -6s-17.333 -8.5 -30 -13.5s-28.5 -9.5 -47.5 -13.5s-41.5 -6 -67.5 -6c-16.667 0 -34.5 2 -53.5 6
s-36.667 8.5 -53 13.5l-42.5 13.5c-12 4 -19 6 -21 6c-8.66699 0 -17.334 -7 -26.001 -21s-16.5 -29.5 -23.5 -46.5s-12.833 -32.833 -17.5 -47.5s-7 -23 -7 -25c0 -7.33301 3.33301 -11 10 -11c2.66699 0 5.16699 1.66699 7.5 5s4.83301 7.5 7.5 12.5
s5.16699 10.167 7.5 15.5l6.5 15l22.5 46c5.66699 12 12.5 18 20.5 18c9.33301 0 21.666 -2.66699 36.999 -8s31.333 -9.66602 48 -12.999l41.5 -8.5c11 -2.33301 25.5 -3.5 43.5 -3.5c12.667 0 29 0.666992 49 2s38.667 5.33301 56 12
c-9.33301 -8.66699 -20 -21.334 -32 -38.001s-24.5 -35.167 -37.5 -55.5l-39.5 -64l-36.5 -63l-28 -51c-7.66699 -14.333 -12.834 -24.166 -15.501 -29.499c-5.33301 4.66699 -11.666 11.167 -18.999 19.5l-22 25.5l-19.5 22.5c-5.66699 6.33301 -9.16699 9.5 -10.5 9.5
c-4.66699 0 -9.83398 -0.666992 -15.501 -2s-8.5 -7 -8.5 -17c0 -5.33301 3.33301 -12.666 10 -21.999s14.5 -18.666 23.5 -27.999l25.5 -26.5l17 -17.5c-3.33301 -5.33301 -8.66602 -16.333 -15.999 -33s-14.833 -35 -22.5 -55s-14.334 -39.167 -20.001 -57.5
s-8.5 -31.5 -8.5 -39.5c0 -15.333 0.5 -27.833 1.5 -37.5s6.16699 -14.167 15.5 -13.5c8 0.666992 13 5.5 15 14.5s3.66699 21.5 5 37.5c0.666992 7.33301 3.16699 18 7.5 32s9.5 28.833 15.5 44.5l19 47.5c6.66699 16 12.667 29.667 18 41
c9.33301 -7.33301 18.666 -15.166 27.999 -23.499l26.5 -23l21.5 -17.5c6 -4.66699 10 -7 12 -7c5.33301 0 10.5 1 15.5 3s7.16699 6.33301 6.5 13c-0.666992 4.66699 -5.5 10.834 -14.5 18.501l-20.5 17.5c-2 1.33301 -8.5 7.16602 -19.5 17.499l-39.5 35.5
c4.66699 12 11.834 27.167 21.501 45.5l33 60c12.333 21.667 25.833 43.834 40.5 66.501l44 65l38 52.5c12 16.333 22.667 30.166 32 41.499c9.33301 10.667 17 18.667 23 24s9 8.66602 9 9.99902z" />
    <glyph glyph-name="eight" unicode="8" horiz-adv-x="403" 
d="M436 536c0 10.667 -2.6709 21.665 -8.00391 32.998s-13 21.5 -23 30.5s-22.5 16.333 -37.5 22s-32.5 8.5 -52.5 8.5c-19.333 0 -37.666 -3.83301 -54.999 -11.5s-32.666 -17.667 -45.999 -30s-24 -26 -32 -41s-12 -29.5 -12 -43.5c0 -11.333 1.83301 -23.833 5.5 -37.5
s8.66699 -27.167 15 -40.5s13.5 -26.333 21.5 -39s16 -24 24 -34l-48.5 -44c-20.333 -18.667 -40.166 -38.834 -59.499 -60.501s-35.833 -43.667 -49.5 -66s-20.167 -41.833 -19.5 -58.5c0.666992 -14 5 -28.333 13 -43s18.667 -28 32 -40s28.833 -21.833 46.5 -29.5
s36.5 -11.5 56.5 -11.5c18.667 0 39.167 3.83301 61.5 11.5s43.166 20.834 62.499 39.501c15.333 15.333 28 33.666 38 54.999s15 46.333 15 75c0 16 -4.16699 32.5 -12.5 49.5s-18.166 33.333 -29.499 49s-22.666 29.834 -33.999 42.501s-20.333 22.334 -27 29.001
c14 8 30 20.833 48 38.5s34.833 36.334 50.5 56.001s29 38 40 55s16.5 28.833 16.5 35.5zM398.996 543.998c0 -12 -5.33398 -26.667 -16.001 -44s-23.5 -34.333 -38.5 -51s-30.167 -32 -45.5 -46s-27.666 -23.333 -36.999 -28c-6 6 -12.333 14 -19 24s-13 21 -19 33
s-11 24.667 -15 38s-6 26.333 -6 39c0 8 3 17 9 27s14 19.5 24 28.5s21.5 16.5 34.5 22.5s26.833 9 41.5 9c24 0 44.5 -5.5 61.5 -16.5s25.5 -22.833 25.5 -35.5zM347.995 164.998c0 -14.667 -3.16699 -29.833 -9.5 -45.5s-15.833 -29.834 -28.5 -42.501
c-13.333 -12.667 -28.833 -22.667 -46.5 -30s-35.167 -11 -52.5 -11c-14.667 0 -29 2.5 -43 7.5s-26.5 12 -37.5 21s-20 19.167 -27 30.5s-10.833 23 -11.5 35c-0.666992 10 5 23.833 17 41.5s26.5 36 43.5 55s34.833 37.5 53.5 55.5s34.667 32.667 48 44l29.5 -27
c11 -10 21.333 -21.333 31 -34s17.667 -27.167 24 -43.5s9.5 -35.166 9.5 -56.499z" />
    <glyph glyph-name="nine" unicode="9" horiz-adv-x="378" 
d="M427 504c0 16 -1.83398 31.667 -5.50098 47s-9.83398 28.833 -18.501 40.5s-20 21.167 -34 28.5s-31 11 -51 11c-28.667 0 -55.667 -8.33301 -81 -25s-47.5 -38 -66.5 -64s-34 -54.5 -45 -85.5s-16.5 -60.833 -16.5 -89.5c0 -22.667 2.83301 -41.334 8.5 -56.001
s13.167 -26.167 22.5 -34.5s19.833 -14.166 31.5 -17.499s23.5 -5 35.5 -5c8.66699 0 19.167 1.66699 31.5 5s25 7.66602 38 12.999s25.667 11.833 38 19.5s22.833 16.167 31.5 25.5l-16.5 -48l-16.5 -46c-11.333 -32.667 -24 -60 -38 -82s-31.667 -43 -53 -63
c-12.667 -12.667 -26.667 -22.5 -42 -29.5s-32.666 -10.5 -51.999 -10.5c-24.667 0 -42 6 -52 18c-7.33301 8.66699 -12.666 17.5 -15.999 26.5s-7.33301 13.167 -12 12.5s-8.5 -3.16699 -11.5 -7.5s-4.5 -8.5 -4.5 -12.5c0 -8.66699 2.66699 -17.167 8 -25.5
s12.333 -16 21 -23s18.667 -12.667 30 -17s23 -6.5 35 -6.5c22 0 43.333 4.5 64 13.5s39.667 22.167 57 39.5c23.333 22 44.333 48.833 63 80.5s32.667 62.167 42 91.5l25 74.5c8.66699 25.667 16.667 50.667 24 75s13.5 47.333 18.5 69s7.5 40.834 7.5 57.501zM393.999 502
c0 -27.333 -4.83301 -54 -14.5 -80s-23 -49 -40 -69s-36.667 -36 -59 -48s-45.833 -18 -70.5 -18c-14 0 -25.5 2.33301 -34.5 7s-16 11 -21 19s-8.33301 17 -10 27s-2.5 20.667 -2.5 32c0 37.333 6.66699 70 20 98s29.166 51.333 47.499 70s37.333 32.667 57 42
s35.834 14 48.501 14c14.667 0 27 -3 37 -9s18.167 -13.5 24.5 -22.5s10.833 -19 13.5 -30s4 -21.833 4 -32.5z" />
    <glyph glyph-name="colon" unicode=":" horiz-adv-x="216" 
d="M186 299c0.666992 7.33301 -1.33301 13.499 -6 18.499s-10.667 7.83301 -18 8.5c-6.66699 0 -12.667 -2 -18 -6s-8.33301 -9.66699 -9 -17s1.33301 -13.5 6 -18.5s10.667 -7.83301 18 -8.5c6.66699 -0.666992 12.667 1.33301 18 6s8.33301 10.334 9 17.001zM110 24.999
c0.666992 7.33301 -1.33105 13.5 -5.99805 18.5s-10.334 7.83301 -17.001 8.5c-7.33301 0.666992 -13.666 -1.33301 -18.999 -6s-8 -10.334 -8 -17.001c-0.666992 -7.33301 1.16602 -13.5 5.49902 -18.5s10.166 -7.83301 17.499 -8.5c6.66699 -0.666992 12.667 1.33301 18 6
s8.33301 10.334 9 17.001z" />
    <glyph glyph-name="semicolon" unicode=";" horiz-adv-x="249" 
d="M182 299c0.666992 7.33301 -1.33301 13.6641 -6 18.9971s-10.334 8 -17.001 8c-7.33301 0.666992 -13.5 -1.16602 -18.5 -5.49902s-7.83301 -10.166 -8.5 -17.499s1.33301 -13.5 6 -18.5s10.334 -7.83301 17.001 -8.5c7.33301 -0.666992 13.5 1.33301 18.5 6
s7.83301 10.334 8.5 17.001zM124 31.998c0 8.66699 -2.83496 16.667 -8.50195 24s-13.167 11 -22.5 11c-7.33301 0 -13 -3.16699 -17 -9.5s-6 -12.5 -6 -18.5c0 -4 1 -7.33301 3 -10l6 -8l5.5 -7.5c1.66699 -2.33301 2.5 -5.5 2.5 -9.5c0 -6.66699 -2 -12.834 -6 -18.501
s-8.16699 -11 -12.5 -16l-12 -14c-3.66699 -4.33301 -5.5 -8.16602 -5.5 -11.499c0 -10.667 4.66699 -16 14 -16c2.66699 0 7.33398 3.66699 14.001 11s13.334 16.333 20.001 27s12.5 22 17.5 34s7.5 22.667 7.5 32z" />
    <glyph glyph-name="less" unicode="&#x3c;" horiz-adv-x="615" 
d="M557 470c0 3.33301 -0.332031 6.66406 -0.999023 9.99707s-4.66699 4.66602 -12 3.99902c-2.66699 -0.666992 -9 -3.66699 -19 -9s-22.167 -12.166 -36.5 -20.499l-47.5 -27.5l-51 -30c-19.333 -11.333 -40.5 -24.5 -63.5 -39.5s-44.667 -30 -65 -45
s-37.5 -28.667 -51.5 -41s-21 -20.833 -21 -25.5s4.33301 -10.167 13 -16.5s19.834 -13.166 33.501 -20.499s29 -15 46 -23l49.5 -23c11.333 -5.33301 24.5 -12.166 39.5 -20.499l43.5 -23.5l37 -19c10.667 -5.33301 17 -8 19 -8c3.33301 0 6.66602 1.66699 9.99902 5
s5.33301 6.66602 6 9.99902c0 2 -5 6.33301 -15 13s-22.5 14.167 -37.5 22.5l-47.5 25.5c-16.667 8.66699 -31.334 16 -44.001 22c-22 10.667 -42 20.834 -60 30.501l-52 28.5c10 6.66699 22.5 15.5 37.5 26.5l48 35l51.5 36.5c17.333 12 33.666 22 48.999 30
c16.667 8.66699 33.334 18.167 50.001 28.5l45 28.5c13.333 8.66699 24.333 16.334 33 23.001s13 11 13 13z" />
    <glyph glyph-name="equal" unicode="=" horiz-adv-x="474" 
d="M479 353c0.666992 4 -0.165039 7.33008 -2.49805 9.99707s-5.5 4.83398 -9.5 6.50098s-8.16699 2.83398 -12.5 3.50098s-8.5 1 -12.5 1h-121h-36h-44c-15.333 0 -30.5 0.166992 -45.5 0.5s-27.5 0.833008 -37.5 1.5c-8.66699 0.666992 -18 -0.166016 -28 -2.49902
s-15 -7.83301 -15 -16.5c0 -6 4.5 -10.5 13.5 -13.5s20.5 -5.16699 34.5 -6.5s29.333 -2 46 -2h46c32.667 -0.666992 63.5 -0.833984 92.5 -0.500977s55.167 -0.166992 78.5 -1.5c15.333 -1.33301 27.666 -0.666016 36.999 2.00098s14.666 8.66699 15.999 18z
M484.001 161.997c1.33301 8 -2.49902 13.4971 -11.499 16.4971s-17.5 4.5 -25.5 4.5h-121h-35h-45c-15.333 0 -30.5 0.166992 -45.5 0.5s-27.5 0.833008 -37.5 1.5c-8.66699 0.666992 -17.834 0 -27.501 -2s-14.834 -7.66699 -15.501 -17c0 -6 4.66699 -10.5 14 -13.5
s21 -5.16699 35 -6.5s29.333 -2.16602 46 -2.49902s32 -0.5 46 -0.5c32.667 -0.666992 63.334 -0.666992 92.001 0s54.667 0.333984 78 -0.999023c16 -1.33301 28.5 -0.666016 37.5 2.00098s14.167 8.66699 15.5 18z" />
    <glyph glyph-name="greater" unicode="&#x3e;" horiz-adv-x="615" 
d="M543 307c0 4.66699 -4.33105 10.1699 -12.998 16.5029s-19.834 13.166 -33.501 20.499s-29 15 -46 23l-49.5 23c-11.333 5.33301 -24.5 12.166 -39.5 20.499l-43.5 24c-14 7.66699 -26.333 14.167 -37 19.5s-17 8 -19 8c-3.33301 0 -6.66602 -1.66699 -9.99902 -5
s-5.33301 -7 -6 -11c0 -2 5 -6.33301 15 -13s22.333 -14.167 37 -22.5l47 -25.5c16.667 -8.66699 31.667 -16 45 -22l60 -30l52 -28c-10 -6.66699 -22.5 -15.5 -37.5 -26.5l-48 -35l-51.5 -36.5c-17.333 -12 -33.333 -22 -48 -30l-50 -29l-45.5 -28
c-13.667 -8.66699 -24.834 -16.334 -33.501 -23.001s-13 -11 -13 -13c0 -3.33301 0.333008 -6.66602 1 -9.99902s4.66699 -5 12 -5c2.66699 0.666992 9 3.66699 19 9s22.167 12.166 36.5 20.499l47 28l51.5 30.5c18.667 10.667 39.667 23.667 63 39s45.166 30.5 65.499 45.5
s37.5 28.5 51.5 40.5s21 20.333 21 25z" />
    <glyph glyph-name="question" unicode="?" horiz-adv-x="327" 
d="M399 527c0 12.667 -1.66992 25.334 -5.00293 38.001s-8.5 23.667 -15.5 33s-16.5 17 -28.5 23s-26.333 9 -43 9c-4 0 -11.333 -0.833008 -22 -2.5s-21.834 -4.83398 -33.501 -9.50098s-22.167 -10.834 -31.5 -18.501s-15 -17.834 -17 -30.501
c0 -2.66699 0.666992 -5.33398 2 -8.00098s3.66602 -4 6.99902 -4c2.66699 0 6.16699 2.33301 10.5 7s10.166 9.33398 17.499 14.001c9.33301 6.66699 19.5 12.334 30.5 17.001s21.833 7 32.5 7c20.667 0 36.834 -6.5 48.501 -19.5s17.5 -29.5 17.5 -49.5
c0 -17.333 -3.83301 -33.333 -11.5 -48s-17.667 -29 -30 -43s-25.666 -28.167 -39.999 -42.5s-27.833 -29.5 -40.5 -45.5c-6.66699 -8 -14.167 -19.333 -22.5 -34s-16.166 -29.667 -23.499 -45s-13.5 -30.166 -18.5 -44.499s-7.5 -25.5 -7.5 -33.5
c0 -4 0.833008 -9.5 2.5 -16.5s4.83398 -10.5 9.50098 -10.5s8.33398 5 11.001 15s5.66699 20.333 9 31c3.33301 11.333 10.5 28.333 21.5 51s24.5 45.334 40.5 68.001c10 13.333 22.333 27.333 37 42s28.834 30.167 42.501 46.5s25.5 33.166 35.5 50.499s15 35 15 53z
M173.997 23c0 6.66699 -1.83301 12.332 -5.5 16.999s-9.16699 7.33398 -16.5 8.00098c-6.66699 0.666992 -12 -1.5 -16 -6.5s-6.33301 -11.167 -7 -18.5c-0.666992 -6 1 -11.167 5 -15.5s9.66699 -6.5 17 -6.5c15.333 0 23 7.33301 23 22z" />
    <glyph glyph-name="at" unicode="@" 
d="M188 194c0 7.33301 -2.66797 14 -8.00098 20s-11.666 9 -18.999 9c-8 0 -14.667 -3 -20 -9s-8 -12.667 -8 -20s2.5 -13.666 7.5 -18.999s11.5 -8 19.5 -8c7.33301 0 13.833 2.66699 19.5 8s8.5 11.666 8.5 18.999z" />
    <glyph glyph-name="A" unicode="A" 
d="M188 194c0 7.33301 -2.66797 14 -8.00098 20s-11.666 9 -18.999 9c-8 0 -14.667 -3 -20 -9s-8 -12.667 -8 -20s2.5 -13.666 7.5 -18.999s11.5 -8 19.5 -8c7.33301 0 13.833 2.66699 19.5 8s8.5 11.666 8.5 18.999z" />
    <glyph glyph-name="B" unicode="B" 
d="M188 194c0 7.33301 -2.66797 14 -8.00098 20s-11.666 9 -18.999 9c-8 0 -14.667 -3 -20 -9s-8 -12.667 -8 -20s2.5 -13.666 7.5 -18.999s11.5 -8 19.5 -8c7.33301 0 13.833 2.66699 19.5 8s8.5 11.666 8.5 18.999z" />
    <glyph glyph-name="C" unicode="C" 
d="M188 194c0 7.33301 -2.66797 14 -8.00098 20s-11.666 9 -18.999 9c-8 0 -14.667 -3 -20 -9s-8 -12.667 -8 -20s2.5 -13.666 7.5 -18.999s11.5 -8 19.5 -8c7.33301 0 13.833 2.66699 19.5 8s8.5 11.666 8.5 18.999z" />
    <glyph glyph-name="D" unicode="D" 
d="M188 194c0 7.33301 -2.66797 14 -8.00098 20s-11.666 9 -18.999 9c-8 0 -14.667 -3 -20 -9s-8 -12.667 -8 -20s2.5 -13.666 7.5 -18.999s11.5 -8 19.5 -8c7.33301 0 13.833 2.66699 19.5 8s8.5 11.666 8.5 18.999z" />
    <glyph glyph-name="E" unicode="E" 
d="M188 194c0 7.33301 -2.66797 14 -8.00098 20s-11.666 9 -18.999 9c-8 0 -14.667 -3 -20 -9s-8 -12.667 -8 -20s2.5 -13.666 7.5 -18.999s11.5 -8 19.5 -8c7.33301 0 13.833 2.66699 19.5 8s8.5 11.666 8.5 18.999z" />
    <glyph glyph-name="F" unicode="F" 
d="M188 194c0 7.33301 -2.66797 14 -8.00098 20s-11.666 9 -18.999 9c-8 0 -14.667 -3 -20 -9s-8 -12.667 -8 -20s2.5 -13.666 7.5 -18.999s11.5 -8 19.5 -8c7.33301 0 13.833 2.66699 19.5 8s8.5 11.666 8.5 18.999z" />
    <glyph glyph-name="G" unicode="G" 
d="M188 194c0 7.33301 -2.66797 14 -8.00098 20s-11.666 9 -18.999 9c-8 0 -14.667 -3 -20 -9s-8 -12.667 -8 -20s2.5 -13.666 7.5 -18.999s11.5 -8 19.5 -8c7.33301 0 13.833 2.66699 19.5 8s8.5 11.666 8.5 18.999z" />
    <glyph glyph-name="H" unicode="H" 
d="M188 194c0 7.33301 -2.66797 14 -8.00098 20s-11.666 9 -18.999 9c-8 0 -14.667 -3 -20 -9s-8 -12.667 -8 -20s2.5 -13.666 7.5 -18.999s11.5 -8 19.5 -8c7.33301 0 13.833 2.66699 19.5 8s8.5 11.666 8.5 18.999z" />
    <glyph glyph-name="I" unicode="I" 
d="M188 194c0 7.33301 -2.66797 14 -8.00098 20s-11.666 9 -18.999 9c-8 0 -14.667 -3 -20 -9s-8 -12.667 -8 -20s2.5 -13.666 7.5 -18.999s11.5 -8 19.5 -8c7.33301 0 13.833 2.66699 19.5 8s8.5 11.666 8.5 18.999z" />
    <glyph glyph-name="J" unicode="J" 
d="M188 194c0 7.33301 -2.66797 14 -8.00098 20s-11.666 9 -18.999 9c-8 0 -14.667 -3 -20 -9s-8 -12.667 -8 -20s2.5 -13.666 7.5 -18.999s11.5 -8 19.5 -8c7.33301 0 13.833 2.66699 19.5 8s8.5 11.666 8.5 18.999z" />
    <glyph glyph-name="K" unicode="K" 
d="M188 194c0 7.33301 -2.66797 14 -8.00098 20s-11.666 9 -18.999 9c-8 0 -14.667 -3 -20 -9s-8 -12.667 -8 -20s2.5 -13.666 7.5 -18.999s11.5 -8 19.5 -8c7.33301 0 13.833 2.66699 19.5 8s8.5 11.666 8.5 18.999z" />
    <glyph glyph-name="L" unicode="L" 
d="M188 194c0 7.33301 -2.66797 14 -8.00098 20s-11.666 9 -18.999 9c-8 0 -14.667 -3 -20 -9s-8 -12.667 -8 -20s2.5 -13.666 7.5 -18.999s11.5 -8 19.5 -8c7.33301 0 13.833 2.66699 19.5 8s8.5 11.666 8.5 18.999z" />
    <glyph glyph-name="M" unicode="M" 
d="M188 194c0 7.33301 -2.66797 14 -8.00098 20s-11.666 9 -18.999 9c-8 0 -14.667 -3 -20 -9s-8 -12.667 -8 -20s2.5 -13.666 7.5 -18.999s11.5 -8 19.5 -8c7.33301 0 13.833 2.66699 19.5 8s8.5 11.666 8.5 18.999z" />
    <glyph glyph-name="N" unicode="N" 
d="M188 194c0 7.33301 -2.66797 14 -8.00098 20s-11.666 9 -18.999 9c-8 0 -14.667 -3 -20 -9s-8 -12.667 -8 -20s2.5 -13.666 7.5 -18.999s11.5 -8 19.5 -8c7.33301 0 13.833 2.66699 19.5 8s8.5 11.666 8.5 18.999z" />
    <glyph glyph-name="O" unicode="O" 
d="M188 194c0 7.33301 -2.66797 14 -8.00098 20s-11.666 9 -18.999 9c-8 0 -14.667 -3 -20 -9s-8 -12.667 -8 -20s2.5 -13.666 7.5 -18.999s11.5 -8 19.5 -8c7.33301 0 13.833 2.66699 19.5 8s8.5 11.666 8.5 18.999z" />
    <glyph glyph-name="P" unicode="P" 
d="M188 194c0 7.33301 -2.66797 14 -8.00098 20s-11.666 9 -18.999 9c-8 0 -14.667 -3 -20 -9s-8 -12.667 -8 -20s2.5 -13.666 7.5 -18.999s11.5 -8 19.5 -8c7.33301 0 13.833 2.66699 19.5 8s8.5 11.666 8.5 18.999z" />
    <glyph glyph-name="Q" unicode="Q" 
d="M188 194c0 7.33301 -2.66797 14 -8.00098 20s-11.666 9 -18.999 9c-8 0 -14.667 -3 -20 -9s-8 -12.667 -8 -20s2.5 -13.666 7.5 -18.999s11.5 -8 19.5 -8c7.33301 0 13.833 2.66699 19.5 8s8.5 11.666 8.5 18.999z" />
    <glyph glyph-name="R" unicode="R" 
d="M188 194c0 7.33301 -2.66797 14 -8.00098 20s-11.666 9 -18.999 9c-8 0 -14.667 -3 -20 -9s-8 -12.667 -8 -20s2.5 -13.666 7.5 -18.999s11.5 -8 19.5 -8c7.33301 0 13.833 2.66699 19.5 8s8.5 11.666 8.5 18.999z" />
    <glyph glyph-name="S" unicode="S" 
d="M188 194c0 7.33301 -2.66797 14 -8.00098 20s-11.666 9 -18.999 9c-8 0 -14.667 -3 -20 -9s-8 -12.667 -8 -20s2.5 -13.666 7.5 -18.999s11.5 -8 19.5 -8c7.33301 0 13.833 2.66699 19.5 8s8.5 11.666 8.5 18.999z" />
    <glyph glyph-name="T" unicode="T" 
d="M188 194c0 7.33301 -2.66797 14 -8.00098 20s-11.666 9 -18.999 9c-8 0 -14.667 -3 -20 -9s-8 -12.667 -8 -20s2.5 -13.666 7.5 -18.999s11.5 -8 19.5 -8c7.33301 0 13.833 2.66699 19.5 8s8.5 11.666 8.5 18.999z" />
    <glyph glyph-name="U" unicode="U" 
d="M188 194c0 7.33301 -2.66797 14 -8.00098 20s-11.666 9 -18.999 9c-8 0 -14.667 -3 -20 -9s-8 -12.667 -8 -20s2.5 -13.666 7.5 -18.999s11.5 -8 19.5 -8c7.33301 0 13.833 2.66699 19.5 8s8.5 11.666 8.5 18.999z" />
    <glyph glyph-name="V" unicode="V" 
d="M188 194c0 7.33301 -2.66797 14 -8.00098 20s-11.666 9 -18.999 9c-8 0 -14.667 -3 -20 -9s-8 -12.667 -8 -20s2.5 -13.666 7.5 -18.999s11.5 -8 19.5 -8c7.33301 0 13.833 2.66699 19.5 8s8.5 11.666 8.5 18.999z" />
    <glyph glyph-name="W" unicode="W" 
d="M188 194c0 7.33301 -2.66797 14 -8.00098 20s-11.666 9 -18.999 9c-8 0 -14.667 -3 -20 -9s-8 -12.667 -8 -20s2.5 -13.666 7.5 -18.999s11.5 -8 19.5 -8c7.33301 0 13.833 2.66699 19.5 8s8.5 11.666 8.5 18.999z" />
    <glyph glyph-name="X" unicode="X" 
d="M188 194c0 7.33301 -2.66797 14 -8.00098 20s-11.666 9 -18.999 9c-8 0 -14.667 -3 -20 -9s-8 -12.667 -8 -20s2.5 -13.666 7.5 -18.999s11.5 -8 19.5 -8c7.33301 0 13.833 2.66699 19.5 8s8.5 11.666 8.5 18.999z" />
    <glyph glyph-name="Y" unicode="Y" 
d="M188 194c0 7.33301 -2.66797 14 -8.00098 20s-11.666 9 -18.999 9c-8 0 -14.667 -3 -20 -9s-8 -12.667 -8 -20s2.5 -13.666 7.5 -18.999s11.5 -8 19.5 -8c7.33301 0 13.833 2.66699 19.5 8s8.5 11.666 8.5 18.999z" />
    <glyph glyph-name="Z" unicode="Z" 
d="M188 194c0 7.33301 -2.66797 14 -8.00098 20s-11.666 9 -18.999 9c-8 0 -14.667 -3 -20 -9s-8 -12.667 -8 -20s2.5 -13.666 7.5 -18.999s11.5 -8 19.5 -8c7.33301 0 13.833 2.66699 19.5 8s8.5 11.666 8.5 18.999z" />
    <glyph glyph-name="bracketleft" unicode="[" horiz-adv-x="326" 
d="M510 703c1.33301 7.33301 -0.339844 11.833 -5.00684 13.5s-13 2.83398 -25 3.50098h-124c-6 0 -12.333 0.166992 -19 0.5s-13 -0.333984 -19 -2.00098s-11.667 -4.33398 -17 -8.00098s-9.66602 -9.5 -12.999 -17.5c-4 -10 -9.66699 -25.667 -17 -47l-24.5 -74.5
l-28.5 -91l-29.5 -96l-27.5 -90.5c-8.66699 -28.667 -15.667 -53.334 -21 -74.001c-7.33301 -26.667 -15.333 -54 -24 -82l-25 -82c-8 -26.667 -15.167 -52.334 -21.5 -77.001s-10.833 -46.667 -13.5 -66c-2 -14.667 -0.166992 -24.167 5.5 -28.5
s11.167 -7.16602 16.5 -8.49902c16 -0.666992 32.833 -1.16699 50.5 -1.5s34.334 -0.333008 50.001 0s29.667 0.666016 42 0.999023s21.5 0.833008 27.5 1.5c10 0.666992 18.167 1.33398 24.5 2.00098s9.5 5.33398 9.5 14.001c0 5.33301 -4 9.33301 -12 12s-18.667 4 -32 4
c-8.66699 0 -20 -0.166992 -34 -0.5l-43.5 -1c-15 -0.333008 -29.5 -0.5 -43.5 -0.5c-13.333 0 -24 0.333008 -32 1c4 20.667 9.5 44 16.5 70l23 82.5l26.5 89c9.33301 30.333 18 59.833 26 88.5l20 67.5l25.5 83.5l28 90l27.5 87c8.66699 27.333 16.834 51.833 24.501 73.5
s13.834 38.5 18.501 50.5c11.333 0.666992 23.666 1 36.999 1h41h40c12.667 0 23.334 0.333008 32.001 1c6.66699 0.666992 12.334 0.833984 17.001 0.500977s8.33398 -0.5 11.001 -0.5c3.33301 0 5.83301 0.833008 7.5 2.5s2.83398 4.5 3.50098 8.5z" />
    <glyph glyph-name="backslash" unicode="\" horiz-adv-x="351" 
d="M334 -50c0 6 -4.16699 23.332 -12.5 51.999l-31 103.5l-41 132l-43.5 138.5l-25.5 77l-22.5 67.5l-21.5 65c-7 21.667 -14.167 45.167 -21.5 70.5c-1.33301 4.66699 -3.33301 10.5 -6 17.5s-5.5 13.833 -8.5 20.5s-6.33301 12.334 -10 17.001s-6.83398 7 -9.50098 7
c-5.33301 0 -8.5 -1.66699 -9.5 -5s-0.833008 -7.66602 0.5 -12.999c0.666992 -4 4.66699 -17.333 12 -40l27 -81.5l33.5 -101l32.5 -99.5l72.5 -229l57.5 -189c1.33301 -5.33301 3.33301 -11.666 6 -18.999s5.33398 -11 8.00098 -11
c3.33301 -0.666992 6.5 1.16602 9.5 5.49902s4.16699 9.16602 3.5 14.499z" />
    <glyph glyph-name="bracketright" unicode="]" horiz-adv-x="326" 
d="M404 681c2 14.667 0.171875 23.9971 -5.49512 27.9971s-11.5 6.66699 -17.5 8c-16 0.666992 -32.667 1.16699 -50 1.5s-33.833 0.333008 -49.5 0s-29.667 -0.666016 -42 -0.999023s-21.5 -0.833008 -27.5 -1.5c-10 -1.33301 -18.167 -2.16602 -24.5 -2.49902
s-9.5 -4.5 -9.5 -12.5c0 -5.33301 4 -9.5 12 -12.5s18.667 -4.5 32 -4.5c8.66699 0 20 0.166992 34 0.5l43.5 1c15 0.333008 29.167 0.5 42.5 0.5c14 0 25 -0.333008 33 -1c-4 -20.667 -9.5 -44.167 -16.5 -70.5l-23 -83l-26.5 -88.5c-9.33301 -30 -18 -59.333 -26 -88
l-20 -67.5l-25.5 -83.5l-28 -90l-27.5 -86.5c-8.66699 -27 -16.834 -51.333 -24.501 -73s-13.834 -38.5 -18.501 -50.5c-11.333 -1.33301 -24 -2 -38 -2h-41c-13.333 0 -26.333 0.166992 -39 0.5s-23.334 0.166016 -32.001 -0.500977
c-13.333 -1.33301 -22.833 -1.5 -28.5 -0.5s-9.16699 -2.83301 -10.5 -11.5c-1.33301 -7.33301 0.333984 -11.666 5.00098 -12.999s13 -2.33301 25 -3h26c11.333 0 23.166 -0.166992 35.499 -0.5s24.166 -0.5 35.499 -0.5h27c6 0 12.333 -0.166992 19 -0.5
s13 0.333984 19 2.00098s11.667 4.5 17 8.5s9.66602 10 12.999 18c4 9.33301 9.66699 24.833 17 46.5l24.5 74.5l28.5 90.5l29.5 96l27 90.5l21.5 74c7.33301 26.667 15.333 54 24 82l25 82.5c8 27 15.167 52.667 21.5 77s10.833 46.5 13.5 66.5z" />
    <glyph glyph-name="underscore" unicode="_" horiz-adv-x="485" 
d="M453 -120c-0.666992 6 -3.00195 11 -7.00195 15s-9.33301 6 -16 6c-37.333 0 -69.5 -0.166992 -96.5 -0.5l-80 -1c-26.333 -0.333008 -54.666 -0.833008 -84.999 -1.5s-66.833 -1 -109.5 -1c-11.333 0 -20.666 -0.666992 -27.999 -2s-11 -6 -11 -14
c0 -6 1.5 -10.5 4.5 -13.5s7 -5 12 -6s10.167 -1.5 15.5 -1.5h17c51.333 0.666992 100.166 1.16699 146.499 1.5s82.833 0.5 109.5 0.5c9.33301 0 21.5 -0.166992 36.5 -0.5s29.333 0 43 1s25.334 2.83301 35.001 5.5s14.167 6.66699 13.5 12z" />
    <glyph glyph-name="grave" unicode="`" 
d="M188 194c0 7.33301 -2.66797 14 -8.00098 20s-11.666 9 -18.999 9c-8 0 -14.667 -3 -20 -9s-8 -12.667 -8 -20s2.5 -13.666 7.5 -18.999s11.5 -8 19.5 -8c7.33301 0 13.833 2.66699 19.5 8s8.5 11.666 8.5 18.999z" />
    <glyph glyph-name="a" unicode="a" horiz-adv-x="298" 
d="M276 247c0 13.333 -2.33301 25.168 -7 35.501s-10.667 18.833 -18 25.5s-15.5 11.667 -24.5 15s-17.5 5 -25.5 5c-15.333 0 -29.833 -2.83301 -43.5 -8.5s-26.667 -12.834 -39 -21.501s-23.833 -18.334 -34.5 -29.001s-20.334 -21 -29.001 -31l-23.5 -27l-21 -23.5
c-6.33301 -7 -11.333 -13 -15 -18s-5.5 -7.83301 -5.5 -8.5c0 -2.66699 0.166992 -5.83398 0.5 -9.50098s3.5 -5.5 9.5 -5.5c2 0 5.33301 1.83301 10 5.5s10.334 8.83398 17.001 15.501l22 23l25 27l26 27.5c9.33301 9.66699 19.166 18.5 29.499 26.5s20.833 14.667 31.5 20
s21 8 31 8c12.667 0 24.834 -4.16699 36.501 -12.5s17.5 -19.833 17.5 -34.5c0 -13.333 -1.83301 -25.5 -5.5 -36.5s-7.83398 -20.5 -12.501 -28.5h-65c-8.66699 0 -15.834 -1.66699 -21.501 -5s-8.5 -7.33301 -8.5 -12c0 -3.33301 1.66699 -7.33301 5 -12
s7.66602 -7 12.999 -7c9.33301 0 19.333 -0.166992 30 -0.5s22.667 -0.166016 36 0.500977l-23.5 -44.5c-6.33301 -11.667 -15.166 -23.5 -26.499 -35.5c-10.667 -11.333 -22.834 -20.833 -36.501 -28.5s-25.5 -11.5 -35.5 -11.5c-7.33301 0 -14.166 3.66699 -20.499 11
s-11.166 15 -14.499 23c-4 8 -7 14.167 -9 18.5s-5.66699 6.5 -11 6.5s-9 -2.5 -11 -7.5s-3 -9.83301 -3 -14.5s1.66699 -10.834 5 -18.501s7.83301 -15.167 13.5 -22.5s12.5 -13.666 20.5 -18.999s17 -8 27 -8c31.333 -0 60.333 14.333 87 43
c16.667 18 29.834 34.333 39.501 49s19.167 32.667 28.5 54c8 18.667 14.833 37.167 20.5 55.5s8.5 33.5 8.5 45.5z" />
    <glyph glyph-name="b" unicode="b" horiz-adv-x="317" 
d="M647 638c0 2.66699 -2.50098 5.50098 -7.50098 8.50098s-11.833 4.5 -20.5 4.5h-91c-24 0 -43.333 -1.66699 -58 -5s-26.834 -8.5 -36.501 -15.5s-17.667 -15.833 -24 -26.5s-13.166 -23.667 -20.499 -39c-9.33301 -19.333 -18.666 -40.166 -27.999 -62.499l-29 -66.5
l-39.5 -85l-34.5 -77c0 16 -6 29 -18 39s-26 15 -42 15c-15.333 0 -29.166 -2.5 -41.499 -7.5s-24 -11.667 -35 -20s-21.833 -18 -32.5 -29l-34 -34.5l-22.5 -23.5l-21.5 -23.5c-6.66699 -7.33301 -12.167 -13.833 -16.5 -19.5s-6.5 -9.16699 -6.5 -10.5
c0 -13.333 4 -20 12 -20c2 0 5.16699 2.16699 9.5 6.5s9.16602 9.66602 14.499 15.999l16.5 20.5l16.5 21c-8 -20.667 -14.667 -44 -20 -70s-8 -50.667 -8 -74c0 -4 1 -9.33301 3 -16s5.16699 -13.334 9.5 -20.001s9.66602 -12.334 15.999 -17.001s13.833 -7 22.5 -7
c30.667 0 56.834 8 78.501 24s41.5 44 59.5 84c22.667 50 43.5 98.167 62.5 144.5l63.5 147.5l41.5 93.5c14.333 31.667 27.833 59.834 40.5 84.501c7.33301 14.667 18.333 25.834 33 33.501s32 11.5 52 11.5h108c6.66699 0 13 0.666992 19 2s9 5.66602 9 12.999z
M234.999 255.001c0 -15.333 -3.66699 -35.499 -11 -60.499s-17.333 -49.833 -30 -74.5s-27.5 -45.834 -44.5 -63.501s-35.167 -26.5 -54.5 -26.5c-13.333 0 -23 4.83301 -29 14.5s-9 21.834 -9 36.501c0 20 3.5 42.667 10.5 68s16.5 49.166 28.5 71.499s26.5 41 43.5 56
s35.5 22.5 55.5 22.5c7.33301 0 15.833 -3 25.5 -9s14.5 -17.667 14.5 -35z" />
    <glyph glyph-name="c" unicode="c" 
d="M188 194c0 7.33301 -2.66797 14 -8.00098 20s-11.666 9 -18.999 9c-8 0 -14.667 -3 -20 -9s-8 -12.667 -8 -20s2.5 -13.666 7.5 -18.999s11.5 -8 19.5 -8c7.33301 0 13.833 2.66699 19.5 8s8.5 11.666 8.5 18.999z" />
    <glyph glyph-name="d" unicode="d" 
d="M188 194c0 7.33301 -2.66797 14 -8.00098 20s-11.666 9 -18.999 9c-8 0 -14.667 -3 -20 -9s-8 -12.667 -8 -20s2.5 -13.666 7.5 -18.999s11.5 -8 19.5 -8c7.33301 0 13.833 2.66699 19.5 8s8.5 11.666 8.5 18.999z" />
    <glyph glyph-name="e" unicode="e" 
d="M188 194c0 7.33301 -2.66797 14 -8.00098 20s-11.666 9 -18.999 9c-8 0 -14.667 -3 -20 -9s-8 -12.667 -8 -20s2.5 -13.666 7.5 -18.999s11.5 -8 19.5 -8c7.33301 0 13.833 2.66699 19.5 8s8.5 11.666 8.5 18.999z" />
    <glyph glyph-name="f" unicode="f" horiz-adv-x="483" 
d="M444 245c0 10 -1.00781 19.833 -3.00781 29.5s-5.16699 18.5 -9.5 26.5s-10.5 14.5 -18.5 19.5s-18 7.5 -30 7.5c-10.667 0 -23.167 -2.66699 -37.5 -8s-27.166 -12.333 -38.499 -21c4 19.333 0 29 -12 29l-19 -25c-5.33301 -6.66699 -10.666 -15.667 -15.999 -27
c-6.66699 13.333 -16.167 25 -28.5 35s-27.166 15 -44.499 15c-13.333 0 -26.166 -3.16699 -38.499 -9.5s-24.666 -14.833 -36.999 -25.5s-24.666 -22.5 -36.999 -35.5l-37.5 -38.5l-16.5 -17c-5.66699 -6 -10.834 -11.833 -15.501 -17.5l-12 -15
c-3.33301 -4.33301 -5 -6.83301 -5 -7.5c0 -13.333 4 -20 12 -20c2.66699 0 6.16699 2 10.5 6s9 8.83301 14 14.5l15.5 17.5l14 16c-7.33301 -17.333 -13.166 -35.333 -17.499 -54s-6.5 -32.667 -6.5 -42c0 -20.667 1.66699 -37.334 5 -50.001s8 -22.5 14 -29.5
s12.833 -11.833 20.5 -14.5s15.834 -4 24.501 -4c13.333 0 27 4.66699 41 14s25 18.333 33 27l-7 -15c-4.66699 -9.33301 -10 -21.166 -16 -35.499l-19.5 -45.5l-21.5 -50l-21 -49c-7.33301 -18 -14.666 -35 -21.999 -51l-19 -41c-2 -6 -3.83301 -12 -5.5 -18
s0.166016 -10.667 5.49902 -14c6 -3.33301 11.333 -2 16 4s8.33398 12.333 11.001 19l17.5 41l22.5 53l30.5 70l29.5 67l24.5 54l14.5 32c4 -15.333 10.5 -29.5 19.5 -42.5s21.167 -19.5 36.5 -19.5c26.667 0 49 6.66699 67 20s34.667 31.333 50 54
c10 14.667 19 30.667 27 48s14.667 34 20 50s9.33301 30.5 12 43.5s4 22.833 4 29.5zM414.992 250c0 -13.333 -2.33203 -27.9961 -6.99902 -43.9961s-10.334 -31.833 -17.001 -47.5s-13.834 -30.334 -21.501 -44.001s-14.5 -24.834 -20.5 -33.501
c-11.333 -15.333 -23.166 -27.333 -35.499 -36s-26.5 -13 -42.5 -13c-6 0 -11.5 2.5 -16.5 7.5s-9.5 11.167 -13.5 18.5s-7.16699 15 -9.5 23s-3.5 15 -3.5 21c0 2.66699 1.33301 8.16699 4 16.5s6.33398 18.333 11.001 30s10.5 24 17.5 37s14.833 26.167 23.5 39.5
c12.667 19.333 27 37 43 53s32.333 24 49 24c10.667 0 18.667 -1.33301 24 -4s9.16602 -6.33398 11.499 -11.001s3.5 -10.334 3.5 -17.001v-20zM232.993 245.004c0 -11.333 -1.99805 -24.1689 -5.99805 -38.502s-9 -29 -15 -44s-12.833 -29.667 -20.5 -44
s-14.834 -26.833 -21.501 -37.5c-9.33301 -14.667 -20.833 -26.834 -34.5 -36.501s-28.167 -14.5 -43.5 -14.5c-7.33301 0 -13.333 2.33301 -18 7s-8.33398 10.334 -11.001 17.001s-4.33398 13.5 -5.00098 20.5s-1 12.5 -1 16.5c0 8.66699 1.83301 21 5.5 37
s8.83398 32.667 15.501 50c6 14.667 12.833 29.334 20.5 44.001s16 27.667 25 39s18.5 20.5 28.5 27.5s20.667 10.5 32 10.5c15.333 0 27.333 -4.66699 36 -14s13 -22.666 13 -39.999z" />
    <glyph glyph-name="g" unicode="g" 
d="M188 194c0 7.33301 -2.66797 14 -8.00098 20s-11.666 9 -18.999 9c-8 0 -14.667 -3 -20 -9s-8 -12.667 -8 -20s2.5 -13.666 7.5 -18.999s11.5 -8 19.5 -8c7.33301 0 13.833 2.66699 19.5 8s8.5 11.666 8.5 18.999z" />
    <glyph glyph-name="h" unicode="h" 
d="M188 194c0 7.33301 -2.66797 14 -8.00098 20s-11.666 9 -18.999 9c-8 0 -14.667 -3 -20 -9s-8 -12.667 -8 -20s2.5 -13.666 7.5 -18.999s11.5 -8 19.5 -8c7.33301 0 13.833 2.66699 19.5 8s8.5 11.666 8.5 18.999z" />
    <glyph glyph-name="i" unicode="i" horiz-adv-x="439" 
d="M353 136c0 6 -1.33301 12.834 -4 20.501s-6.33398 15 -11.001 22s-10.5 13 -17.5 18s-15.5 7.5 -25.5 7.5c-6 0 -13 -0.333008 -21 -1s-16 -2.66699 -24 -6l34 74c9.33301 19.333 14 31 14 35c0 5.33301 -0.166992 9.16602 -0.5 11.499s-2.5 3.5 -6.5 3.5
c-2.66699 0 -9.16699 -3.16699 -19.5 -9.5l-34.5 -21c-12.667 -7.66699 -25.167 -14.667 -37.5 -21s-21.5 -9.5 -27.5 -9.5c-6.66699 0 -12 1.5 -16 4.5s-7 6.5 -9 10.5s-3.16699 8.16699 -3.5 12.5s-0.5 8.16602 -0.5 11.499c0 4 -0.333008 9.5 -1 16.5s-3 10.5 -7 10.5
c-6.66699 -0.666992 -16.834 -10.5 -30.501 -29.5s-35.834 -44.833 -66.501 -77.5l-40.5 -43.5c-7 -7.66699 -10.5 -14.167 -10.5 -19.5c0 -3.33301 0.5 -6 1.5 -8s5.16699 -3 12.5 -3c2 0 5.16699 1.83301 9.5 5.5s9.33301 8.16699 15 13.5s11.334 11 17.001 17l16.5 17
c12.667 13.333 23.834 26.166 33.501 38.499l25.5 32.5c2 -4.66699 5.83301 -9.16699 11.5 -13.5s11.834 -8.33301 18.501 -12s12.5 -6.5 17.5 -8.5s7.83301 -3 8.5 -3c4 0 9.5 1 16.5 3s14.167 4.5 21.5 7.5s14.333 6.33301 21 10s11.667 7.16699 15 10.5
c-2.66699 -7.33301 -4.83398 -12.833 -6.50098 -16.5s-4.16699 -8.5 -7.5 -14.5c-18.667 -37.333 -33.667 -68.666 -45 -93.999s-17 -49.333 -17 -72c0 -17.333 5.33301 -33 16 -47s24.334 -21 41.001 -21c14.667 0 27.334 2 38.001 6s20 9.5 28 16.5s15.167 15.333 21.5 25
s12.5 20.167 18.5 31.5c5.33301 10.667 9.66602 20.334 12.999 29.001s5 18.667 5 30zM323 134.001c0 -10.667 -2.66699 -23.1689 -8 -37.502s-11.666 -25.5 -18.999 -33.5c-11.333 -13.333 -20.666 -22.666 -27.999 -27.999s-18.666 -8 -33.999 -8
c-9.33301 0 -16.666 5 -21.999 15s-8 19.333 -8 28c0 6.66699 2.16699 16 6.5 28s10.166 24 17.499 36s15.666 22.5 24.999 31.5s18.666 13.5 27.999 13.5c13.333 0 23.666 -3.66699 30.999 -11s11 -18.666 11 -33.999z" />
    <glyph glyph-name="j" unicode="j" horiz-adv-x="287" 
d="M199 134c0 6 -1.16895 13 -3.50195 21s-5.83301 15.667 -10.5 23s-10.834 13.5 -18.501 18.5s-17.5 7.5 -29.5 7.5c-6 0 -12.333 -0.666992 -19 -2s-14 -3.66602 -22 -6.99902c2.66699 4 6.66699 11.5 12 22.5l16.5 34.5c5.66699 12 10.667 23.167 15 33.5
s6.5 17.5 6.5 21.5c0 5.33301 -0.666992 10 -2 14s-3.66602 6 -6.99902 6s-8.66602 -3.33301 -15.999 -10s-15.833 -15.334 -25.5 -26.001l-30.5 -34.5c-10.667 -12.333 -20.667 -24.5 -30 -36.5l-35 -42c-9.33301 -11.333 -14 -17.666 -14 -18.999
c0 -4 0.666992 -7.83301 2 -11.5s4.66602 -5.5 9.99902 -5.5c3.33301 0 8.33301 3.5 15 10.5s15 16.5 25 28.5c6.66699 7.33301 13.167 15.166 19.5 23.499s13.5 16.833 21.5 25.5c-19.333 -38 -34.333 -69.333 -45 -94s-16 -48.667 -16 -72
c0 -16.667 5.83301 -31.834 17.5 -45.501s25.834 -20.5 42.501 -20.5c24.667 0 44.834 7.5 60.501 22.5s29.5 33.167 41.5 54.5c6 10.667 10.833 20.334 14.5 29.001s5.16699 18.667 4.5 30zM169.998 134c0 -10.667 -2.83301 -23.3359 -8.5 -38.0029
s-12.167 -26.334 -19.5 -35.001c-11.333 -13.333 -20.666 -22.666 -27.999 -27.999s-19 -8 -35 -8c-9.33301 0 -16.5 5 -21.5 15s-7.5 19.667 -7.5 29c0 6.66699 2.16699 15.834 6.5 27.501s10 23.334 17 35.001s15 21.834 24 30.501s18.167 13 27.5 13
c13.333 0 24.166 -3.33301 32.499 -10s12.5 -17 12.5 -31z" />
    <glyph glyph-name="k" unicode="k" 
d="M188 194c0 7.33301 -2.66797 14 -8.00098 20s-11.666 9 -18.999 9c-8 0 -14.667 -3 -20 -9s-8 -12.667 -8 -20s2.5 -13.666 7.5 -18.999s11.5 -8 19.5 -8c7.33301 0 13.833 2.66699 19.5 8s8.5 11.666 8.5 18.999z" />
    <glyph glyph-name="l" unicode="l" 
d="M188 194c0 7.33301 -2.66797 14 -8.00098 20s-11.666 9 -18.999 9c-8 0 -14.667 -3 -20 -9s-8 -12.667 -8 -20s2.5 -13.666 7.5 -18.999s11.5 -8 19.5 -8c7.33301 0 13.833 2.66699 19.5 8s8.5 11.666 8.5 18.999z" />
    <glyph glyph-name="m" unicode="m" 
d="M188 194c0 7.33301 -2.66797 14 -8.00098 20s-11.666 9 -18.999 9c-8 0 -14.667 -3 -20 -9s-8 -12.667 -8 -20s2.5 -13.666 7.5 -18.999s11.5 -8 19.5 -8c7.33301 0 13.833 2.66699 19.5 8s8.5 11.666 8.5 18.999z" />
    <glyph glyph-name="n" unicode="n" 
d="M188 194c0 7.33301 -2.66797 14 -8.00098 20s-11.666 9 -18.999 9c-8 0 -14.667 -3 -20 -9s-8 -12.667 -8 -20s2.5 -13.666 7.5 -18.999s11.5 -8 19.5 -8c7.33301 0 13.833 2.66699 19.5 8s8.5 11.666 8.5 18.999z" />
    <glyph glyph-name="o" unicode="o" horiz-adv-x="326" 
d="M271 240c0 12 -0.828125 23.3291 -2.49512 33.9961s-5.16699 19.834 -10.5 27.501s-12.666 13.834 -21.999 18.501s-22 7 -38 7c-19.333 0 -36 -3.16699 -50 -9.5s-27 -14.666 -39 -24.999s-23.5 -22 -34.5 -35s-23.5 -26.5 -37.5 -40.5
c-5.33301 -5.33301 -10.833 -11.166 -16.5 -17.499l-16 -17.5c-5 -5.33301 -9 -10.166 -12 -14.499s-4.5 -6.83301 -4.5 -7.5c0 -13.333 4 -20 12 -20c5.33301 0 12.666 5.66699 21.999 17s25.666 28.666 48.999 51.999c-2.66699 -5.33301 -5.83398 -13 -9.50098 -23
l-11 -31.5c-3.66699 -11 -6.83398 -21.5 -9.50098 -31.5s-4 -17.667 -4 -23c0 -6.66699 1.16699 -15.667 3.5 -27s6.16602 -22.333 11.499 -33s12 -20 20 -28s17.667 -12 29 -12c25.333 0 47.166 6.5 65.499 19.5s34.5 30.833 48.5 53.5c17.333 28 31 55.833 41 83.5
s15 55.5 15 83.5zM243.005 246.996c0 -26.667 -4.66602 -53.168 -13.999 -79.501s-23.666 -54.5 -42.999 -84.5c-14 -22 -27.833 -36.333 -41.5 -43s-27.5 -10 -41.5 -10c-14.667 0 -25 5.83301 -31 17.5s-9 27.167 -9 46.5c0 4 1 10.333 3 19s4.66699 18.834 8 30.501
s7.66602 24 12.999 37s11.666 25.833 18.999 38.5c12 22 26.167 41 42.5 57s34.5 24 54.5 24c16.667 0 27.5 -3.83301 32.5 -11.5s7.5 -21.5 7.5 -41.5z" />
    <glyph glyph-name="p" unicode="p" 
d="M188 194c0 7.33301 -2.66797 14 -8.00098 20s-11.666 9 -18.999 9c-8 0 -14.667 -3 -20 -9s-8 -12.667 -8 -20s2.5 -13.666 7.5 -18.999s11.5 -8 19.5 -8c7.33301 0 13.833 2.66699 19.5 8s8.5 11.666 8.5 18.999z" />
    <glyph glyph-name="q" unicode="q" 
d="M188 194c0 7.33301 -2.66797 14 -8.00098 20s-11.666 9 -18.999 9c-8 0 -14.667 -3 -20 -9s-8 -12.667 -8 -20s2.5 -13.666 7.5 -18.999s11.5 -8 19.5 -8c7.33301 0 13.833 2.66699 19.5 8s8.5 11.666 8.5 18.999z" />
    <glyph glyph-name="r" unicode="r" 
d="M188 194c0 7.33301 -2.66797 14 -8.00098 20s-11.666 9 -18.999 9c-8 0 -14.667 -3 -20 -9s-8 -12.667 -8 -20s2.5 -13.666 7.5 -18.999s11.5 -8 19.5 -8c7.33301 0 13.833 2.66699 19.5 8s8.5 11.666 8.5 18.999z" />
    <glyph glyph-name="s" unicode="s" 
d="M188 194c0 7.33301 -2.66797 14 -8.00098 20s-11.666 9 -18.999 9c-8 0 -14.667 -3 -20 -9s-8 -12.667 -8 -20s2.5 -13.666 7.5 -18.999s11.5 -8 19.5 -8c7.33301 0 13.833 2.66699 19.5 8s8.5 11.666 8.5 18.999z" />
    <glyph glyph-name="t" unicode="t" 
d="M188 194c0 7.33301 -2.66797 14 -8.00098 20s-11.666 9 -18.999 9c-8 0 -14.667 -3 -20 -9s-8 -12.667 -8 -20s2.5 -13.666 7.5 -18.999s11.5 -8 19.5 -8c7.33301 0 13.833 2.66699 19.5 8s8.5 11.666 8.5 18.999z" />
    <glyph glyph-name="u" unicode="u" horiz-adv-x="439" 
d="M385 242c0 12 -0.996094 23.166 -2.99609 33.499s-5.83301 19.333 -11.5 27s-13.334 13.834 -23.001 18.501s-22.167 7 -37.5 7c-12 0 -24 -3.16699 -36 -9.5s-23.5 -15 -34.5 -26s-21.333 -23.5 -31 -37.5s-18.167 -28.333 -25.5 -43
c-3.33301 -6.66699 -5.83301 -12.334 -7.5 -17.001l-5.5 -16c-10 -9.33301 -19.5 -16 -28.5 -20s-20.833 -6 -35.5 -6h-10c-2 0 -5.66699 0.333008 -11 1c0 2 3 10 9 24l19.5 47.5c7 17.667 13.5 35.334 19.5 53.001s9 30.834 9 39.501c0 3.33301 -1.5 5.33301 -4.5 6
s-5.5 2.66699 -7.5 6l-10.5 -12.5l-26.5 -31.5l-34.5 -40.5l-34.5 -40.5c-10.667 -13.333 -19.334 -23.833 -26.001 -31.5s-10 -12.167 -10 -13.5v-13c0 -5.33301 2.66699 -8 8 -8c4.66699 0 9.5 3.16699 14.5 9.5s12.5 15.166 22.5 26.499
c-2.66699 -8.66699 -2.33398 -17.334 0.999023 -26.001s8 -14 14 -16c-2 -2.66699 -5.83301 -9.66699 -11.5 -21l-17.5 -36.5c-6 -13 -11.333 -25.167 -16 -36.5s-7 -18 -7 -20c0 -9.33301 4.33301 -15 13 -17c6 -1.33301 11.167 3 15.5 13l16.5 37c6 14 11.667 28 17 42
s10 24 14 30h22c13.333 0 25.5 0.833008 36.5 2.5s19.167 5.83398 24.5 12.501c-1.33301 -7.33301 -2.33301 -12.666 -3 -15.999s-1 -10.333 -1 -21c0 -6.66699 0.333008 -15.667 1 -27s3 -22.333 7 -33s10.333 -20 19 -28s21 -12 37 -12
c25.333 -0.666992 47.166 5.66602 65.499 18.999s34.166 31.333 47.499 54c16.667 26.667 30.334 54.167 41.001 82.5s16 56.5 16 84.5zM357.004 248.999c0 -49.333 -19.332 -104 -57.999 -164c-14 -22 -27.833 -36.333 -41.5 -43s-27.5 -10 -41.5 -10s-24 5.83301 -30 17.5
s-9 27.167 -9 46.5c0 4 1 10.333 3 19s4.66699 18.667 8 30s7.66602 23.5 12.999 36.5s11.333 25.833 18 38.5c12 22 26.333 41.167 43 57.5s35 24.5 55 24.5c16.667 0 27.5 -3.83301 32.5 -11.5s7.5 -21.5 7.5 -41.5zM76.0049 215.999
c-2 -5.33301 -4.83301 -11.333 -8.5 -18s-6.5 -13 -8.5 -19c-2 2 -3.83301 4 -5.5 6s-3.5 3 -5.5 3l14 14.5c4 4.33301 8.66699 8.83301 14 13.5z" />
    <glyph glyph-name="v" unicode="v" horiz-adv-x="327" 
d="M365 555c0 5.33301 -0.832031 11.6631 -2.49902 18.9961s-4.66699 14.333 -9 21s-10.333 12.334 -18 17.001s-17.167 7 -28.5 7c-18 0 -34.167 -6.16699 -48.5 -18.5s-27 -27 -38 -44s-20 -34.167 -27 -51.5l-16.5 -40c-9.33301 -22 -16.833 -40.5 -22.5 -55.5
l-15.5 -40.5c-4.66699 -12 -9.5 -23.667 -14.5 -35l-17.5 -39l-38.5 -43.5l-38 -42l-29.5 -33.5c-8 -9.33301 -12 -15.333 -12 -18c0 -4.66699 0.666992 -8.33398 2 -11.001s5.33301 -4 12 -4c2 0 5.33301 2.33301 10 7s10 10.334 16 17.001l19 21.5
c6.66699 7.66699 13.667 14.5 21 20.5l-9 -18c-5.33301 -8 -9.83301 -18.333 -13.5 -31s-6.5 -25.167 -8.5 -37.5s-3.5 -23 -4.5 -32l-1.5 -13.5c0 -22 7.16699 -40.667 21.5 -56s32.166 -23 53.499 -23c22 0 40.667 5.83301 56 17.5s29.666 26.5 42.999 44.5
c20.667 28 37 57.333 49 88s18 62 18 94c0 15.333 -2.16699 28.333 -6.5 39s-9.66602 19.5 -15.999 26.5s-13.5 12 -21.5 15s-15.667 4.5 -23 4.5c-9.33301 0 -15.333 -0.333008 -18 -1s-6.33398 -1.66699 -11.001 -3c16 12.667 34.667 28.834 56 48.501
s41.833 40.334 61.5 62.001s36.334 43.334 50.001 65.001s20.5 40.5 20.5 56.5zM330.001 550.997c0 -15.333 -6.33105 -32.667 -18.998 -52s-28 -38.833 -46 -58.5s-36.833 -38 -56.5 -55s-36.5 -30.833 -50.5 -41.5c3.33301 6 7.83301 16.167 13.5 30.5l19.5 48.5
c7.33301 18 15.5 36.667 24.5 56s18.167 36.833 27.5 52.5s19.166 28.667 29.499 39s20.5 15.5 30.5 15.5c11.333 0 18.666 -3 21.999 -9s5 -14.667 5 -26zM243.003 234.996c0 -17.333 -3.50098 -37.835 -10.501 -61.502s-16.333 -46.167 -28 -67.5
s-25.5 -39.666 -41.5 -54.999s-33 -23 -51 -23c-20 0 -33 6 -39 18s-9 24 -9 36c0 10.667 1.33301 22.5 4 35.5s6.33398 26.333 11.001 40s10 27.167 16 40.5s12.667 25.666 20 36.999c14 22.667 28.333 38.334 43 47.001s27.667 13 39 13c14 0 25.167 -4.16699 33.5 -12.5
s12.5 -24.166 12.5 -47.499z" />
    <glyph glyph-name="w" unicode="w" 
d="M188 194c0 7.33301 -2.66797 14 -8.00098 20s-11.666 9 -18.999 9c-8 0 -14.667 -3 -20 -9s-8 -12.667 -8 -20s2.5 -13.666 7.5 -18.999s11.5 -8 19.5 -8c7.33301 0 13.833 2.66699 19.5 8s8.5 11.666 8.5 18.999z" />
    <glyph glyph-name="x" unicode="x" 
d="M188 194c0 7.33301 -2.66797 14 -8.00098 20s-11.666 9 -18.999 9c-8 0 -14.667 -3 -20 -9s-8 -12.667 -8 -20s2.5 -13.666 7.5 -18.999s11.5 -8 19.5 -8c7.33301 0 13.833 2.66699 19.5 8s8.5 11.666 8.5 18.999z" />
    <glyph glyph-name="y" unicode="y" 
d="M188 194c0 7.33301 -2.66797 14 -8.00098 20s-11.666 9 -18.999 9c-8 0 -14.667 -3 -20 -9s-8 -12.667 -8 -20s2.5 -13.666 7.5 -18.999s11.5 -8 19.5 -8c7.33301 0 13.833 2.66699 19.5 8s8.5 11.666 8.5 18.999z" />
    <glyph glyph-name="z" unicode="z" 
d="M188 194c0 7.33301 -2.66797 14 -8.00098 20s-11.666 9 -18.999 9c-8 0 -14.667 -3 -20 -9s-8 -12.667 -8 -20s2.5 -13.666 7.5 -18.999s11.5 -8 19.5 -8c7.33301 0 13.833 2.66699 19.5 8s8.5 11.666 8.5 18.999z" />
    <glyph glyph-name="braceleft" unicode="{" horiz-adv-x="337" 
d="M502 703c-1.33301 6.66699 -4.49512 10.8359 -9.49512 12.5029s-12.167 2.83398 -21.5 3.50098c-12.667 0.666992 -26.334 1 -41.001 1c-14 0 -28 -1.33301 -42 -4s-27.167 -7 -39.5 -13s-22.833 -14.667 -31.5 -26c-9.33301 -12 -19.333 -28.667 -30 -50
s-21.334 -44.333 -32.001 -69l-31.5 -74.5c-10.333 -25 -20.166 -47.167 -29.499 -66.5c-2 -4.66699 -5.83301 -8.83398 -11.5 -12.501s-12.334 -7.16699 -20.001 -10.5s-15.667 -6.16602 -24 -8.49902l-23.5 -6.5c-12.667 -3.33301 -22.834 -7.5 -30.501 -12.5
s-11.834 -11.833 -12.501 -20.5c-0.666992 -5.33301 0.5 -9.5 3.5 -12.5s6.66699 -5.33301 11 -7s8.66602 -3 12.999 -4s8.16602 -1.83301 11.499 -2.5c10 -3.33301 19 -8 27 -14s11.333 -14.667 10 -26c-1.33301 -8 -5.16602 -19.833 -11.499 -35.5
s-13.5 -32.5 -21.5 -50.5l-24 -52.5c-8 -17 -13.667 -30.5 -17 -40.5l-16.5 -45c-5.66699 -15.333 -10.667 -30 -15 -44s-8 -26.833 -11 -38.5s-4.5 -21.5 -4.5 -29.5c0 -14.667 2 -26 6 -34s9.83301 -13.833 17.5 -17.5s17 -5.83398 28 -6.50098s23.167 -1 36.5 -1
c12 0 24 0.166992 36 0.5s23 1.16602 33 2.49902s18 3.66602 24 6.99902s8.66699 8 8 14c0 3.33301 -2.66699 6 -8 8s-13.333 2.66699 -24 2c-14 -1.33301 -28.667 -2 -44 -2h-35c-21.333 -0.666992 -35.333 1.83301 -42 7.5s-10 14.167 -10 25.5
c0 17.333 5.83301 38.166 17.5 62.499s23.5 51.5 35.5 81.5c4.66699 12.667 11.5 28.5 20.5 47.5l26.5 58c8.66699 19.667 16 38.334 22 56.001s9 31.834 9 42.501c0 5.33301 -5.16699 13.166 -15.5 23.499s-26.166 19.5 -47.499 27.5
c10.667 1.33301 21.5 3.66602 32.5 6.99902s21.167 7.5 30.5 12.5s17.333 10.667 24 17s11.667 12.833 15 19.5l28.5 68.5l29 69l28 62c9 19 17.5 34.167 25.5 45.5c6 9.33301 14 16.666 24 21.999s21 9.33301 33 12s24.667 4.33398 38 5.00098s26.666 1 39.999 1
c11.333 0 20 1.16699 26 3.5s8.33301 5.5 7 9.5z" />
    <glyph glyph-name="bar" unicode="|" horiz-adv-x="322" 
d="M209 -186c0 12.667 -0.165039 30.002 -0.498047 52.002s-0.5 46.667 -0.5 74s-0.333008 56.666 -1 87.999s-1 62.666 -1 93.999s-0.166992 61.833 -0.5 91.5s-0.5 56.5 -0.5 80.5c0 44 -0.166992 86.333 -0.5 127s-0.5 77.334 -0.5 110.001
c0 33.333 -0.166992 61.666 -0.5 84.999s-0.5 39.666 -0.5 48.999c0 10 -1 19.5 -3 28.5s-6.66699 13.833 -14 14.5c-8.66699 0.666992 -13.334 -3.33301 -14.001 -12s-0.666992 -22 0 -40c0 -8 0.166992 -25.5 0.5 -52.5s0.666016 -58 0.999023 -93s0.5 -71.833 0.5 -110.5
v-106v-144c0 -50 0.166992 -97.833 0.5 -143.5s0.833008 -86 1.5 -121s1.33398 -59.5 2.00098 -73.5c0.666992 -9.33301 1.66699 -16.666 3 -21.999s2.66602 -8 3.99902 -8c6 1.33301 11.5 4 16.5 8s7.5 12 7.5 24z" />
    <glyph glyph-name="braceright" unicode="}" horiz-adv-x="326" 
d="M388 660c0 14.667 -2.16895 25.9951 -6.50195 33.9951s-10.333 13.833 -18 17.5s-17 5.83398 -28 6.50098s-23.167 1 -36.5 1c-12 0 -24 -0.166992 -36 -0.5s-22.833 -1.16602 -32.5 -2.49902s-17.5 -3.66602 -23.5 -6.99902s-9 -8 -9 -14
c1.33301 -7.33301 12.333 -10.666 33 -9.99902c14 1.33301 28.333 2 43 2h36c21.333 0.666992 35.333 -1.83301 42 -7.5s10 -14.167 10 -25.5c0 -17.333 -5.83301 -38.166 -17.5 -62.499s-23.5 -51.5 -35.5 -81.5c-5.33301 -13.333 -12.333 -29.333 -21 -48l-26 -57.5
c-8.66699 -19.667 -16 -38.334 -22 -56.001s-9 -31.5 -9 -41.5c0 -5.33301 5.16699 -13.333 15.5 -24s26.166 -20 47.499 -28c-10.667 -1.33301 -21.5 -3.66602 -32.5 -6.99902s-21.167 -7.5 -30.5 -12.5s-17.5 -10.667 -24.5 -17s-11.833 -12.833 -14.5 -19.5l-29 -68.5
l-29 -69c-9.33301 -22.333 -18.5 -43 -27.5 -62s-17.5 -34.167 -25.5 -45.5c-6 -9.33301 -14.167 -16.666 -24.5 -21.999s-21.5 -9.33301 -33.5 -12s-24.667 -4.33398 -38 -5.00098s-26.333 -1 -39 -1c-11.333 0 -20 -1.16699 -26 -3.5s-8.33301 -5.5 -7 -9.5
c1.33301 -6.66699 4.5 -10.834 9.5 -12.501s12.167 -2.83398 21.5 -3.50098c12.667 -0.666992 26.334 -1 41.001 -1c14 0 28 1.33301 42 4s27.167 7 39.5 13s22.833 14.667 31.5 26c9.33301 12 19.333 28.667 30 50s21.334 44.333 32.001 69l31.5 74.5
c10.333 25 20.166 47.5 29.499 67.5c2 4.66699 5.83301 8.83398 11.5 12.501s12.334 7 20.001 10s15.5 5.66699 23.5 8l23 6.5c13.333 3.33301 23.833 7.5 31.5 12.5s11.834 11.833 12.501 20.5c0.666992 5.33301 -0.5 9.66602 -3.5 12.999s-6.66699 5.83301 -11 7.5
s-8.83301 2.83398 -13.5 3.50098s-8.33398 1.33398 -11.001 2.00098c-10 3.33301 -19 8 -27 14s-11.333 14.667 -10 26c0.666992 8 4.33398 19.833 11.001 35.5l22 50.5l23.5 52.5c7.66699 17 13.5 30.5 17.5 40.5l16.5 45c5.66699 15.333 10.667 30 15 44s8 26.833 11 38.5
s4.5 21.5 4.5 29.5z" />
    <glyph glyph-name="asciitilde" unicode="~" 
d="M188 194c0 7.33301 -2.66797 14 -8.00098 20s-11.666 9 -18.999 9c-8 0 -14.667 -3 -20 -9s-8 -12.667 -8 -20s2.5 -13.666 7.5 -18.999s11.5 -8 19.5 -8c7.33301 0 13.833 2.66699 19.5 8s8.5 11.666 8.5 18.999z" />
    <glyph glyph-name="currency" unicode="&#xa4;" 
d="M233 372c0 7.33301 -2.5 13.333 -7.5 18s-11.167 7 -18.5 7s-13.333 -2.66699 -18 -8s-7 -11.333 -7 -18c0 -7.33301 2.5 -13.333 7.5 -18s10.833 -7 17.5 -7c7.33301 0 13.5 2.5 18.5 7.5s7.5 11.167 7.5 18.5zM233 137c0 7.33301 -2.66797 14 -8.00098 20
s-11.666 9 -18.999 9c-8 0 -14.667 -3 -20 -9s-8 -12.667 -8 -20s2.5 -13.666 7.5 -18.999s11.5 -8 19.5 -8c7.33301 0 13.833 2.66699 19.5 8s8.5 11.666 8.5 18.999z" />
    <glyph glyph-name="brokenbar" unicode="&#xa6;" 
d="M188 194c0 7.33301 -2.66797 14 -8.00098 20s-11.666 9 -18.999 9c-8 0 -14.667 -3 -20 -9s-8 -12.667 -8 -20s2.5 -13.666 7.5 -18.999s11.5 -8 19.5 -8c7.33301 0 13.833 2.66699 19.5 8s8.5 11.666 8.5 18.999z" />
    <glyph glyph-name="section" unicode="&#xa7;" horiz-adv-x="485" 
d="M571 543c-3.33301 11.333 -8.99414 22.165 -16.9941 32.498s-17.167 19.333 -27.5 27s-21.333 13.834 -33 18.501s-22.834 7 -33.501 7c-24.667 0 -48.167 -6.66699 -70.5 -20s-42.333 -29.5 -60 -48.5s-31.834 -39.167 -42.501 -60.5s-16.667 -40 -18 -56
c-1.33301 -17.333 -0.5 -30.666 2.5 -39.999s8.16699 -21.666 15.5 -36.999c-12.667 -11.333 -25.667 -23.833 -39 -37.5s-25.666 -27.834 -36.999 -42.501s-20.833 -29.834 -28.5 -45.501s-11.834 -30.834 -12.501 -45.501c-1.33301 -18 1 -33.667 7 -47
s14.167 -26 24.5 -38s22.166 -24.167 35.499 -36.5s27 -26.5 41 -42.5c7.33301 -9.33301 11.5 -21.833 12.5 -37.5s0.833008 -33.5 -0.5 -53.5c-2 -21.333 -7.83301 -40.666 -17.5 -57.999s-21.5 -32.333 -35.5 -45s-29.5 -22.5 -46.5 -29.5s-33.5 -10.5 -49.5 -10.5
c-11.333 0 -20.833 2 -28.5 6s-14 9.5 -19 16.5s-9 14.833 -12 23.5s-5.83301 17.667 -8.5 27l-7 28.5c-2.66699 11 -6.33398 16.5 -11.001 16.5s-7.33398 -2.5 -8.00098 -7.5s-1.33398 -10.5 -2.00098 -16.5c-1.33301 -11.333 -0.5 -24.333 2.5 -39
s8.16699 -28.5 15.5 -41.5s16.833 -24 28.5 -33s26.167 -13.5 43.5 -13.5c24 0 47 5.16699 69 15.5s41.5 23.666 58.5 39.999s30.833 34.833 41.5 55.5s16.667 41 18 61c0.666992 12.667 1.33398 23.667 2.00098 33s1 18 1 26c0 7.33301 -0.666992 14.5 -2 21.5
s-3.33301 14.833 -6 23.5l32 37c11.333 13.333 21.666 26.833 30.999 40.5s17.166 27.334 23.499 41.001s9.83301 26.167 10.5 37.5c0.666992 15.333 -1.66602 30.333 -6.99902 45s-12.333 28.834 -21 42.501s-18 27.167 -28 40.5s-19.167 26.666 -27.5 39.999
s-15.166 26.5 -20.499 39.5s-7.33301 26.167 -6 39.5c2 20.667 8.83301 40.334 20.5 59.001s25.334 35 41.001 49s31.5 24.833 47.5 32.5s29.667 11.5 41 11.5c13.333 0 24.666 -2.83301 33.999 -8.5s17.833 -12.334 25.5 -20.001s14.667 -15.167 21 -22.5
s13.166 -12.666 20.499 -15.999zM377.006 197.999c-1.33301 -21.333 -9.66504 -42.167 -24.998 -62.5s-34.666 -42.833 -57.999 -67.5l-28.5 24c-11 9.33301 -21.5 19.5 -31.5 30.5s-18.333 22.667 -25 35s-9.33398 25.166 -8.00098 38.499
c0.666992 11.333 4.5 23.5 11.5 36.5s15.5 26 25.5 39s21 25.333 33 37s23.333 21.834 34 30.501c8 -9.33301 16.333 -19.833 25 -31.5s16.667 -23.667 24 -36s13.166 -24.833 17.499 -37.5s6.16602 -24.667 5.49902 -36z" />
    <glyph glyph-name="copyright" unicode="&#xa9;" horiz-adv-x="723" 
d="M641 345c0.666992 38.667 -6.16602 75.168 -20.499 109.501s-34.166 64.166 -59.499 89.499s-54.833 45.5 -88.5 60.5s-69.834 22.833 -108.501 23.5s-75 -6.16602 -109 -20.499s-63.667 -34 -89 -59s-45.5 -54.333 -60.5 -88s-22.833 -69.834 -23.5 -108.501
s6.16602 -75.167 20.499 -109.5s34 -64.333 59 -90s54.333 -46 88 -61s69.834 -22.5 108.501 -22.5c38.667 -0.666992 75.167 6.16602 109.5 20.499s64.166 34 89.499 59s45.5 54.333 60.5 88s22.833 69.834 23.5 108.501zM610 343.001
c-0.666992 -34.667 -7.49902 -67 -20.499 -97s-30.833 -56 -53.5 -78s-49 -39.333 -79 -52s-62 -18.667 -96 -18c-34.667 0.666992 -67.334 7.66699 -98.001 21s-57.334 31.5 -80.001 54.5s-40.5 49.667 -53.5 80s-19.167 62.833 -18.5 97.5
c0.666992 34 7.83398 66.167 21.501 96.5s32 56.833 55 79.5s49.667 40.667 80 54s62.5 20 96.5 20c34.667 0 67.167 -7 97.5 -21s56.5 -33 78.5 -57s39.333 -51.5 52 -82.5s18.667 -63.5 18 -97.5zM503.001 337.001c0 10 -3.99512 15 -11.9951 15c-4 0 -9 -3.33301 -15 -10
l-31 -33c-23.333 -23.333 -45.5 -43.666 -66.5 -60.999s-40.167 -26 -57.5 -26c-12.667 0 -22.667 1.66699 -30 5s-13 8 -17 14s-6.5 13 -7.5 21s-1.5 16.333 -1.5 25c0 34 6.5 66.333 19.5 97s28.5 55 46.5 73c15.333 14.667 30.166 24 44.499 28s25.5 6 33.5 6
c7.33301 0 14.166 -3 20.499 -9s10.833 -12.667 13.5 -20c3.33301 -7.33301 6 -13.5 8 -18.5s5.66699 -7.5 11 -7.5c7.33301 0 10.833 3 10.5 9s-0.5 11.667 -0.5 17s-1.5 11.166 -4.5 17.499s-7.33301 12.333 -13 18s-12.167 10.334 -19.5 14.001s-15.333 5.5 -24 5.5
c-26 0 -48.333 -5.66699 -67 -17s-34.334 -25 -47.001 -41s-22.834 -32.333 -30.501 -49s-13.5 -30 -17.5 -40c-4 -9.33301 -6.83301 -19 -8.5 -29s-2.83398 -19.667 -3.50098 -29s-1 -18 -1 -26v-16c0 -22.667 6 -41.5 18 -56.5s29.667 -22.5 53 -22.5
c16 0 30.667 2.83301 44 8.5s26 13 38 22s23.833 19.333 35.5 31l35.5 35.5c13.333 12.667 23.833 23.167 31.5 31.5s11.5 14.166 11.5 17.499z" />
    <glyph glyph-name="guillemotleft" unicode="&#xab;" horiz-adv-x="2" 
d="M79 602c0 5.33301 -0.998047 10.002 -2.99805 14.002s-6 5.66699 -12 5c-1.33301 0 -4.83301 -2.33301 -10.5 -7l-21.5 -18l-29 -25.5l-32 -29.5l-25.5 -26l-22 -23.5c-6.33301 -7 -11.333 -13.333 -15 -19s-5.5 -9.83398 -5.5 -12.501
c-0.666992 -6.66699 -0.333984 -10.834 0.999023 -12.501s4.66602 -2.83398 9.99902 -3.50098c2 0 5.33301 2.16699 10 6.5l17 16.5l22 23c8 8.66699 16.667 17.334 26 26.001l32 31l29 27l21 20z" />
    <glyph glyph-name="logicalnot" unicode="&#xac;" horiz-adv-x="586" 
d="M530 268c-1.33301 6 -3.83789 11.001 -7.50488 15.001s-8.5 6 -14.5 6c-37.333 0 -69.666 -0.166992 -96.999 -0.5l-80.5 -1c-26.333 -0.333008 -54.666 -0.833008 -84.999 -1.5s-66.833 -1 -109.5 -1c-11.333 0 -20.666 -0.666992 -27.999 -2s-11 -6 -11 -14
c0 -6 1.5 -10.5 4.5 -13.5s7 -5 12 -6s10.167 -1.5 15.5 -1.5h17c26 0 51.5 0.166992 76.5 0.5s48.667 0.666016 71 0.999023s42.5 0.5 60.5 0.5h48c10 0 22.333 -0.166992 37 -0.5s28.834 0 42.501 1s25.334 2.66699 35.001 5s14.167 6.5 13.5 12.5z" />
    <glyph glyph-name="registered" unicode="&#xae;" horiz-adv-x="723" 
d="M641 345c0.666992 38.667 -6.16602 75.168 -20.499 109.501s-34.166 64.166 -59.499 89.499s-54.833 45.5 -88.5 60.5s-69.834 22.833 -108.501 23.5s-75 -6.16602 -109 -20.499s-63.667 -34 -89 -59s-45.5 -54.333 -60.5 -88s-22.833 -69.834 -23.5 -108.501
s6.16602 -75.167 20.499 -109.5s34 -64.333 59 -90s54.333 -46 88 -61s69.834 -22.5 108.501 -22.5c38.667 -0.666992 75.167 6.16602 109.5 20.499s64.166 34 89.499 59s45.5 54.333 60.5 88s22.833 69.834 23.5 108.501zM610 343.001
c-0.666992 -34.667 -7.49902 -67 -20.499 -97s-30.833 -56 -53.5 -78s-49 -39.333 -79 -52s-62 -18.667 -96 -18c-34.667 0.666992 -67.334 7.66699 -98.001 21s-57.334 31.5 -80.001 54.5s-40.5 49.667 -53.5 80s-19.167 62.833 -18.5 97.5
c0.666992 34 7.83398 66.167 21.501 96.5s32 56.833 55 79.5s49.667 40.667 80 54s62.5 20 96.5 20c34.667 0 67.167 -7 97.5 -21s56.5 -33 78.5 -57s39.333 -51.5 52 -82.5s18.667 -63.5 18 -97.5zM489.001 257.001c0 3.33301 -1.49609 5.49902 -4.49609 6.49902
s-6.5 1.5 -10.5 1.5c-3.33301 0 -7 -0.333008 -11 -1s-7 -1 -9 -1c-10.667 -0.666992 -23.167 1.5 -37.5 6.5s-28.166 13.167 -41.499 24.5c-8.66699 7.33301 -16.834 15.833 -24.501 25.5s-14.5 20.834 -20.5 33.501c31.333 0 56.666 5.33301 75.999 16
c12 6 22.5 14.333 31.5 25s13.5 23.667 13.5 39c0 8.66699 -2.5 16.167 -7.5 22.5s-11.167 11.5 -18.5 15.5s-15.5 6.66699 -24.5 8s-17.5 1.66602 -25.5 0.999023c-12 -1.33301 -22.333 -2.66602 -31 -3.99902s-16.667 -4.33301 -24 -9c-14 -10 -24 -30 -30 -60l-12 -60
c-4 -20.667 -7.66699 -41.667 -11 -63c-1.33301 -9.33301 -2.66602 -17.833 -3.99902 -25.5s-2 -14.834 -2 -21.501c0 -4.66699 0.5 -8.66699 1.5 -12s3.83301 -5 8.5 -5c9.33301 0 14.666 3.83301 15.999 11.5s3.33301 22.167 6 43.5
c1.33301 11.333 3.16602 23.5 5.49902 36.5s4.16602 25.833 5.49902 38.5c15.333 -31.333 31.666 -55 48.999 -71c18.667 -18 36.5 -29.667 53.5 -35s31.5 -8 43.5 -8c10.667 0 20 1.33301 28 4s11.667 8.33398 11 17.001zM424.005 431
c0 -11.333 -3.16699 -20.335 -9.5 -27.002s-14.5 -11.667 -24.5 -15c-10.667 -4 -22.667 -6.83301 -36 -8.5l-44 -5.5l2.5 12l4.5 22c2.66699 18 8.66699 30 18 36c6 4.66699 12.833 7.33398 20.5 8.00098s15.167 1 22.5 1c4.66699 0 9.66699 -0.166992 15 -0.5
s10.333 -1.16602 15 -2.49902s8.5 -3.5 11.5 -6.5s4.5 -7.5 4.5 -13.5z" />
    <glyph glyph-name="degree" unicode="&#xb0;" horiz-adv-x="590" 
d="M475 546c0 28 -7.16797 50.333 -21.501 67s-32.5 25 -54.5 25c-27.333 0 -52.5 -5.83301 -75.5 -17.5s-43 -27.167 -60 -46.5s-30.5 -41.333 -40.5 -66s-15 -50.334 -15 -77.001c0 -14.667 2.5 -28.667 7.5 -42s12.333 -25.166 22 -35.499s21 -18.5 34 -24.5
s27.167 -9 42.5 -9c16 0 31.167 4.33301 45.5 13s27.333 19.667 39 33s22.334 28.5 32.001 45.5s17.667 33.833 24 50.5s11.333 32.5 15 47.5s5.5 27.167 5.5 36.5zM440.999 547c-0.666992 -29.333 -5.83105 -55.665 -15.498 -78.998s-21 -43.333 -34 -60
s-26.5 -29.334 -40.5 -38.001s-25.667 -13 -35 -13c-20 0 -37.167 7.33301 -51.5 22s-21.5 33 -21.5 55c0 18.667 4 38.167 12 58.5s18.833 38.666 32.5 54.999s29.5 29.833 47.5 40.5s36.667 15.667 56 15c13.333 -0.666992 25.166 -5 35.499 -13
s15.166 -22.333 14.499 -43z" />
    <glyph glyph-name="plusminus" unicode="&#xb1;" horiz-adv-x="521" 
d="M539 396c-1.33301 6 -3.83301 11 -7.5 15s-8.5 6 -14.5 6s-15.333 -0.166992 -28 -0.5s-27 -0.666016 -43 -0.999023l-50 -1c-17.333 -0.333008 -34 -0.833008 -50 -1.5c-0.666992 12 -1.16699 25.333 -1.5 40l-1 45l-1 46c-0.333008 15.333 -0.833008 30 -1.5 44
c-0.666992 9.33301 -2.33398 16.833 -5.00098 22.5s-7.66699 10.167 -15 13.5c-6 2.66699 -10 2.5 -12 -0.5s-3.33301 -7.83301 -4 -14.5s-0.666992 -14.5 0 -23.5s1 -18.5 1 -28.5c-0.666992 -24.667 -0.166992 -49.167 1.5 -73.5s2.16699 -47.833 1.5 -70.5
c-24.667 -1.33301 -49.667 -2 -75 -2c-24.667 0 -54.334 0.666992 -89.001 2c-11.333 0.666992 -20.666 0.166992 -27.999 -1.5s-11 -6.5 -11 -14.5c0 -6 2.33301 -10.5 7 -13.5s10 -5 16 -6s11.333 -1.5 16 -1.5h10h22h43c16 0 32 0.166992 48 0.5s29.667 0.5 41 0.5
c0 -12 -0.166992 -25 -0.5 -39s-0.5 -27.667 -0.5 -41c0 -12.667 -0.166992 -24.834 -0.5 -36.501s-0.5 -20.834 -0.5 -27.501v-48c0 -10.667 0.5 -18.334 1.5 -23.001s2.66699 -7.16699 5 -7.5s5.5 -0.5 9.5 -0.5c4.66699 0 8.33398 3.33301 11.001 10s4.66699 14.5 6 23.5
s2.16602 17.833 2.49902 26.5s0.5 15.334 0.5 20.001c0 26.667 0.166992 53.334 0.5 80.001s0.166016 48.334 -0.500977 65.001c10 0 21.5 0.166992 34.5 0.5s24.167 0.5 33.5 0.5c10 0 22.333 -0.166992 37 -0.5s28.834 -0.333008 42.501 0s25.334 1.66602 35.001 3.99902
s14.167 6.5 13.5 12.5zM550 21c-1.33301 5.33301 -3.83789 10 -7.50488 14s-8.5 6 -14.5 6c-37.333 0 -69.666 -0.166992 -96.999 -0.5l-80.5 -1c-26.333 -0.333008 -54.666 -0.666016 -84.999 -0.999023s-66.833 -0.5 -109.5 -0.5c-11.333 0 -20.666 -0.666992 -27.999 -2
s-11 -6 -11 -14c0 -6 1.5 -10.5 4.5 -13.5s7 -5 12 -6s10.167 -1.5 15.5 -1.5h17c26 0 51.5 0.166992 76.5 0.5s48.667 0.666016 71 0.999023s42.5 0.5 60.5 0.5h48c10 0 22.333 -0.166992 37 -0.5s28.834 0 42.501 1s25.334 2.66699 35.001 5s14.167 6.5 13.5 12.5z" />
    <glyph glyph-name="mu" unicode="&#xb5;" 
d="M188 194c0 7.33301 -2.66797 14 -8.00098 20s-11.666 9 -18.999 9c-8 0 -14.667 -3 -20 -9s-8 -12.667 -8 -20s2.5 -13.666 7.5 -18.999s11.5 -8 19.5 -8c7.33301 0 13.833 2.66699 19.5 8s8.5 11.666 8.5 18.999z" />
    <glyph glyph-name="mu" unicode="&#x3bc;" 
d="M188 194c0 7.33301 -2.66797 14 -8.00098 20s-11.666 9 -18.999 9c-8 0 -14.667 -3 -20 -9s-8 -12.667 -8 -20s2.5 -13.666 7.5 -18.999s11.5 -8 19.5 -8c7.33301 0 13.833 2.66699 19.5 8s8.5 11.666 8.5 18.999z" />
    <glyph glyph-name="paragraph" unicode="&#xb6;" horiz-adv-x="384" 
d="M445 616c0 6.66699 -0.166992 10.998 -0.5 12.998s-3.5 3 -9.5 3c-4.66699 0 -10.5 -5.66699 -17.5 -17s-14.833 -26.5 -23.5 -45.5l-28 -64c-10 -23.667 -19.667 -48 -29 -73l-27.5 -73l-23.5 -62.5l-54.5 -147.5l-49 -135l-35.5 -104
c-9.33301 -28.333 -14 -46.166 -14 -53.499c-0.666992 -10.667 0.166016 -16.667 2.49902 -18s7.5 -2.33301 15.5 -3c1.33301 0 4.83301 6.83301 10.5 20.5s12.5 31.834 20.5 54.501l27.5 78.5l32 93l33 97.5c11 32.667 21.833 63 32.5 91c14.667 40 30.334 80 47.001 120
l45 108.5l33 80.5c8.66699 21.333 13 33.333 13 36zM348 638.998c0.666992 8.66699 -0.501953 14.002 -3.50195 16.002s-8.83301 3.33301 -17.5 4c-4 0.666992 -9.33301 0 -16 -2s-14 -5 -22 -9l-25 -13l-25 -13c-26 -14.667 -47.833 -30.834 -65.5 -48.501
s-26.5 -37.167 -26.5 -58.5c0 -11.333 3 -22.333 9 -33s12.5 -21.167 19.5 -31.5s13.5 -21.333 19.5 -33s9 -24.167 9 -37.5c0 -6.66699 -2.33301 -17.5 -7 -32.5s-10.834 -32.833 -18.501 -53.5l-25.5 -68l-28 -76l-32 -85.5l-34 -90.5l-27.5 -74.5
c-7.66699 -21 -11.5 -33.5 -11.5 -37.5c0 -8 -0.166992 -13.5 -0.5 -16.5s4.5 -4.5 14.5 -4.5c2 0 7 9 15 27s17.667 41 29 69l36.5 94.5l37.5 103.5l29 79.5l25.5 71.5c7.66699 22 14 41.167 19 57.5s7.83301 28.5 8.5 36.5c0.666992 14 -1.66602 27.333 -6.99902 40
s-11.666 24.834 -18.999 36.501s-14 23 -20 34s-9 21.833 -9 32.5c0 9.33301 7.33301 20.166 22 32.499s31 24.166 49 35.499c10 6 20.667 11.667 32 17l31.5 14.5c9.66699 4.33301 17.834 7.83301 24.501 10.5s10 4.66699 10 6z" />
    <glyph glyph-name="periodcentered" unicode="&#xb7;" 
d="M188 194c0 7.33301 -2.66797 14 -8.00098 20s-11.666 9 -18.999 9c-8 0 -14.667 -3 -20 -9s-8 -12.667 -8 -20s2.5 -13.666 7.5 -18.999s11.5 -8 19.5 -8c7.33301 0 13.833 2.66699 19.5 8s8.5 11.666 8.5 18.999z" />
    <glyph glyph-name="guillemotright" unicode="&#xbb;" horiz-adv-x="2" 
d="M170 860c0 5.33301 -1.16699 10 -3.5 14s-6.5 5.66699 -12.5 5c-1.33301 0 -4.83301 -2.33301 -10.5 -7l-21.5 -18.5l-29 -25.5l-32 -29l-25.5 -26l-22 -23.5c-6.33301 -7 -11.333 -13.333 -15 -19s-5.5 -9.83398 -5.5 -12.501c-0.666992 -6.66699 -0.166992 -11 1.5 -13
s5.16699 -3 10.5 -3c1.33301 0 4.33301 2.16699 9 6.5l17 16.5l22 23c8 8.66699 16.667 17.334 26 26.001l32.5 31l29.5 27l21 19.5c5.33301 5 8 7.83301 8 8.5z" />
    <glyph glyph-name="afii10023" unicode="&#x401;" horiz-adv-x="305" 
d="M386 718c0.666992 6.66699 -1.33301 12.334 -6 17.001s-10.667 7.33398 -18 8.00098c-6.66699 0.666992 -12.334 -1.33301 -17.001 -6s-7.33398 -10.334 -8.00098 -17.001c-0.666992 -7.33301 1.33301 -13.333 6 -18s10.667 -7.33398 18 -8.00098
c6.66699 -0.666992 12.334 1.33301 17.001 6s7.33398 10.667 8.00098 18zM301 718c0.666992 6.66699 -1.33398 12.334 -6.00098 17.001s-10.334 7.33398 -17.001 8.00098c-7.33301 0.666992 -13.5 -1.33301 -18.5 -6s-7.5 -10.334 -7.5 -17.001
c-0.666992 -7.33301 1.33301 -13.333 6 -18s10.667 -7.33398 18 -8.00098c6.66699 -0.666992 12.334 1.33301 17.001 6s7.33398 10.667 8.00098 18zM382.999 573c0 8 -2.66797 16.002 -8.00098 24.002s-12.166 15.167 -20.499 21.5s-18 11.333 -29 15s-22.167 5.5 -33.5 5.5
c-17.333 0 -34.166 -4.5 -50.499 -13.5s-30.833 -21.167 -43.5 -36.5s-22.667 -32.833 -30 -52.5s-11 -40.167 -11 -61.5c0 -14.667 1.5 -28.334 4.5 -41.001s6.66699 -23.834 11 -33.501s8.66602 -17.834 12.999 -24.501s8.16602 -11.334 11.499 -14.001
c-8.66699 -2.66699 -24.5 -10 -47.5 -22s-46.5 -30.667 -70.5 -56c-18 -19.333 -34.167 -43 -48.5 -71s-21.5 -63.667 -21.5 -107c0 -14.667 2.5 -28.334 7.5 -41.001s12.167 -23.667 21.5 -33s20.166 -16.666 32.499 -21.999s26.166 -8 41.499 -8
c14.667 0 28.167 2.16699 40.5 6.5s23.833 10 34.5 17s20.667 14.667 30 23s18.333 16.833 27 25.5c22.667 21.333 41 40.333 55 57s21 26.667 21 30c0 10.667 -4.66699 16 -14 16c-3.33301 0 -11.833 -8.33301 -25.5 -25s-30.5 -35 -50.5 -55
c-16 -16 -33.333 -30.833 -52 -44.5s-39.667 -20.5 -63 -20.5c-10 0 -19.667 2.16699 -29 6.5s-17.833 10 -25.5 17s-13.834 15 -18.501 24s-7 18.5 -7 28.5c0 29.333 6.5 58.166 19.5 86.499s30.167 53.833 51.5 76.5c8 8 17.5 16.333 28.5 25s23 16.334 36 23.001
s26.667 12 41 16s28.5 5.66699 42.5 5c7.33301 0 14 0.833008 20 2.5s9 4.5 9 8.5c0 14 -7.33301 21 -22 21c-12 0 -22.5 3.16699 -31.5 9.5s-16.5 14.5 -22.5 24.5s-10.5 20.833 -13.5 32.5s-4.5 22.834 -4.5 33.501c0 28.667 4.5 52 13.5 70s19.333 32.167 31 42.5
s23.334 17.333 35.001 21s20.167 5.5 25.5 5.5c7.33301 0 14.5 -1.66699 21.5 -5s13.333 -7.66602 19 -12.999s10.334 -11.166 14.001 -17.499s5.83398 -12.5 6.50098 -18.5c1.33301 -5.33301 3.33301 -8.5 6 -9.5s6.33398 -1.5 11.001 -1.5c5.33301 0 8.5 2.66699 9.5 8
s1.5 11.666 1.5 18.999z" />
    <glyph glyph-name="afii10051" unicode="&#x402;" 
d="M188 194c0 7.33301 -2.66797 14 -8.00098 20s-11.666 9 -18.999 9c-8 0 -14.667 -3 -20 -9s-8 -12.667 -8 -20s2.5 -13.666 7.5 -18.999s11.5 -8 19.5 -8c7.33301 0 13.833 2.66699 19.5 8s8.5 11.666 8.5 18.999z" />
    <glyph glyph-name="afii10052" unicode="&#x403;" horiz-adv-x="2" 
d="M170 860c0 5.33301 -1.16699 10 -3.5 14s-6.5 5.66699 -12.5 5c-1.33301 0 -4.83301 -2.33301 -10.5 -7l-21.5 -18.5l-29 -25.5l-32 -29l-25.5 -26l-22 -23.5c-6.33301 -7 -11.333 -13.333 -15 -19s-5.5 -9.83398 -5.5 -12.501c-0.666992 -6.66699 -0.166992 -11 1.5 -13
s5.16699 -3 10.5 -3c1.33301 0 4.33301 2.16699 9 6.5l17 16.5l22 23c8 8.66699 16.667 17.334 26 26.001l32.5 31l29.5 27l21 19.5c5.33301 5 8 7.83301 8 8.5z" />
    <glyph glyph-name="afii10053" unicode="&#x404;" 
d="M188 194c0 7.33301 -2.66797 14 -8.00098 20s-11.666 9 -18.999 9c-8 0 -14.667 -3 -20 -9s-8 -12.667 -8 -20s2.5 -13.666 7.5 -18.999s11.5 -8 19.5 -8c7.33301 0 13.833 2.66699 19.5 8s8.5 11.666 8.5 18.999z" />
    <glyph glyph-name="afii10054" unicode="&#x405;" 
d="M188 194c0 7.33301 -2.66797 14 -8.00098 20s-11.666 9 -18.999 9c-8 0 -14.667 -3 -20 -9s-8 -12.667 -8 -20s2.5 -13.666 7.5 -18.999s11.5 -8 19.5 -8c7.33301 0 13.833 2.66699 19.5 8s8.5 11.666 8.5 18.999z" />
    <glyph glyph-name="afii10056" unicode="&#x407;" 
d="M188 194c0 7.33301 -2.66797 14 -8.00098 20s-11.666 9 -18.999 9c-8 0 -14.667 -3 -20 -9s-8 -12.667 -8 -20s2.5 -13.666 7.5 -18.999s11.5 -8 19.5 -8c7.33301 0 13.833 2.66699 19.5 8s8.5 11.666 8.5 18.999z" />
    <glyph glyph-name="afii10057" unicode="&#x408;" 
d="M188 194c0 7.33301 -2.66797 14 -8.00098 20s-11.666 9 -18.999 9c-8 0 -14.667 -3 -20 -9s-8 -12.667 -8 -20s2.5 -13.666 7.5 -18.999s11.5 -8 19.5 -8c7.33301 0 13.833 2.66699 19.5 8s8.5 11.666 8.5 18.999z" />
    <glyph glyph-name="afii10058" unicode="&#x409;" 
d="M188 194c0 7.33301 -2.66797 14 -8.00098 20s-11.666 9 -18.999 9c-8 0 -14.667 -3 -20 -9s-8 -12.667 -8 -20s2.5 -13.666 7.5 -18.999s11.5 -8 19.5 -8c7.33301 0 13.833 2.66699 19.5 8s8.5 11.666 8.5 18.999z" />
    <glyph glyph-name="afii10059" unicode="&#x40a;" 
d="M188 194c0 7.33301 -2.66797 14 -8.00098 20s-11.666 9 -18.999 9c-8 0 -14.667 -3 -20 -9s-8 -12.667 -8 -20s2.5 -13.666 7.5 -18.999s11.5 -8 19.5 -8c7.33301 0 13.833 2.66699 19.5 8s8.5 11.666 8.5 18.999z" />
    <glyph glyph-name="afii10060" unicode="&#x40b;" 
d="M188 194c0 7.33301 -2.66797 14 -8.00098 20s-11.666 9 -18.999 9c-8 0 -14.667 -3 -20 -9s-8 -12.667 -8 -20s2.5 -13.666 7.5 -18.999s11.5 -8 19.5 -8c7.33301 0 13.833 2.66699 19.5 8s8.5 11.666 8.5 18.999z" />
    <glyph glyph-name="afii10061" unicode="&#x40c;" 
d="M188 194c0 7.33301 -2.66797 14 -8.00098 20s-11.666 9 -18.999 9c-8 0 -14.667 -3 -20 -9s-8 -12.667 -8 -20s2.5 -13.666 7.5 -18.999s11.5 -8 19.5 -8c7.33301 0 13.833 2.66699 19.5 8s8.5 11.666 8.5 18.999z" />
    <glyph glyph-name="afii10062" unicode="&#x40e;" 
d="M188 194c0 7.33301 -2.66797 14 -8.00098 20s-11.666 9 -18.999 9c-8 0 -14.667 -3 -20 -9s-8 -12.667 -8 -20s2.5 -13.666 7.5 -18.999s11.5 -8 19.5 -8c7.33301 0 13.833 2.66699 19.5 8s8.5 11.666 8.5 18.999z" />
    <glyph glyph-name="afii10145" unicode="&#x40f;" 
d="M188 194c0 7.33301 -2.66797 14 -8.00098 20s-11.666 9 -18.999 9c-8 0 -14.667 -3 -20 -9s-8 -12.667 -8 -20s2.5 -13.666 7.5 -18.999s11.5 -8 19.5 -8c7.33301 0 13.833 2.66699 19.5 8s8.5 11.666 8.5 18.999z" />
    <glyph glyph-name="afii10017" unicode="&#x410;" horiz-adv-x="518" 
d="M589 635c0 4 -1.33398 6.5 -4.00098 7.5s-6 1.83301 -10 2.5c-5.33301 0.666992 -14.5 -6.66602 -27.5 -21.999s-28.167 -34.833 -45.5 -58.5l-56 -78l-58 -80.5c-8.66699 -11.333 -17.5 -23.5 -26.5 -36.5l-26 -38.5l-23.5 -34.5
c-7.33301 -10.333 -13.333 -18.5 -18 -24.5h-80c-11.333 0 -18.5 -2.16699 -21.5 -6.5s-4.5 -8.16602 -4.5 -11.499c0 -5.33301 3 -9 9 -11s11.667 -3 17 -3h51c-3.33301 -3.33301 -8.5 -9.5 -15.5 -18.5l-25.5 -31.5l-33.5 -39c-12.333 -14 -25.5 -27.667 -39.5 -41
c-24.667 -23.333 -46.834 -42.666 -66.501 -57.999s-42.5 -23 -68.5 -23c-5.33301 0 -11.833 3 -19.5 9s-12.167 16.333 -13.5 31c-0.666992 5.33301 -2.66699 10 -6 14s-8 6 -14 6c-6.66699 0 -11.667 -2.5 -15 -7.5s-5 -11.167 -5 -18.5c0 -20 8.33301 -35.333 25 -46
s35 -16 55 -16c23.333 0 47.833 8.5 73.5 25.5s50.167 37.167 73.5 60.5c16 15.333 31 31 45 47l39 45c12 14 22.333 26.667 31 38s15.667 19.666 21 24.999c4.66699 0 10.667 -0.166992 18 -0.5s15 -0.5 23 -0.5h23c8 0 14 0.333008 18 1
c-3.33301 -10 -8.66602 -23.667 -15.999 -41l-22 -54c-7.33301 -18.667 -13.666 -36.167 -18.999 -52.5s-8 -28.166 -8 -35.499c0 -6 0.333008 -12.5 1 -19.5s2 -13.5 4 -19.5s5.16699 -11 9.5 -15s10.166 -6 17.499 -6c17.333 0 34 6.66699 50 20s31.333 28 46 44l27 30.5
c9.33301 10.333 17.833 20.166 25.5 29.499s14 17.333 19 24s7.5 11.334 7.5 14.001c0 4 -0.666992 7.33301 -2 10s-4.66602 4 -9.99902 4c-2.66699 0 -6.5 -2.66699 -11.5 -8l-17.5 -19.5l-20.5 -24.5c-7 -8.66699 -13.833 -16.334 -20.5 -23.001l-17.5 -18
c-7.66699 -8 -15.5 -15.667 -23.5 -23s-15.833 -13.833 -23.5 -19.5s-13.834 -8.5 -18.501 -8.5c-5.33301 0 -9.16602 2.33301 -11.499 7s-3.5 9.66699 -3.5 15c0 2 1.5 7.5 4.5 16.5l11 32.5l14.5 41l15.5 42l13 35.5c3.66699 10.333 6.5 17.5 8.5 21.5
c4.66699 -0.666992 12 -0.833984 22 -0.500977s20 1 30 2s18.667 2.66699 26 5s11 5.16602 11 8.49902c0 8.66699 -6.33301 13.667 -19 15c-7.33301 1.33301 -15.333 2 -24 2h-30l15.5 35.5l30 67l37 82.5l36 82c11 25.333 20 46.833 27 64.5s10.5 27.5 10.5 29.5z
M515.999 530l-31.999 -71.999l-35 -77.5l-31 -67c-9.33301 -19.667 -15.333 -32.834 -18 -39.501c-2.66699 -0.666992 -6.66699 -1 -12 -1h-18h-20c-6.66699 0 -12.334 -0.333008 -17.001 -1c5.33301 8.66699 12.833 20 22.5 34l32 46l36.5 51.5l36.5 51l32.5 44.5z" />
    <glyph glyph-name="afii10018" unicode="&#x411;" horiz-adv-x="447" 
d="M636 619c0 4.66699 -2.83203 8.33594 -8.49902 11.0029s-12.167 4 -19.5 4c-2 0 -7.83301 -0.166992 -17.5 -0.5s-21 -0.833008 -34 -1.5s-27 -1.33398 -42 -2.00098s-29.167 -1 -42.5 -1c-30 -0.666992 -57.833 -0.833984 -83.5 -0.500977s-48.834 0.5 -69.501 0.5
c-25.333 0 -50.5 -2.83301 -75.5 -8.5s-47.5 -14.167 -67.5 -25.5s-36.167 -25.666 -48.5 -42.999s-18.5 -37.666 -18.5 -60.999c0 -9.33301 1.66699 -18.833 5 -28.5s7.66602 -18.334 12.999 -26.001s11 -14 17 -19s11.667 -7.5 17 -7.5c6.66699 0 11.167 1.5 13.5 4.5
s3.5 6.5 3.5 10.5c0 3.33301 -1.83301 7 -5.5 11s-8.16699 8.66699 -13.5 14c-5.33301 6.66699 -10 13.167 -14 19.5s-6 13.166 -6 20.499c0 18.667 5.33301 34.834 16 48.501s24.167 25.167 40.5 34.5s34.5 16.166 54.5 20.499s39 6.5 57 6.5h29
c14.667 0 31.334 0.166992 50.001 0.5s38.834 0.666016 60.501 0.999023l62.5 1c20 0.333008 38.333 0.666016 55 0.999023s29.667 0.5 39 0.5c11.333 0 19.666 1.83301 24.999 5.5s8 6.83398 8 9.50098zM466.001 161.002c0 6.66699 -1.00293 10.832 -3.00293 12.499
s-4.66699 2.5 -8 2.5s-9.66602 -4.83301 -18.999 -14.5l-28 -28.5c2 4.66699 4.16699 10.834 6.5 18.501s4.83301 16.334 7.5 26.001s5 19.667 7 30s3 20.5 3 30.5c0 10.667 -1.66699 21.834 -5 33.501s-9.16602 22.334 -17.499 32.001s-19.333 17.667 -33 24
s-30.167 9.5 -49.5 9.5c-4 0 -12.167 -0.833008 -24.5 -2.5s-23.5 -5.16699 -33.5 -10.5l4 10l10 25l12.5 32l11.5 30c4.66699 14 10.5 28 17.5 42s13.833 26.667 20.5 38s12.167 21 16.5 29s6.5 13.333 6.5 16s-1.83301 6 -5.5 10s-7.83398 6 -12.501 6
c-3.33301 0 -7.66602 -4 -12.999 -12s-11.166 -18.333 -17.499 -31l-19.5 -41c-6.66699 -14.667 -12.334 -28.334 -17.001 -41.001l-14 -34.5l-12.5 -29l-13.5 -31l-16 -39.5c-14 -12.667 -31.333 -29.334 -52 -50.001s-40.5 -43.334 -59.5 -68.001s-35.333 -50 -49 -76
s-20.5 -50.667 -20.5 -74c0 -11.333 4 -20 12 -26s15.667 -9 23 -9c12 0 23.333 4.33301 34 13s20.667 20 30 34s18 29.833 26 47.5s15.667 35.834 23 54.501l27 68l22 54c14.667 14.667 28.834 24.334 42.501 29.001s30.167 7 49.5 7c20.667 0 36.667 -7.33301 48 -22
s17 -31.667 17 -51c0 -23.333 -4.83301 -46.833 -14.5 -70.5s-22.5 -45.334 -38.5 -65.001s-34.333 -35.667 -55 -48s-42.334 -18.5 -65.001 -18.5c-5.33301 0 -10.333 1.16699 -15 3.5s-9 4.83301 -13 7.5s-7.5 5.16699 -10.5 7.5s-5.5 3.5 -7.5 3.5
c-5.33301 0 -9.16602 -2.16699 -11.499 -6.5s-3.5 -8.5 -3.5 -12.5c0 -8 6.66699 -15.833 20 -23.5s27 -11.5 41 -11.5c10 0 22.333 2.16699 37 6.5s30.5 10.5 47.5 18.5s34.167 17.667 51.5 29s33 24 47 38l19 19.5l18.5 20c5.66699 6.33301 10.167 12.166 13.5 17.499
s5 9.33301 5 12zM198.998 242l-17 -41l-18 -43c-6 -16 -12.167 -31.5 -18.5 -46.5s-12.833 -28.167 -19.5 -39.5s-13.167 -20.333 -19.5 -27s-12.833 -10 -19.5 -10c-4.66699 0 -7.66699 1.16699 -9 3.5s-2 4.83301 -2 7.5c0 10 4.83301 24.333 14.5 43s21 38 34 58
s26.5 38.833 40.5 56.5s25.333 30.5 34 38.5z" />
    <glyph glyph-name="afii10019" unicode="&#x412;" horiz-adv-x="437" 
d="M484 553c0 6.66699 -1.8252 14.1719 -5.49219 22.5049s-8.33398 16.166 -14.001 23.499s-12 13.333 -19 18s-13.5 7 -19.5 7c-16 0 -31.833 -2.16699 -47.5 -6.5s-27.167 -10.5 -34.5 -18.5c0.666992 3.33301 1.33398 7.16602 2.00098 11.499s1 8.16602 1 11.499
c-0.666992 4 -1.83398 7.5 -3.50098 10.5s-4.5 4.5 -8.5 4.5c-2.66699 0 -6.33398 -3.5 -11.001 -10.5s-9.83398 -15.667 -15.501 -26s-11 -21.333 -16 -33l-13.5 -30.5l-45.5 -58.5l-58 -80l-61 -90.5c-20.333 -31.333 -38.666 -62 -54.999 -92s-29.666 -58 -39.999 -84
s-15.5 -47.667 -15.5 -65c0 -6 0.166992 -12.833 0.5 -20.5s1.16602 -15 2.49902 -22s3.83301 -12.833 7.5 -17.5s9.16699 -7 16.5 -7c16.667 0 30.667 4 42 12s20.833 18 28.5 30s14.5 25.5 20.5 40.5l18 43.5c10 22 22 50.167 36 84.5l44 108l46 112l41 96.5
c14.667 21.333 31 38.666 49 51.999s35.333 20 52 20c12 0 22.333 -4.5 31 -13.5s13 -23.167 13 -42.5c0 -18.667 -5.83301 -39.334 -17.5 -62.001s-25.834 -43.834 -42.501 -63.501s-34.667 -36 -54 -49s-36.333 -18.833 -51 -17.5c-2.66699 0 -6.66699 -1 -12 -3
s-8 -5.66699 -8 -11c0 -6 2.83301 -9.83301 8.5 -11.5s11.167 -2.5 16.5 -2.5c2.66699 0 7.16699 -0.333008 13.5 -1s13.333 -2 21 -4s15.167 -5 22.5 -9s13.666 -9 18.999 -15c5.33301 -7.33301 8.83301 -15.5 10.5 -24.5s2.5 -19.833 2.5 -32.5
c0 -35.333 -6.5 -66 -19.5 -92s-28.833 -47.667 -47.5 -65s-38 -30.333 -58 -39s-37 -13 -51 -13c-6.66699 0 -13 1.83301 -19 5.5s-11.5 7.66699 -16.5 12s-9.33301 8.33301 -13 12s-6.83398 5.16699 -9.50098 4.5s-5.5 -2.16699 -8.5 -4.5s-4.5 -5.16602 -4.5 -8.49902
c0 -5.33301 1.33301 -9.66602 4 -12.999s5.66699 -6.66602 9 -9.99902c6.66699 -6 14.167 -11.833 22.5 -17.5s20.166 -8.5 35.499 -8.5c18 0 37.667 4.83301 59 14.5s41.333 20.167 60 31.5s34.334 22 47.001 32s19.667 15.667 21 17l8.5 8.5l19 20l19.5 22
c6 7 9 11.833 9 14.5c0 11.333 -3.66699 17 -11 17c-2 0 -4.83301 -1.83301 -8.5 -5.5l-13 -13l-16.5 -16.5c-6 -6 -12 -11.333 -18 -16c1.33301 4 3.66602 9.5 6.99902 16.5s6.66602 15.167 9.99902 24.5s6.16602 19.166 8.49902 29.499s3.5 21.166 3.5 32.499
c0 25.333 -3.66699 47.333 -11 66s-23.333 34 -48 46c18.667 14.667 36 31 52 49s30 36.5 42 55.5s21.5 37.833 28.5 56.5s10.5 35.667 10.5 51zM236.008 436.005c-2.66699 -8 -7.83398 -22.498 -15.501 -43.498l-27.5 -73l-35 -87.5
c-12.667 -30.667 -25.334 -59.334 -38.001 -86.001c-15.333 -32 -29.666 -59.167 -42.999 -81.5s-25.666 -33.5 -36.999 -33.5c-5.33301 0 -8.66602 2.66699 -9.99902 8s-2 11.333 -2 18c0 12 3.83301 28.167 11.5 48.5s17.667 42.666 30 66.999s26.166 49.5 41.499 75.5
l46 75c16.667 25.333 32.167 47.833 46.5 67.5z" />
    <glyph glyph-name="afii10020" unicode="&#x413;" horiz-adv-x="307" 
d="M638 651c0 6.66699 -4.16504 10.165 -12.498 10.498s-17.833 0.5 -28.5 0.5h-163c-56.667 0 -104.834 -2.16699 -144.501 -6.5s-72 -12.166 -97 -23.499s-43.167 -26.5 -54.5 -45.5s-17 -42.833 -17 -71.5c0 -25.333 5 -46.666 15 -63.999s21 -26 33 -26
c3.33301 0 6.83301 1.33301 10.5 4s6.16699 5.66699 7.5 9c0.666992 5.33301 -0.333008 9.66602 -3 12.999s-5.66699 7.33301 -9 12l-16 20c-5.33301 6.66699 -8 15.334 -8 26.001c0 32.667 10.167 57.334 30.5 74.001s45 28.334 74 35.001s59.333 10.167 91 10.5
s59.167 0.5 82.5 0.5c27.333 0 49 0.166992 65 0.5s29.167 0.666016 39.5 0.999023s19.666 0.666016 27.999 0.999023s18.5 0.5 30.5 0.5c10 0 20.167 1.33301 30.5 4s15.5 7.66699 15.5 15zM380.002 574.998c0 3.33301 -1.33301 6.16992 -4 8.50293s-6 3.5 -10 3.5
c-6 0 -13.667 -11.167 -23 -33.5l-34 -84.5l-25.5 -66.5l-28 -72.5c-9.66699 -24.667 -19.667 -48.834 -30 -72.501s-20.5 -45.834 -30.5 -66.501c-11.333 -22.667 -22.333 -43.667 -33 -63s-21.667 -36 -33 -50s-23 -25 -35 -33s-25 -12 -39 -12c-12.667 0 -23.5 3 -32.5 9
s-16.667 12.5 -23 19.5s-11.833 13.5 -16.5 19.5s-9 9 -13 9c-5.33301 0 -9.5 -2.83301 -12.5 -8.5s-4.5 -9.83398 -4.5 -12.501c0 -7.33301 3.33301 -15.166 10 -23.499s15 -15.833 25 -22.5s20.5 -12.167 31.5 -16.5s20.833 -6.5 29.5 -6.5c30 0 60.667 5.66699 92 17
s59.666 26 84.999 44c14.667 10.667 28 21.667 40 33s22.167 21.666 30.5 30.999s14.833 17.333 19.5 24s7 10.667 7 12c0 4.66699 -1.33301 8.66699 -4 12s-6 5 -10 5c-1.33301 0 -4.66602 -2.83301 -9.99902 -8.5l-20 -20.5l-26 -26l-27 -26
c-13.333 -11.333 -27 -20.5 -41 -27.5s-27 -13.167 -39 -18.5c6.66699 8 16.834 23.167 30.501 45.5s28.5 49.5 44.5 81.5c9.33301 18.667 19.166 39.5 29.499 62.5l30.5 71l28.5 72.5l25.5 67l33 86.5c8 21.667 12 34.167 12 37.5z" />
    <glyph glyph-name="afii10021" unicode="&#x414;" horiz-adv-x="477" 
d="M510 443c0 24 -2.99121 47.667 -8.99121 71s-15.167 44 -27.5 62s-27.833 32.667 -46.5 44s-40.667 17 -66 17c-34 0 -65.333 -8.5 -94 -25.5s-53.334 -36.667 -74.001 -59s-36.834 -44.333 -48.501 -66s-17.5 -37.167 -17.5 -46.5c0 -5.33301 0.5 -10.666 1.5 -15.999
s5.5 -8 13.5 -8c5.33301 0 9.66602 0.833008 12.999 2.5s5 6.16699 5 13.5c0 16.667 6.5 35.167 19.5 55.5s28.667 39.5 47 57.5s37.666 33 57.999 45s38.166 18 53.499 18c12 0 26 -0.833008 42 -2.5s31.5 -7.66699 46.5 -18s27.833 -26.5 38.5 -48.5
s16.334 -53.333 17.001 -94c0.666992 -27.333 -3 -57.5 -11 -90.5s-18.667 -65.5 -32 -97.5s-28.166 -61.833 -44.499 -89.5s-32.833 -50.167 -49.5 -67.5c-22.667 -23.333 -44.834 -41 -66.501 -53s-39.167 -18 -52.5 -18c-7.33301 0 -15.333 1 -24 3
s-20.667 9.66699 -36 23c7.33301 6.66699 14.833 14.834 22.5 24.501s14.167 21.167 19.5 34.5l22.5 52.5l26.5 62l28 66.5l28 67l30 73l26 62.5l18 44.5c4.66699 11.333 7 18 7 20c0 2.66699 -1.33301 5.33398 -4 8.00098s-5.66699 4 -9 4
c-4 0 -9.16699 -5.33301 -15.5 -16s-13.166 -24.667 -20.499 -42l-24.5 -59.5l-26.5 -68.5l-27.5 -67l-29 -67l-28.5 -63.5l-25 -56.5c-14.667 -33.333 -29 -55.333 -43 -66l-66 25c-22 8 -41 12 -57 12c-10 0 -19.333 -5.16699 -28 -15.5s-13 -23.833 -13 -40.5
c0 -17.333 5.66699 -29.5 17 -36.5s26.666 -10.5 45.999 -10.5c16.667 0 30.167 0.833008 40.5 2.5s19.333 4 27 7s14.167 6.16699 19.5 9.5l18 11c6 -4.66699 11.667 -8.83398 17 -12.501s11.166 -6.83398 17.499 -9.50098s13.666 -4.66699 21.999 -6s18.833 -2 31.5 -2
c18 0 34 1.83301 48 5.5s27.5 8.66699 40.5 15s25.667 13.833 38 22.5l39.5 29c9.33301 6.66699 19 14.5 29 23.5s19 17.833 27 26.5s14.667 16.334 20 23.001s7.66602 11 6.99902 13c-0.666992 5.33301 -2.33398 9.16602 -5.00098 11.499s-5.33398 3.5 -8.00098 3.5
c-1.33301 0 -5.83301 -3.83301 -13.5 -11.5l-26.5 -26.5c-10 -10 -20.333 -19.833 -31 -29.5s-20 -16.5 -28 -20.5c14 16 29.167 36.667 45.5 62s31.5 53.666 45.5 84.999s25.667 65 35 101s14 72 14 108zM105.009 44c-10 -5.33301 -19 -9.16699 -27 -11.5
s-16.667 -3.5 -26 -3.5s-19 1.33301 -29 4s-15 8.66699 -15 18c0 5.33301 2.83301 10 8.5 14s10.167 6 13.5 6c7.33301 0 18.333 -2.5 33 -7.5s28.667 -11.5 42 -19.5z" />
    <glyph glyph-name="afii10022" unicode="&#x415;" horiz-adv-x="306" 
d="M383 573c0 8 -2.66797 16.002 -8.00098 24.002s-12.166 15.167 -20.499 21.5s-18 11.333 -29 15s-22.167 5.5 -33.5 5.5c-17.333 0 -34.166 -4.5 -50.499 -13.5s-30.833 -21.167 -43.5 -36.5s-22.667 -32.833 -30 -52.5s-11 -40.167 -11 -61.5
c0 -14.667 1.5 -28.334 4.5 -41.001s6.66699 -23.834 11 -33.501s8.66602 -17.834 12.999 -24.501s8.16602 -11.334 11.499 -14.001c-8.66699 -2.66699 -24.5 -10 -47.5 -22s-46.5 -30.667 -70.5 -56c-18 -19.333 -34.167 -43 -48.5 -71s-21.5 -63.667 -21.5 -107
c0 -14.667 2.5 -28.334 7.5 -41.001s12.167 -23.667 21.5 -33s20.166 -16.666 32.499 -21.999s26.166 -8 41.499 -8c14.667 0 28.167 2.16699 40.5 6.5s23.833 10 34.5 17s20.667 14.667 30 23s18.333 16.833 27 25.5c22.667 21.333 41 40.333 55 57s21 26.667 21 30
c0 10.667 -4.66699 16 -14 16c-3.33301 0 -11.833 -8.33301 -25.5 -25s-30.5 -35 -50.5 -55c-16 -16 -33.333 -30.833 -52 -44.5s-39.667 -20.5 -63 -20.5c-10 0 -19.667 2.16699 -29 6.5s-17.833 10 -25.5 17s-13.834 15 -18.501 24s-7 18.5 -7 28.5
c0 29.333 6.5 58.166 19.5 86.499s30.167 53.833 51.5 76.5c8 8 17.5 16.333 28.5 25s23 16.334 36 23.001s26.667 12 41 16s28.5 5.66699 42.5 5c7.33301 0 14 0.833008 20 2.5s9 4.5 9 8.5c0 14 -7.33301 21 -22 21c-12 0 -22.5 3.16699 -31.5 9.5s-16.5 14.5 -22.5 24.5
s-10.5 20.833 -13.5 32.5s-4.5 22.834 -4.5 33.501c0 28.667 4.5 52 13.5 70s19.333 32.167 31 42.5s23.334 17.333 35.001 21s20.167 5.5 25.5 5.5c7.33301 0 14.5 -1.66699 21.5 -5s13.333 -7.66602 19 -12.999s10.334 -11.166 14.001 -17.499
s5.83398 -12.5 6.50098 -18.5c1.33301 -5.33301 3.33301 -8.5 6 -9.5s6.33398 -1.5 11.001 -1.5c5.33301 0 8.5 2.66699 9.5 8s1.5 11.666 1.5 18.999z" />
    <glyph glyph-name="afii10024" unicode="&#x416;" horiz-adv-x="862" 
d="M1004 564c0 14 -2.49902 25.165 -7.49902 33.498s-11.333 14.833 -19 19.5s-15.834 7.83398 -24.501 9.50098s-16.334 2.5 -23.001 2.5c-12.667 0 -26.167 -3 -40.5 -9s-29 -14.167 -44 -24.5s-30 -22.166 -45 -35.499s-29.5 -27 -43.5 -41
c-10 -10.667 -19 -20.834 -27 -30.501s-15.833 -19.667 -23.5 -30l-23 -32.5l-24.5 -37l-90 -112c-34.667 -43.333 -79 -95.666 -133 -156.999c3.33301 8.66699 9.33301 23.334 18 44.001l31 72l39.5 88l42.5 93l32.5 70l27.5 59.5l19.5 43c5 11 7.5 17.833 7.5 20.5
c0 12.667 -5.33301 19 -16 19c-4 0 -11.167 -6 -21.5 -18l-36.5 -44.5l-45 -57c-16 -20.333 -31.333 -38.833 -46 -55.5l-62 -69.5l-55 -58.5c2.66699 9.33301 7.16699 21.5 13.5 36.5s12.833 31.833 19.5 50.5s12.334 38.5 17.001 59.5s7 42.167 7 63.5
c0 16.667 -2.83301 30.834 -8.5 42.501s-13.5 21.167 -23.5 28.5s-21.333 12.833 -34 16.5s-26 5.5 -40 5.5c-26.667 0 -52.667 -7.33301 -78 -22s-47.666 -31 -66.999 -49s-35 -34.333 -47 -49l-18 -22c0 -1.33301 2.83301 -4.33301 8.5 -9l13.5 -11
c4.66699 4 13.834 13.167 27.501 27.5s29.334 29.5 47.001 45.5s36.167 30.333 55.5 43s37 19 53 19c5.33301 0 12.333 -0.333008 21 -1s17 -3.33398 25 -8.00098s15 -11.667 21 -21s9 -22.666 9 -39.999c0 -29.333 -4.83301 -60.833 -14.5 -94.5
s-21.834 -66.5 -36.501 -98.5c-12.667 -27.333 -26.5 -54.333 -41.5 -81s-30.667 -52 -47 -76s-33.166 -45.833 -50.499 -65.5s-34.666 -36.5 -51.999 -50.5c-16.667 -12.667 -34 -21.667 -52 -27s-33.333 -7.66602 -46 -6.99902c-9.33301 0 -16.833 1.33301 -22.5 4
s-9.83398 6 -12.501 10s-4.33398 8.5 -5.00098 13.5s-1 9.83301 -1 14.5c-0.666992 5.33301 -1.83398 10.666 -3.50098 15.999s-5.5 8 -11.5 8c-8 0 -13.167 -3.16699 -15.5 -9.5s-3.5 -11.166 -3.5 -14.499c0 -5.33301 0.333008 -12.166 1 -20.499
s3.83398 -16.333 9.50098 -24s14.5 -14.334 26.5 -20.001s29.333 -8.5 52 -8.5c4.66699 0 11.167 1 19.5 3s17.333 4.66699 27 8s19.167 7.16602 28.5 11.499s17.666 9.16602 24.999 14.499c16.667 12 33 26.667 49 44s32.333 36.166 49 56.499l51 64l55 68.5l73.5 84
c24.333 26.667 45.166 51.667 62.499 75c19.333 25.333 35.333 44.833 48 58.5s21 23.167 25 28.5c-5.33301 -9.33301 -14.5 -27.666 -27.5 -54.999l-44.5 -94.5l-52 -112.5l-50 -109.5l-38 -85.5c-10 -23.333 -15 -36.666 -15 -39.999
c-0.666992 -4.66699 0.333008 -9 3 -13s6.66699 -6 12 -6s9.33301 2.16699 12 6.5s5.66699 8.5 9 12.5l52.5 61.5l64.5 76.5l57.5 67.5c17 19.667 27.5 31.5 31.5 35.5c-3.33301 -8.66699 -7 -19.167 -11 -31.5s-7.66699 -25.833 -11 -40.5s-6.33301 -29.5 -9 -44.5
s-4 -29.167 -4 -42.5c0 -28.667 9.33301 -52.667 28 -72s42 -29 70 -29c16.667 0 32.334 2.5 47.001 7.5s28.667 11.833 42 20.5s26.333 18.667 39 30s25.667 23.666 39 36.999l18 18.5l16.5 18c5 5.66699 9 10.834 12 15.501s4.5 8.33398 4.5 11.001
c0 4 -1.83301 7.5 -5.5 10.5s-7.16699 4.5 -10.5 4.5c-2.66699 0 -9.33398 -6 -20.001 -18l-38 -42c-19.333 -20.667 -41.166 -39.167 -65.499 -55.5s-50.5 -24.5 -78.5 -24.5c-17.333 0 -32.666 5.33301 -45.999 16s-20 30 -20 58c0 24 4.33301 50.833 13 80.5
s20 60.5 34 92.5c9.33301 21.333 19.166 42.166 29.499 62.499s22.166 40.166 35.499 59.499c19.333 28.667 39.5 55.167 60.5 79.5s41.5 45.333 61.5 63s39.333 31.5 58 41.5s35 15 49 15c12.667 0 22.167 -4.83301 28.5 -14.5s9.5 -21.167 9.5 -34.5
c0 -7.33301 1.83301 -13.333 5.5 -18s7.16699 -7 10.5 -7c7.33301 0 11.833 3.66699 13.5 11s2.5 15.666 2.5 24.999z" />
    <glyph glyph-name="afii10025" unicode="&#x417;" horiz-adv-x="346" 
d="M410 565c0 12 -2.49902 23.332 -7.49902 33.999s-11.667 20 -20 28s-18.333 14.333 -30 19s-23.834 7 -36.501 7c-8 0 -18.833 -4 -32.5 -12s-27.334 -17 -41.001 -27s-25.5 -19.667 -35.5 -29s-15 -15.333 -15 -18c0 -3.33301 1.33301 -6.66602 4 -9.99902
s6.66699 -5 12 -5c2 0 7.66699 4 17 12s20 16.667 32 26s24.167 17.666 36.5 24.999s22.5 10.666 30.5 9.99902c6.66699 -0.666992 13.5 -2.5 20.5 -5.5s13.333 -7.16699 19 -12.5s10.167 -11.5 13.5 -18.5s4.66602 -14.833 3.99902 -23.5c-1.33301 -26 -10.333 -50 -27 -72
s-35.5 -41.333 -56.5 -58s-41.167 -29.667 -60.5 -39s-32.333 -14.333 -39 -15c-9.33301 -1.33301 -17.833 -3 -25.5 -5s-11.5 -6.66699 -11.5 -14c0 -3.33301 2.66699 -6.66602 8 -9.99902s10.666 -5 15.999 -5s10 -0.333008 14 -1s9.33301 -1.33398 16 -2.00098
c16 -1.33301 29.667 -9.5 41 -24.5s17 -37.5 17 -67.5c0 -20 -3.16699 -39.167 -9.5 -57.5s-14.166 -35.5 -23.499 -51.5s-19.333 -30.333 -30 -43s-20.667 -23 -30 -31l-19 -16c-5.33301 -4.66699 -10.833 -8.5 -16.5 -11.5s-12 -5.33301 -19 -7s-15.833 -2.5 -26.5 -2.5
c-15.333 0 -27.5 3.5 -36.5 10.5s-15.667 15.333 -20 25s-7.16602 19.834 -8.49902 30.501s-2 19.667 -2 27v12c0 4.66699 -0.166992 9.16699 -0.5 13.5s-1.33301 7.83301 -3 10.5s-4.16699 3.66699 -7.5 3s-7.33301 -5.33398 -12 -14.001s-7 -17.667 -7 -27
c0 -15.333 1.83301 -30.5 5.5 -45.5s9.5 -28.5 17.5 -40.5s18.5 -21.667 31.5 -29s28.833 -11 47.5 -11c24 0 46 3.33301 66 10s38.667 15.334 56 26.001s33.5 23 48.5 37l44.5 42c10 9.33301 19.167 19 27.5 29s12.5 17.667 12.5 23c0 3.33301 -1.33301 6.33301 -4 9
s-5.66699 4 -9 4c-2 0 -7.16699 -4.33301 -15.5 -13l-29 -30.5c-11 -11.667 -22.833 -23.167 -35.5 -34.5s-25 -19.666 -37 -24.999c7.33301 7.33301 15.333 17.333 24 30s16.834 27.167 24.501 43.5s14 34.333 19 54s7.5 40.5 7.5 62.5c0 28.667 -6 50.5 -18 65.5
s-25 27.167 -39 36.5c10.667 6.66699 25.167 16.5 43.5 29.5s36.333 28.167 54 45.5s33 36.5 46 57.5s19.5 43.167 19.5 66.5z" />
    <glyph glyph-name="afii10026" unicode="&#x418;" horiz-adv-x="452" 
d="M523 622c0 3.33301 -1.83105 5.82715 -5.49805 7.49414s-7.5 2.5 -11.5 2.5c-2.66699 0 -7.5 -6.5 -14.5 -19.5s-15.333 -29.667 -25 -50l-30.5 -67.5l-30.5 -71.5l-26 -62.5l-16.5 -40c-6 -7.33301 -13 -16.833 -21 -28.5l-27 -39.5
c-10 -14.667 -21 -29.834 -33 -45.501s-24.333 -30.834 -37 -45.501l-45.5 -51.5c-14.333 -16.333 -28 -30.5 -41 -42.5s-25 -21.667 -36 -29s-20.5 -11 -28.5 -11c-4 0 -7.66699 1.83301 -11 5.5s-5 7.83398 -5 12.501c0 6.66699 3.16699 19.334 9.5 38.001
s14.833 40.834 25.5 66.501l35.5 84.5l40.5 94l38.5 88c12.333 28.667 23.166 55 32.499 79s16.833 44.833 22.5 62.5s8.5 30.5 8.5 38.5c0 10.667 -4.33301 19.167 -13 25.5s-18.667 9.5 -30 9.5c-16 0 -32.667 -5.16699 -50 -15.5s-33 -21.5 -47 -33.5
c-15.333 -12.667 -28 -24 -38 -34s-15 -16.667 -15 -20c0 -4 1.16699 -7.66699 3.5 -11s5.83301 -5 10.5 -5c2 0 7.33301 4.5 16 13.5s19.334 18.5 32.001 28.5c14 12 27.833 22.833 41.5 32.5s24.834 14.5 33.501 14.5c11.333 0 18.166 -2.5 20.499 -7.5
s4.16602 -9.83301 5.49902 -14.5l-8 -20l-21.5 -54l-31.5 -77.5l-38 -90.5l-41 -94l-38 -87c-11.333 -26.667 -20.5 -49.834 -27.5 -69.501s-10.5 -33.5 -10.5 -41.5c0 -11.333 3.83301 -22.166 11.5 -32.499s17.5 -15.5 29.5 -15.5s25.333 4.16699 40 12.5s29.5 19 44.5 32
s29.833 27.333 44.5 43s28 31.167 40 46.5c15.333 18 27.5 33.167 36.5 45.5s16.833 22.166 23.5 29.499l-20 -45l-18.5 -44c-5.66699 -14 -10.167 -27.167 -13.5 -39.5s-5 -23.166 -5 -32.499c0 -17.333 4.66699 -29.166 14 -35.499s19.333 -9.5 30 -9.5
c8 0 16 2.16699 24 6.5s16 9.66602 24 15.999s15.667 13.5 23 21.5l22 24l25 27.5c8.66699 9.66699 16.5 18.834 23.5 27.501s12.833 16.334 17.5 23.001s7 11 7 13c0 9.33301 -4.33301 14 -13 14c-2 0 -5.5 -2.66699 -10.5 -8s-11 -12.166 -18 -20.499l-23 -27.5l-25.5 -30
c-12.667 -13.333 -25.334 -26 -38.001 -38s-23.667 -18 -33 -18c-8 0 -13 2 -15 6s-3 8 -3 12c0 8.66699 5.83301 28.334 17.5 59.001s26.167 66.834 43.5 108.501l56 131.5l56 128.5l43.5 100c11.667 27 17.5 41.833 17.5 44.5z" />
    <glyph glyph-name="afii10027" unicode="&#x419;" horiz-adv-x="436" 
d="M468 728c0 7.33301 -2.66797 11 -8.00098 11c-3.33301 0 -7.83301 -2.66699 -13.5 -8l-17.5 -16c-5.33301 -3.33301 -10.666 -6.5 -15.999 -9.5s-11.666 -4.5 -18.999 -4.5c-20.667 0 -32.334 6 -35.001 18c-3.33301 8 -6 13.333 -8 16s-4.33301 4 -7 4
c-3.33301 0 -6.16602 -1.83301 -8.49902 -5.5s-3.5 -7.16699 -3.5 -10.5c0 -14 4.16699 -26 12.5 -36s22.166 -15 41.499 -15c21.333 0 41 7 59 21c6 4.66699 11.333 10.5 16 17.5s7 12.833 7 17.5zM511.999 622c0 3.33301 -1.83203 5.82715 -5.49902 7.49414
s-7.5 2.5 -11.5 2.5c-2.66699 0 -7.5 -6.5 -14.5 -19.5s-15.333 -29.667 -25 -50s-19.667 -42.833 -30 -67.5l-30 -71.5l-26 -62.5l-16.5 -40c-6 -7.33301 -13.167 -16.833 -21.5 -28.5l-27.5 -39.5c-10 -14.667 -21 -29.834 -33 -45.501s-24.333 -30.834 -37 -45.501
l-45.5 -51.5c-14.333 -16.333 -28 -30.5 -41 -42.5s-25 -21.667 -36 -29s-20.5 -11 -28.5 -11c-4 0 -7.66699 1.83301 -11 5.5s-5 7.83398 -5 12.501c0 6.66699 3.33301 19.334 10 38.001s15.167 40.834 25.5 66.501l35.5 84.5l41 94l37.5 88
c12.333 28.667 23.166 55 32.499 79s16.833 44.833 22.5 62.5s8.5 30.5 8.5 38.5c0 10.667 -4.33301 19.167 -13 25.5s-18.667 9.5 -30 9.5c-15.333 0 -31.666 -5.16699 -48.999 -15.5s-33.333 -21.5 -48 -33.5c-15.333 -12.667 -28 -24 -38 -34s-15 -16.667 -15 -20
c0 -4 1.16699 -7.66699 3.5 -11s5.83301 -5 10.5 -5c2.66699 0 8.16699 4.5 16.5 13.5s18.833 18.5 31.5 28.5c14 12 27.833 22.833 41.5 32.5s25.167 14.5 34.5 14.5c11.333 0 18 -2.5 20 -7.5l6 -14.5l-8 -20l-21.5 -54l-32 -77.5l-38.5 -90.5l-41.5 -94l-37.5 -87
c-11.333 -26.667 -20.5 -49.834 -27.5 -69.501s-10.5 -33.5 -10.5 -41.5c0 -11.333 3.83301 -22.166 11.5 -32.499s17.5 -15.5 29.5 -15.5s25.333 4.16699 40 12.5s29.5 19 44.5 32s29.833 27.333 44.5 43s28 31.167 40 46.5c15.333 18 27.5 33.167 36.5 45.5
s16.833 22.166 23.5 29.499l-20 -45l-18.5 -44c-5.66699 -14 -10.167 -27.167 -13.5 -39.5s-5 -23.166 -5 -32.499c0 -17.333 4.83301 -29.166 14.5 -35.499s19.5 -9.5 29.5 -9.5c8 0 16 2.16699 24 6.5s16 9.66602 24 15.999s15.667 13.5 23 21.5l22 24l25 27.5
c8.66699 9.66699 16.5 18.834 23.5 27.501s12.833 16.334 17.5 23.001s7 11 7 13c0 9.33301 -4 14 -12 14c-2 0 -5.5 -2.66699 -10.5 -8s-11 -12.166 -18 -20.499l-23.5 -27.5l-26 -30c-12.667 -13.333 -25.334 -26 -38.001 -38s-23.667 -18 -33 -18c-8 0 -13 2 -15 6
s-3 8 -3 12c0 8.66699 5.83301 28.334 17.5 59.001s26.167 66.834 43.5 108.501l56 131.5l56 128.5l43.5 100c11.667 27 17.5 41.833 17.5 44.5z" />
    <glyph glyph-name="afii10028" unicode="&#x41a;" horiz-adv-x="435" 
d="M525 583c-1.33301 11.333 -3.83691 20.8369 -7.50391 28.5039s-7.83398 13.834 -12.501 18.501s-9.5 8 -14.5 10s-8.83301 3 -11.5 3c-5.33301 0 -12 -2.33301 -20 -7s-17 -11 -27 -19s-20.833 -17.5 -32.5 -28.5s-23.167 -22.833 -34.5 -35.5
c-11.333 -12 -22.166 -24.167 -32.499 -36.5l-29 -36l-25 -31.5l-19.5 -23l25.5 56l27 61.5l21.5 51c6 14.333 9 22.5 9 24.5c0 3.33301 -1.66699 6 -5 8s-7 3 -11 3c-3.33301 0 -11.666 -3.33301 -24.999 -10s-28.333 -13.667 -45 -21l-32 -12.5l-28.5 -11.5
c-8.33301 -3.33301 -15.166 -6.33301 -20.499 -9s-8 -4.66699 -8 -6c0 -4.66699 1.83301 -8.16699 5.5 -10.5s7.83398 -4.16602 12.501 -5.49902c2 -0.666992 7.66699 0.5 17 3.5s20.166 7 32.499 12s24.833 10.5 37.5 16.5s23.334 11.667 32.001 17
c-6 -10.667 -14 -27.334 -24 -50.001l-32.5 -74.5l-35.5 -81c-12 -27 -23 -50.167 -33 -69.5c-15.333 -14.667 -33 -33.834 -53 -57.501s-39 -48.667 -57 -75s-33.333 -52.333 -46 -78s-19 -47.834 -19 -66.501c0 -13.333 3.66699 -23.5 11 -30.5s14.333 -10.167 21 -9.5
c12 0.666992 23.5 6.16699 34.5 16.5s21.333 23.666 31 39.999s18.667 34.5 27 54.5s16.166 40 23.499 60s14 39 20 57s11.333 33 16 45c17.333 17.333 33.833 28.5 49.5 33.5s27.834 7.5 36.501 7.5c7.33301 0 14.166 -2.33301 20.499 -7s9.5 -11.667 9.5 -21
c0 -15.333 -3.33301 -34.5 -10 -57.5s-14 -46 -22 -69l-22 -64c-6.66699 -19.667 -10 -34.167 -10 -43.5c0 -4 0.5 -8.83301 1.5 -14.5s2.83301 -11.334 5.5 -17.001s6.66699 -10.5 12 -14.5s12.333 -6 21 -6c7.33301 0 15.833 3 25.5 9s19.667 13.5 30 22.5
s20.833 19.167 31.5 30.5l31 34c4.66699 6 9.83398 12 15.501 18s11 12 16 18s9 11.333 12 16s4.5 8.66699 4.5 12s-0.5 7.16602 -1.5 11.499s-3.5 6.5 -7.5 6.5s-11.667 -6.5 -23 -19.5l-39 -44.5l-21 -23c-8.66699 -9.33301 -17.667 -18.5 -27 -27.5
s-18.166 -16.833 -26.499 -23.5s-14.5 -10 -18.5 -10c-7.33301 0 -11 3.33301 -11 10v17c0 3.33301 1.66699 10.5 5 21.5l12 38.5l16 48c6 17.333 11.333 33.833 16 49.5s8.66699 30 12 43s5 22.5 5 28.5c0 19.333 -5.16699 33.833 -15.5 43.5s-21.166 14.5 -32.499 14.5
c-8.66699 0 -20.334 -1.83301 -35.001 -5.5s-28.334 -10.167 -41.001 -19.5c1.33301 3.33301 5.33301 9 12 17s11.667 15.667 15 23c8 8.66699 17.667 19.834 29 33.501l36.5 44l40 48l40.5 46.5c20.667 23.333 38.834 42.166 54.501 56.499s26.834 21.5 33.501 21.5
c8 0 12.833 -5 14.5 -15s2.5 -19.667 2.5 -29c0 -14.667 6.33301 -22 19 -22c6 0 10.167 4.5 12.5 13.5s3.16602 17.5 2.49902 25.5zM141.996 243.004c-5.33301 -19.333 -12.3291 -40.833 -20.9961 -64.5s-17.834 -45.834 -27.501 -66.501s-19 -37.834 -28 -51.501
s-15.833 -20.167 -20.5 -19.5s-6.83398 2.5 -6.50098 5.5s0.5 6.16699 0.5 9.5c0 12.667 4.5 28.334 13.5 47.001s19.167 37.167 30.5 55.5s22.666 35.333 33.999 51s19.666 26.834 24.999 33.501z" />
    <glyph glyph-name="afii10029" unicode="&#x41b;" horiz-adv-x="527" 
d="M598 618c0 3.33301 -0.333984 6.66406 -1.00098 9.99707s-4.66699 5 -12 5c-6.66699 0 -14.334 -5.83301 -23.001 -17.5s-17.667 -23.167 -27 -34.5l-38 -53l-71.5 -98l-95 -123c-35 -44 -71.5 -86.667 -109.5 -128c-39.333 -43.333 -77.5 -78.833 -114.5 -106.5
s-68.833 -41.5 -95.5 -41.5c-6.66699 0 -11.834 1.16699 -15.501 3.5s-6.66699 5.33301 -9 9s-4 7.83398 -5 12.501s-1.83301 9.33398 -2.5 14.001c-1.33301 8.66699 -3.66602 15.834 -6.99902 21.501s-8.66602 7.83398 -15.999 6.50098
c-5.33301 -1.33301 -9.66602 -4.16602 -12.999 -8.49902s-5 -9.16602 -5 -14.499c0 -8.66699 1.83301 -17.334 5.5 -26.001s8.83398 -16.5 15.501 -23.5s15 -12.833 25 -17.5s21.333 -7 34 -7c20.667 0 43 7 67 21s47.5 31 70.5 51s44.5 41.167 64.5 63.5l51 58.5
c3.33301 4.66699 13.333 16.667 30 36l75 87c22.667 27.333 44.5 55.333 65.5 84s41.167 54.667 60.5 78c-4 -9.33301 -11.167 -25 -21.5 -47l-35.5 -76.5l-42 -91.5c-14.667 -32 -28 -62.333 -40 -91s-22 -54 -30 -76s-12 -37.333 -12 -46c0 -12 2.5 -23.5 7.5 -34.5
s15.167 -16.5 30.5 -16.5c10 0 20 2.33301 30 7s20 10.834 30 18.501s19.833 16.167 29.5 25.5s19.167 19 28.5 29c17.333 18.667 32.333 35.667 45 51s19 24.666 19 27.999s-1.33301 6.66602 -4 9.99902s-5.66699 5 -9 5c-2 0 -4.5 -1.5 -7.5 -4.5l-10 -10.5l-11.5 -13
c-4 -4.66699 -7.66699 -8.66699 -11 -12l-31.5 -34c-11 -12 -21.833 -23.167 -32.5 -33.5s-20.834 -19 -30.501 -26s-18.167 -10.5 -25.5 -10.5c-3.33301 0 -6.5 0.666992 -9.5 2s-4.5 4.66602 -4.5 9.99902c0 14.667 5.66699 37.667 17 69s25.333 66.333 42 105l54.5 121
l55.5 119l29 61.5l24 49.5l16 34c4 8.66699 6 14 6 16z" />
    <glyph glyph-name="afii10030" unicode="&#x41c;" horiz-adv-x="693" 
d="M755 616c0 3.33301 -0.501953 6.16699 -1.50195 8.5s-5.16699 3.5 -12.5 3.5c-6.66699 0 -13.167 -5.66699 -19.5 -17s-12.5 -23.666 -18.5 -36.999l-59.5 -130.5l-65.5 -146.5l-29 -36.5l-41.5 -52l-39.5 -48.5l-22 -27l-32 -33
c-11.333 -12 -22.666 -23.167 -33.999 -33.5s-22.166 -18.833 -32.499 -25.5s-19.166 -10 -26.499 -10c-3.33301 0 -6.5 0.666992 -9.5 2s-4.5 4.66602 -4.5 9.99902c0 14.667 5.66699 37.667 17 69s25.333 66.333 42 105l54.5 121l55.5 119l29 61.5l24 49.5l16 34
c4 8.66699 6 14 6 16c0 3.33301 -0.333008 6.66602 -1 9.99902s-4.66699 5 -12 5c-6.66699 0 -14.334 -5.83301 -23.001 -17.5s-17.667 -23.167 -27 -34.5c-6 -8 -18.833 -26.833 -38.5 -56.5l-71 -105.5l-91 -128.5c-33 -45 -66.167 -86.833 -99.5 -125.5
c-38 -44 -72.5 -78 -103.5 -102s-59.833 -36 -86.5 -36c-6.66699 0 -11.834 1.16699 -15.501 3.5s-6.5 5.5 -8.5 9.5s-3.5 8.33301 -4.5 13s-1.83301 9.33398 -2.5 14.001c-1.33301 8 -3.83301 14.833 -7.5 20.5s-9.16699 8.16699 -16.5 7.5
c-5.33301 -1.33301 -9.66602 -4.33301 -12.999 -9s-5 -9.66699 -5 -15c0 -8 1.83301 -16.5 5.5 -25.5s8.83398 -17 15.501 -24s15 -12.833 25 -17.5s21.333 -7 34 -7c20.667 0 42.167 6.5 64.5 19.5s44 29 65 48s40.667 39.167 59 60.5l48.5 57l28 38l68 94l60 88
c18.667 28.667 37.667 54.667 57 78c-4 -9.33301 -11.167 -25 -21.5 -47l-35.5 -76.5l-42 -91.5c-14.667 -32 -28 -62.333 -40 -91s-22 -54 -30 -76s-12 -37.333 -12 -46c0 -12 2.5 -23.5 7.5 -34.5s15.167 -16.5 30.5 -16.5c10 0 20.167 2.33301 30.5 7
s20.666 10.834 30.999 18.501s20.333 16.167 30 25.5s19.167 19 28.5 29c4.66699 4.66699 11.667 12.5 21 23.5l30.5 35.5l33 38.5c11 13 20.833 24.167 29.5 33.5l-21 -49.5l-20.5 -48c-6.33301 -15 -11.5 -28 -15.5 -39s-6 -18.833 -6 -23.5c0 -12 2.5 -23.5 7.5 -34.5
s15.167 -16.5 30.5 -16.5c10 0 20 2.33301 30 7s20 10.834 30 18.501s19.833 16.167 29.5 25.5s19.167 19 28.5 29c17.333 18.667 32.333 35.667 45 51s19 24.666 19 27.999s-1.33301 6.66602 -4 9.99902s-5.66699 5 -9 5s-9 -4.83301 -17 -14.5s-15.667 -18.167 -23 -25.5
c-10 -10 -20.5 -21.167 -31.5 -33.5s-21.833 -23.666 -32.5 -33.999s-20.834 -19 -30.501 -26s-18.167 -10.5 -25.5 -10.5c-3.33301 0 -6.33301 0.666992 -9 2s-4 4.66602 -4 9.99902c0 14.667 5.5 37.667 16.5 69s24.667 66.333 41 105l53.5 121l55 119l28 61l23 49
c6.66699 14 11.834 25.333 15.501 34s5.5 13.667 5.5 15z" />
    <glyph glyph-name="afii10031" unicode="&#x41d;" horiz-adv-x="533" 
d="M656 613c0 10.667 -2.50098 20.3379 -7.50098 29.0049s-14.167 13 -27.5 13c-21.333 0 -39.833 -8.83301 -55.5 -26.5s-29.834 -39.334 -42.501 -65.001s-24.5 -53 -35.5 -82s-21.833 -54.5 -32.5 -76.5c-16 -8.66699 -34.333 -17.667 -55 -27s-41 -18 -61 -26l-55 -21.5
c-16.667 -6.33301 -29 -10.833 -37 -13.5c5.33301 10.667 12 25.334 20 44.001l26 60.5l28 66l25.5 61.5c7.66699 18.667 13.834 34.334 18.501 47.001s7 19.667 7 21c0 3.33301 -1.66699 6 -5 8s-6.66602 3 -9.99902 3s-11.666 -3.33301 -24.999 -10
s-28.333 -13.667 -45 -21l-32 -12c-10.667 -4 -20.334 -7.83301 -29.001 -11.5s-15.667 -6.83398 -21 -9.50098s-8 -4.66699 -8 -6c0 -4.66699 1.83301 -8.16699 5.5 -10.5s8.16699 -4.16602 13.5 -5.49902c2 -0.666992 7.5 0.166016 16.5 2.49902s19.333 5.5 31 9.5
s23.667 8.66699 36 14s22.833 10.666 31.5 15.999c-12 -24.667 -23.667 -50 -35 -76l-33.5 -77l-32 -74.5c-10.333 -24.333 -20.5 -46.833 -30.5 -67.5c-12 -12 -29 -26.833 -51 -44.5s-43.833 -36.667 -65.5 -57s-40.5 -41.333 -56.5 -63s-24 -42.167 -24 -61.5
c0 -10.667 1.83301 -19.834 5.5 -27.501s8.33398 -14 14.001 -19s11.5 -8.66699 17.5 -11s11.333 -3.5 16 -3.5c12 0 23.667 4.83301 35 14.5s22.166 22.334 32.499 38.001s20 33.167 29 52.5s17.5 38.833 25.5 58.5l22.5 56.5c7 18 13.167 33 18.5 45
c15.333 7.33301 26.833 12.666 34.5 15.999l22 9.5c7 3 15.667 6.5 26 10.5s26.166 10.667 47.499 20c13.333 6 28.5 12.333 45.5 19s31.833 13.667 44.5 21l-14.5 -33l-24 -55.5l-28.5 -67l-27 -66.5c-8 -20.667 -14.667 -38.834 -20 -54.501s-8 -25.834 -8 -30.501
c0 -6 0.833008 -12.333 2.5 -19s4.16699 -12.834 7.5 -18.501s7.66602 -10.334 12.999 -14.001s11.666 -5.5 18.999 -5.5c14 0 27.5 3.33301 40.5 10s25.333 15 37 25s22.667 20.833 33 32.5l29.5 32.5c10.667 12 20.667 24.333 30 37s14 20.667 14 24s-0.5 6.33301 -1.5 9
s-3.5 4 -7.5 4c-3.33301 0 -9.83301 -5.33301 -19.5 -16s-22.167 -23.667 -37.5 -39l-28.5 -28.5c-10.333 -10.333 -20.666 -20 -30.999 -29s-20.166 -16.5 -29.499 -22.5s-17 -9 -23 -9c-7.33301 0 -11.5 3.33301 -12.5 10s-1.5 12.334 -1.5 17.001c0 4 2.33301 13 7 27
s10.834 30.833 18.501 50.5l25.5 64.5l28 69.5l26.5 64.5l20.5 50l58 45c20.667 16 40 33.5 58 52.5s33 39.5 45 61.5s18 46 18 72zM620.999 603.004c0 -13.333 -4.16895 -27.999 -12.502 -43.999s-18.666 -31.667 -30.999 -47s-25.666 -29.833 -39.999 -43.5
s-27.833 -24.834 -40.5 -33.501c4 12 10.5 28.333 19.5 49s19 41 30 61s22 37.333 33 52s20.833 22 29.5 22c8 0 12 -5.33301 12 -16zM173.997 229.005c-0.666992 -4 -3.5 -11.499 -8.5 -22.499l-18 -38l-23 -45c-8.33301 -15.667 -16.833 -29.834 -25.5 -42.501
s-16.667 -23 -24 -31s-13.666 -11.667 -18.999 -11s-9.5 3.16699 -12.5 7.5s-4.83301 9.16602 -5.5 14.499c-0.666992 8.66699 3.66602 20.334 12.999 35.001s21 30.167 35 46.5s29 32.333 45 48s30.333 28.5 43 38.5z" />
    <glyph glyph-name="afii10032" unicode="&#x41e;" horiz-adv-x="390" 
d="M476 534c0 14 -1.50391 27.167 -4.50391 39.5s-8.33301 23.333 -16 33s-18 17.334 -31 23.001s-29.833 8.5 -50.5 8.5c-19.333 0 -39.166 -5.16699 -59.499 -15.5s-40.666 -24.5 -60.999 -42.5s-40.333 -39 -60 -63s-37.834 -49.333 -54.501 -76
c-17.333 -26.667 -33 -54.167 -47 -82.5s-26 -56 -36 -83s-17.833 -52.833 -23.5 -77.5s-8.5 -46.334 -8.5 -65.001c0 -45.333 9.33301 -79 28 -101s44 -33 76 -33c28 0 54.333 3.83301 79 11.5s47.334 17.167 68.001 28.5s39 23.666 55 36.999s29.5 26 40.5 38
s19.5 22.333 25.5 31s9 13.667 9 15c0 3.33301 -1 6.5 -3 9.5s-5.66699 4.5 -11 4.5c-2.66699 0 -8 -4.66699 -16 -14s-17.5 -19.833 -28.5 -31.5s-23.167 -23 -36.5 -34s-26.333 -18.5 -39 -22.5l18 19c13.333 14.667 27 32.5 41 53.5s27.667 43.833 41 68.5
c14.667 27.333 28.334 55.333 41.001 84s23.834 56.834 33.501 84.501s17.167 54.5 22.5 80.5s8 50 8 72zM446.996 532c0 -16 -2.66211 -35.8281 -7.99512 -59.4951s-12.833 -49.334 -22.5 -77.001s-21 -56.5 -34 -86.5s-27.167 -59.333 -42.5 -88
c-14 -25.333 -28.833 -49.333 -44.5 -72s-32.5 -42.834 -50.5 -60.501s-36.833 -31.667 -56.5 -42s-39.834 -15.5 -60.501 -15.5c-4.66699 0 -11 1.33301 -19 4s-16 7.5 -24 14.5s-15 16.5 -21 28.5s-9 27.333 -9 46c0 11.333 2.16699 27.166 6.5 47.499
s10.833 43.166 19.5 68.499s19 52.166 31 80.499s25.667 56.166 41 83.499c16 28 33.167 54.333 51.5 79s37.166 46.334 56.499 65.001s38.666 33.5 57.999 44.5s37.666 16.5 54.999 16.5c16 0 28.667 -2.66699 38 -8s16.666 -12 21.999 -20s8.83301 -16.5 10.5 -25.5
s2.5 -16.833 2.5 -23.5z" />
    <glyph glyph-name="afii10033" unicode="&#x41f;" horiz-adv-x="637" 
d="M830 642c0 7.33301 -4.66895 10.999 -14.002 10.999h-29c-13.333 0 -32.666 -0.166992 -57.999 -0.5s-51.5 -0.833008 -78.5 -1.5s-52.667 -1.16699 -77 -1.5s-42.166 -0.5 -53.499 -0.5c-56.667 0 -105.5 -2.33301 -146.5 -7s-75 -12.5 -102 -23.5
s-47.167 -25.333 -60.5 -43s-20.333 -39.167 -21 -64.5c-0.666992 -12 0.5 -23.667 3.5 -35s7 -21.166 12 -29.499s10.667 -15 17 -20s12.5 -7.5 18.5 -7.5s10.333 4.33301 13 13c1.33301 5.33301 1 9.5 -1 12.5l-8 11.5l-16 21.5c-5.33301 7 -8 15.833 -8 26.5
c0 32.667 11.333 57.167 34 73.5s50 27.5 82 33.5s65 9 99 9h87c27.333 0.666992 48 1 62 1h34c8.66699 0 16.167 -0.166992 22.5 -0.5s15.5 -0.5 27.5 -0.5c2 0 6.16699 0.166992 12.5 0.5s13.5 0.5 21.5 0.5c8.66699 0 17.667 0.166992 27 0.5s17.666 0.5 24.999 0.5
c20.667 0 38.334 1.33301 53.001 4s22 8 22 16zM648.998 159.999c0 8.66699 -3.33301 12.999 -10 12.999c-2 0 -5.5 -2.5 -10.5 -7.5s-10.833 -11.5 -17.5 -19.5s-14.5 -16.667 -23.5 -26s-18.5 -18.333 -28.5 -27l-22.5 -20c-8.33301 -7.33301 -17.333 -14 -27 -20
s-19.834 -11.167 -30.501 -15.5s-21.334 -6.5 -32.001 -6.5c-7.33301 0 -12.166 2 -14.499 6s-3.5 8 -3.5 12c0 6 2.5 17 7.5 33s11.667 35.167 20 57.5s18 47 29 74l34.5 82.5l42 97.5l37.5 87l27 64c7 17 10.5 26.5 10.5 28.5c0 3.33301 -1.83301 5.83301 -5.5 7.5
s-7.83398 2.5 -12.501 2.5c-4 0 -10.5 -8.83301 -19.5 -26.5s-19 -39.667 -30 -66l-35 -85.5l-34.5 -85l-35 -82l-33 -81c-10 -25.333 -18.167 -48 -24.5 -68s-9.5 -34.667 -9.5 -44c0 -17.333 4.83301 -29.166 14.5 -35.499s19.834 -9.5 30.501 -9.5
c14.667 0 28.334 2.33301 41.001 7s24.5 10.5 35.5 17.5s20.833 14.5 29.5 22.5l24 23l25.5 27c9 9.33301 17.167 18.166 24.5 26.499s13.5 15.833 18.5 22.5s7.5 11.334 7.5 14.001zM435.998 567.998c0 2.66699 -1.33691 5.33398 -4.00391 8.00098s-6 4 -10 4
c-6 0 -13.833 -11 -23.5 -33s-21.167 -50 -34.5 -84l-26 -66.5l-29 -71.5l-31 -71.5l-31 -66.5c-11.333 -22.667 -23.666 -43.5 -36.999 -62.5s-27.333 -35.5 -42 -49.5s-29.5 -24.833 -44.5 -32.5s-29.5 -11.5 -43.5 -11.5c-15.333 0 -26 4 -32 12s-10.667 17 -14 27
c-5.33301 15.333 -11.333 23 -18 23c-5.33301 0 -9.16602 -2.16699 -11.499 -6.5s-3.5 -9.83301 -3.5 -16.5c0 -7.33301 1.83301 -15 5.5 -23s8.83398 -15.5 15.501 -22.5s14.834 -12.833 24.501 -17.5s20.167 -7 31.5 -7c12 0 25.833 2.66699 41.5 8s32 14.666 49 27.999
s34.167 31 51.5 53s34.333 50 51 84l30 63l31.5 71l30.5 71.5l27 66.5l33.5 84c8.33301 20 12.5 33 12.5 39z" />
    <glyph glyph-name="afii10034" unicode="&#x420;" horiz-adv-x="380" 
d="M619 507c0 30 -8.16504 54.1689 -24.498 72.502s-36.833 32.5 -61.5 42.5s-51.5 16.667 -80.5 20s-56.167 5 -81.5 5c-35.333 0 -66.833 -4 -94.5 -12s-51.167 -18.5 -70.5 -31.5s-34.166 -28.333 -44.499 -46s-15.5 -35.834 -15.5 -54.501c0 -4.66699 1.33301 -12 4 -22
s6 -20 10 -30s8.66699 -18.667 14 -26s10.666 -11 15.999 -11c9.33301 0 14 5 14 15c0 6 -1.33301 11.167 -4 15.5l-9.5 15c-3.66699 5.66699 -6.83398 12.167 -9.50098 19.5s-4 16.666 -4 27.999c0 20 6.16699 37.167 18.5 51.5s27.5 26 45.5 35s37.333 15.667 58 20
s39.667 6.5 57 6.5c19.333 0 42.333 -1 69 -3s52.167 -6.66699 76.5 -14s45 -18.5 62 -33.5s25.5 -35.833 25.5 -62.5c0 -15.333 -3.33301 -28.666 -10 -39.999s-14.834 -21 -24.501 -29s-20 -14 -31 -18s-20.5 -6 -28.5 -6c-7.33301 0 -14.166 -1.5 -20.499 -4.5
s-9.5 -7.83301 -9.5 -14.5c0 -2.66699 1.33301 -6.16699 4 -10.5s6 -6.5 10 -6.5c20.667 0 39.667 4.66699 57 14s32.166 20.666 44.499 33.999s21.833 27.333 28.5 42s10 27.667 10 39zM421.002 573.002c0 3.33301 -1.16895 6.16992 -3.50195 8.50293s-5.5 3.5 -9.5 3.5
c-6 0 -13.667 -11 -23 -33s-20.666 -50.333 -33.999 -85l-25.5 -66.5l-28.5 -72.5l-30.5 -72.5c-10.333 -23.667 -20.5 -45.834 -30.5 -66.501c-11.333 -22.667 -22.333 -43.667 -33 -63s-21.667 -36.166 -33 -50.499s-23 -25.5 -35 -33.5s-25 -12 -39 -12
c-14.667 0 -28.167 4.16699 -40.5 12.5s-21.166 17.166 -26.499 26.499c-4.66699 8 -8.16699 14.5 -10.5 19.5s-5.16602 7.5 -8.49902 7.5c-5.33301 0 -9.16602 -2.83301 -11.499 -8.5s-3.5 -9.83398 -3.5 -12.501c0 -8.66699 3.33301 -17.5 10 -26.5
s14.834 -17.333 24.501 -25s20 -13.834 31 -18.501s20.833 -7 29.5 -7c15.333 0 33 2 53 6s40.167 9.16699 60.5 15.5s39.666 14 57.999 23s33.5 18.5 45.5 28.5c28 24 49.333 43.333 64 58s22 25.667 22 33c0 8 -4.33301 12 -13 12c-4 0 -10.333 -5.33301 -19 -16
s-21.334 -23.667 -38.001 -39c-27.333 -26.667 -53.666 -45.167 -78.999 -55.5s-47 -17.5 -65 -21.5c4.66699 4 10.167 10.167 16.5 18.5s13.166 18.5 20.499 30.5s14.833 25.333 22.5 40l23.5 45c9.33301 18.667 19.166 39.667 29.499 63l30.5 71.5l28.5 72l25.5 66.5
l33 86.5c8 21.667 12 34.167 12 37.5z" />
    <glyph glyph-name="afii10035" unicode="&#x421;" horiz-adv-x="346" 
d="M469 570c0 21.333 -6.83496 38.001 -20.502 50.001s-32.167 18 -55.5 18c-17.333 0 -35.5 -3.83301 -54.5 -11.5s-38 -18.5 -57 -32.5s-37.833 -30.667 -56.5 -50s-36.667 -40.333 -54 -63c-20 -27.333 -38.667 -56.333 -56 -87s-32.333 -61.5 -45 -92.5
s-22.5 -61.5 -29.5 -91.5s-10.5 -57.667 -10.5 -83c0 -14.667 1.16699 -29.5 3.5 -44.5s7 -28.667 14 -41s17 -22.5 30 -30.5s29.833 -12 50.5 -12c31.333 0 58 5.83301 80 17.5s43 26.167 63 43.5c8.66699 7.33301 16.334 15 23.001 23s13.667 15.667 21 23
c13.333 14.667 24.333 27.334 33 38.001s13 17 13 19c0 3.33301 -0.833008 6.5 -2.5 9.5s-4.83398 4.5 -9.50098 4.5c-2.66699 0 -8.16699 -4.83301 -16.5 -14.5s-19.166 -21.5 -32.499 -35.5l-35.5 -36c-12.333 -12.667 -23.833 -22.667 -34.5 -30
c-17.333 -11.333 -32.5 -19.666 -45.5 -24.999s-30.833 -8 -53.5 -8c-29.333 0 -48.666 9 -57.999 27s-14 42.667 -14 74c0 30 5 61.667 15 95s22.333 65.666 37 96.999s30.167 60.166 46.5 86.499s30.5 47.5 42.5 63.5l38 47c14 16.667 29 32.167 45 46.5
s32.667 26.166 50 35.499s35.333 14 54 14c21.333 0 35.666 -5.83301 42.999 -17.5s11 -24.5 11 -38.5c0 -11.333 4.33301 -17 13 -17c6.66699 0 10.834 3.33301 12.501 10s2.5 13 2.5 19z" />
    <glyph glyph-name="afii10036" unicode="&#x422;" horiz-adv-x="812" 
d="M998 623c0 7.33301 -4.66406 10.9941 -13.9971 10.9941h-29c-8.66699 0 -25.167 0.166992 -49.5 0.5s-52.5 0.5 -84.5 0.5s-65.833 0.333008 -101.5 1s-69.167 1 -100.5 1s-58.833 0.166992 -82.5 0.5s-39.167 0.5 -46.5 0.5c-56.667 0 -103.334 -2.33301 -140.001 -7
s-65.834 -12.334 -87.501 -23.001s-36.834 -24.667 -45.501 -42s-13.334 -38.666 -14.001 -63.999c-0.666992 -12 0.5 -23.667 3.5 -35s7 -21.166 12 -29.499s10.5 -15 16.5 -20s12 -7.5 18 -7.5c6.66699 0 11.334 4.33301 14.001 13c1.33301 5.33301 1 9.5 -1 12.5l-8 11.5
l-16 21.5c-5.33301 7 -8 15.833 -8 26.5c0 32.667 10.333 56.834 31 72.501s45.834 26.334 75.501 32.001s60.667 8.16699 93 7.5s60.166 -0.666992 83.499 0c27.333 0.666992 49.333 0.833984 66 0.500977s30.5 -0.666016 41.5 -0.999023s20.667 -0.666016 29 -0.999023
s18.5 -0.5 30.5 -0.5h18c11.333 0 25 -0.166992 41 -0.5s33.333 -0.5 52 -0.5c19.333 0 37.5 -0.166992 54.5 -0.5s32.167 -0.5 45.5 -0.5h27c21.333 0 39.333 1.33301 54 4s22 8 22 16zM827.003 161.994c0 9.33301 -3.33008 14.001 -9.99707 14.001
c-2 0 -6 -2.83301 -12 -8.5s-13.333 -13 -22 -22l-28 -29c-10 -10.333 -20 -19.833 -30 -28.5c-6.66699 -6 -14.334 -12.333 -23.001 -19s-17.834 -12.834 -27.501 -18.501s-19.834 -10.334 -30.501 -14.001s-21.667 -5.5 -33 -5.5c-7.33301 0 -12.166 2 -14.499 6
s-3.5 8 -3.5 12c0 6 2.5 16.833 7.5 32.5s11.833 34.667 20.5 57l30 74l35 82.5l42 95.5l37 82.5l26 59.5c6.66699 15.667 10 24.5 10 26.5c0 2.66699 -1.66699 5.16699 -5 7.5s-7.33301 3.5 -12 3.5c-4 0 -10.5 -8.5 -19.5 -25.5s-19 -38 -30 -63l-35 -81.5l-34.5 -81
l-35 -81.5l-33 -81c-10 -25.667 -18.333 -48.334 -25 -68.001s-10 -34.167 -10 -43.5c0 -17.333 4.83301 -29.166 14.5 -35.499s19.834 -9.5 30.501 -9.5c14.667 0 28.5 2.33301 41.5 7s25.167 10.334 36.5 17.001s21.666 13.834 30.999 21.501l25 20.5l28.5 27
c10.333 10 19.666 19.667 27.999 29s15.333 17.666 21 24.999s8.5 12.333 8.5 15zM619.006 551.995c0 4.66699 -1.50098 8.49902 -4.50098 11.499s-6.5 4.5 -10.5 4.5c-2.66699 0 -7.66699 -7.16699 -15 -21.5s-16.166 -33.166 -26.499 -56.499l-35 -80.5l-39.5 -93.5
l-46.5 -106l-42.5 -93l-31 -67c-8 -17.333 -12.333 -27 -13 -29c-1.33301 -5.33301 0.5 -9.83301 5.5 -13.5s10.167 -5.5 15.5 -5.5c3.33301 0 9.5 9 18.5 27s19.667 41.5 32 70.5l41 98l45.5 108.5l39 90l34 78l24 55c6 14 9 21.667 9 23zM451.005 554.994
c0 2.66699 -1.33691 5.16699 -4.00391 7.5s-6.33398 3.5 -11.001 3.5c-5.33301 0 -13.833 -11.167 -25.5 -33.5s-24.5 -50.5 -38.5 -84.5l-54.5 -131c-19.667 -46 -40.167 -89.667 -61.5 -131c-25.333 -51.333 -54.166 -90 -86.499 -116s-62.166 -39 -89.499 -39
c-15.333 0 -26 4 -32 12s-10.667 17 -14 27c-5.33301 15.333 -11.333 23 -18 23c-5.33301 0 -9.16602 -2.16699 -11.499 -6.5s-3.5 -9.83301 -3.5 -16.5c0 -7.33301 1.83301 -15 5.5 -23s8.83398 -15.5 15.501 -22.5s14.834 -12.833 24.501 -17.5s20.167 -7 31.5 -7
c12 0 26.333 2.66699 43 8s34 14.5 52 27.5s36.167 30.5 54.5 52.5s35.833 50 52.5 84l29.5 60.5l30.5 66.5l30 67.5l28 63.5c15.333 36 28 64.333 38 85s15 34 15 40z" />
    <glyph glyph-name="afii10037" unicode="&#x423;" horiz-adv-x="339" 
d="M494 614c0 11.333 -6.00098 17 -18.001 17c-3.33301 0 -8 -4.83301 -14 -14.5s-12.833 -22 -20.5 -37l-24.5 -49.5l-26 -52l-38.5 -49c-14.333 -18.667 -29.166 -36.167 -44.499 -52.5s-31 -30.166 -47 -41.499s-31.667 -17 -47 -17
c-8.66699 0 -14.167 2.16699 -16.5 6.5s-3.5 9.83301 -3.5 16.5c0 15.333 5.16699 35.5 15.5 60.5s21.5 50.5 33.5 76.5l33.5 73c10.333 22.667 15.5 40 15.5 52c0 11.333 -3.83301 20 -11.5 26s-16.5 9 -26.5 9c-12.667 0 -29.334 -6 -50.001 -18s-40 -25.333 -58 -40
c-12.667 -10 -23.834 -19.667 -33.501 -29s-14.5 -15.666 -14.5 -18.999c0 -2 1 -4.83301 3 -8.5s4.66699 -5.5 8 -5.5c5.33301 0 9.16602 0.833008 11.499 2.5s5.5 4.16699 9.5 7.5c8 6 17.167 13.333 27.5 22l31 25c10.333 8 20.333 14.667 30 20s17.834 8 24.501 8
c4.66699 0 8.5 -0.5 11.5 -1.5s4.5 -4.16699 4.5 -9.5c0 -2.66699 -2.33301 -9.16699 -7 -19.5l-17.5 -38l-22.5 -49.5c-8 -18 -15.5 -35.833 -22.5 -53.5s-12.833 -34.334 -17.5 -50.001s-7.33398 -28.5 -8.00098 -38.5c-0.666992 -12.667 3 -25.167 11 -37.5
s18.333 -18.5 31 -18.5c14 0 28.167 3.5 42.5 10.5s28 15.5 41 25.5s25 20.667 36 32s20.167 21.666 27.5 30.999c-8 -19.333 -19.833 -45.5 -35.5 -78.5s-34.167 -69.833 -55.5 -110.5c-11.333 -21.333 -24.166 -41.833 -38.499 -61.5s-29.333 -37.167 -45 -52.5
s-31.334 -27.666 -47.001 -36.999s-30.5 -14 -44.5 -14c-13.333 0 -23.166 3.5 -29.499 10.5s-11.833 16.167 -16.5 27.5c-3.33301 8 -6.33301 14.833 -9 20.5s-5.66699 8.5 -9 8.5c-5.33301 0 -10.333 -2.66699 -15 -8s-7 -12.333 -7 -21c0 -7.33301 2.5 -15 7.5 -23
s11.5 -15.5 19.5 -22.5s16.667 -12.833 26 -17.5s18.333 -7 27 -7c30.667 0 61.667 5.66699 93 17s59.666 26 84.999 44c14.667 10.667 27.834 21.667 39.501 33s21.667 21.666 30 30.999s14.833 17.333 19.5 24s7 10.667 7 12c0 4.66699 -1.33301 8.66699 -4 12
s-5.66699 5 -9 5c-1.33301 0 -4.66602 -2.83301 -9.99902 -8.5l-19 -20.5c-7.33301 -8 -15.666 -16.5 -24.999 -25.5s-18.333 -17.167 -27 -24.5c-9.33301 -7.33301 -18 -13.333 -26 -18s-17.667 -9.66699 -29 -15c2.66699 4 7.16699 9.33301 13.5 16s13.333 14.667 21 24
s15.667 20.333 24 33s16.5 26.667 24.5 42l22.5 47l32.5 69.5l38 81.5l39 83l27.5 57l23.5 47c6.66699 13.333 12 24.333 16 33s6 13.667 6 15z" />
    <glyph glyph-name="afii10038" unicode="&#x424;" horiz-adv-x="399" 
d="M610 523c0.666992 30.667 -5.66895 52.6787 -19.002 66.0117s-28.666 20 -45.999 20c-4 0 -10.333 -0.833008 -19 -2.5s-17.667 -4 -27 -7s-18.166 -6.83301 -26.499 -11.5s-14.833 -10.334 -19.5 -17.001c2.66699 6 5.66699 12.167 9 18.5s5.33301 12.833 6 19.5
c0.666992 5.33301 -0.333008 10.333 -3 15s-6.33398 7 -11.001 7c-3.33301 0 -7.5 -3.66699 -12.5 -11s-10.333 -16.333 -16 -27l-17 -33.5c-5.66699 -11.667 -10.834 -21.834 -15.501 -30.501c0 6.66699 -0.5 14.834 -1.5 24.501s-4.33301 18.667 -10 27
s-14.167 15.5 -25.5 21.5s-27 9 -47 9c-12.667 0 -25.667 -4.16699 -39 -12.5s-26.166 -19.166 -38.499 -32.499s-24 -28.166 -35 -44.499s-20.5 -32.666 -28.5 -48.999s-14.333 -31.5 -19 -45.5s-7 -25.333 -7 -34c0 -10.667 1.66699 -21.334 5 -32.001
s7.83301 -20.334 13.5 -29.001s12.667 -15.834 21 -21.501s17.5 -8.5 27.5 -8.5c22 0 40.333 4.66699 55 14s27.334 18.666 38.001 27.999c-6.66699 -14.667 -15 -34.167 -25 -58.5s-21.667 -49.166 -35 -74.499c-10 -18.667 -21.5 -38.5 -34.5 -59.5
s-26.833 -40.333 -41.5 -58s-29.334 -32.334 -44.001 -44.001s-29 -17.5 -43 -17.5c-14.667 0 -28.167 4.16699 -40.5 12.5s-21.166 17.166 -26.499 26.499c-4.66699 8 -8.16699 14.5 -10.5 19.5s-5.16602 7.5 -8.49902 7.5c-5.33301 0 -9.33301 -2.83301 -12 -8.5
s-4 -9.83398 -4 -12.501c0 -8.66699 3.66699 -17.834 11 -27.501s16.833 -18.5 28.5 -26.5s25.167 -14.667 40.5 -20s31 -8 47 -8c14.667 0 29.5 1.33301 44.5 4s35.167 6.66699 60.5 12c26.667 6 50.667 15.833 72 29.5s37.666 25.167 48.999 34.5
c21.333 17.333 39.666 34.166 54.999 50.499s23 28.166 23 35.499c0 3.33301 -0.5 6.33301 -1.5 9s-3.5 4 -7.5 4c-2 0 -5.33301 -2.16699 -10 -6.5l-17 -16.5l-21 -20.5c-7.33301 -7 -14.333 -13.167 -21 -18.5c-17.333 -13.333 -36.5 -27 -57.5 -41s-42.167 -24 -63.5 -30
c-15.333 -4.66699 -29.166 -7.83398 -41.499 -9.50098s-22.166 -2.5 -29.499 -2.5c8 3.33301 18 11.666 30 24.999s24.5 28.666 37.5 45.999s25.333 35.666 37 54.999s21.5 36.666 29.5 51.999l25 52l21 45.5l19 42l20 43.5c0 -10 1 -20.333 3 -31s5.66699 -20.5 11 -29.5
s12.333 -16.5 21 -22.5s20 -9 34 -9c26.667 0 51.167 8.83301 73.5 26.5s41.666 38.5 57.999 62.5s29 48.667 38 74s13.833 46 14.5 62zM579.997 523.012c0 -16 -4.33398 -35.168 -13.001 -57.501s-19.667 -43.666 -33 -63.999s-28.666 -37.666 -45.999 -51.999
s-34.333 -21.5 -51 -21.5c-20 0 -33.333 5 -40 15s-10 19.667 -10 29c0 6.66699 3.16699 21.167 9.5 43.5s15.666 45.833 27.999 70.5s27.833 46.667 46.5 66s40.334 29 65.001 29c10.667 0 19 -2 25 -6s10.5 -8.83301 13.5 -14.5s4.66699 -11.834 5 -18.501
s0.5 -13 0.5 -19zM368.996 521.011c0 -16 -4.83301 -34.832 -14.5 -56.499s-22 -42.334 -37 -62.001s-31.5 -36.334 -49.5 -50.001s-35.333 -20.5 -52 -20.5c-12.667 0 -23.334 6 -32.001 18s-13 24.333 -13 37c0 14 4.83301 32.333 14.5 55s21.667 44.667 36 66
s30 39.833 47 55.5s33.167 23.834 48.5 24.501c8.66699 0.666992 16.334 -1 23.001 -5s12.167 -9.33301 16.5 -16s7.5 -14 9.5 -22s3 -16 3 -24z" />
    <glyph glyph-name="afii10039" unicode="&#x425;" horiz-adv-x="644" 
d="M768 585c-0.666992 10.667 -3.99707 19.5029 -9.99707 26.5029s-13.167 12.833 -21.5 17.5s-17.166 8 -26.499 10s-18 3 -26 3c-26 0 -50.833 -6.33301 -74.5 -19s-45.334 -28 -65.001 -46s-37.334 -36.667 -53.001 -56l-39.5 -49c2.66699 8 4.66699 19.167 6 33.5
s2 27.166 2 38.499s-1.33301 22.833 -4 34.5s-8.16699 22.167 -16.5 31.5s-20 17 -35 23s-34.5 9 -58.5 9c-17.333 0 -36 -2.83301 -56 -8.5s-39.667 -14.5 -59 -26.5c-15.333 -10 -29.666 -21.167 -42.999 -33.5s-24.833 -24.166 -34.5 -35.499
s-17.334 -21.666 -23.001 -30.999s-8.5 -15.333 -8.5 -18c0 -3.33301 0.833008 -6.5 2.5 -9.5s4.83398 -4.5 9.50098 -4.5c2 0 5.83301 3.16699 11.5 9.5l21.5 24l30 32c11.333 11.667 24 22.5 38 32.5c18 13.333 37 23.833 57 31.5s40.333 11.5 61 11.5
c6 0 13.333 -0.666992 22 -2s17 -4.66602 25 -9.99902s14.833 -13.333 20.5 -24s8.5 -25.667 8.5 -45c0 -29.333 -5.83301 -63.166 -17.5 -101.499s-26.834 -77.333 -45.501 -117s-39.834 -77.5 -63.501 -113.5s-47.5 -66.333 -71.5 -91
c-26 -26.667 -52.5 -46.667 -79.5 -60s-48.167 -20 -63.5 -20c-11.333 0 -21 4.66699 -29 14s-12 19.333 -12 30c0 9.33301 -2.33301 17.333 -7 24s-9 10 -13 10c-6.66699 0 -11.5 -2.83301 -14.5 -8.5s-4.5 -12.167 -4.5 -19.5c0 -12 2.33301 -23.167 7 -33.5
s10.5 -19 17.5 -26s14.5 -12.5 22.5 -16.5s15.333 -6 22 -6c31.333 0 60.833 8 88.5 24s52.334 34.5 74.001 55.5s39.834 41.667 54.501 62l31 43.5c-0.666992 -6 -1.33398 -14.667 -2.00098 -26s-0.666992 -23.833 0 -37.5s2.66699 -27.667 6 -42
s8.66602 -27.333 15.999 -39s17.166 -21.334 29.499 -29.001s28.166 -11.5 47.499 -11.5c14 0 28.667 2.66699 44 8s30.5 12.166 45.5 20.499s29.5 17.833 43.5 28.5s27 21.334 39 32.001c19.333 17.333 34.833 32.666 46.5 45.999s17.5 21.666 17.5 24.999
c0 10.667 -4 16 -12 16c-4 0 -12.333 -6.5 -25 -19.5l-46 -46.5c-19.333 -18.667 -41.833 -36.167 -67.5 -52.5s-53.5 -24.833 -83.5 -25.5c-24 0 -41.833 9.16699 -53.5 27.5s-17.5 42.166 -17.5 71.499c0 12.667 1.5 26.667 4.5 42s6.66699 31 11 47s9.5 32.167 15.5 48.5
s12 31.833 18 46.5c14.667 36 28.834 65.5 42.501 88.5s26.167 42.167 37.5 57.5c26.667 34.667 50 62 70 82s37.667 35 53 45s29 16.167 41 18.5s23.333 3.5 34 3.5c22 0 37.333 -3.83301 46 -11.5s13 -16.834 13 -27.501c0 -3.33301 0.5 -7.83301 1.5 -13.5
s4.16699 -8.5 9.5 -8.5c6.66699 0 11.5 3.16699 14.5 9.5s4.16699 15.166 3.5 26.499z" />
    <glyph glyph-name="afii10040" unicode="&#x426;" horiz-adv-x="528" 
d="M548 160c0 8 -4.33008 11.999 -12.9971 11.999c-2 0 -7 -4.16699 -15 -12.5l-27 -28.5l-31 -31.5c-10.667 -10.333 -19.334 -17.5 -26.001 -21.5c2 4 3.5 7.16699 4.5 9.5s1.5 5.16602 1.5 8.49902c0 5.33301 -1.33301 9.66602 -4 12.999s-6.33398 5 -11.001 5
c-2 0 -7.33301 -4.16699 -16 -12.5s-18.834 -17.5 -30.501 -27.5s-23.667 -19.167 -36 -27.5s-23.5 -12.5 -33.5 -12.5c-5.33301 0 -9.5 1.66699 -12.5 5s-4.5 7.33301 -4.5 12c0 6.66699 3.66699 19.834 11 39.501s16.833 43.167 28.5 70.5l40 90l46 99l46 97.5l40 85
l28.5 61c7.33301 15.667 11 24.167 11 25.5c0 8 -4 12 -12 12c-5.33301 0 -10.666 -3.5 -15.999 -10.5s-10.666 -15.667 -15.999 -26s-10.666 -21.666 -15.999 -33.999l-15 -34.5l-48.5 -106.5c-15 -33 -30.167 -63.167 -45.5 -90.5l-31 -44l-28.5 -39l-30 -38l-34.5 -41
c-32 -36 -60.667 -66.333 -86 -91s-46.333 -37 -63 -37c-4 0 -7.66699 1.83301 -11 5.5s-5 7.83398 -5 12.501c0 6.66699 3.5 19.334 10.5 38.001s16.167 40.667 27.5 66l37.5 84l41.5 94l38.5 88l35 78.5c10.333 23.667 18.666 44.334 24.999 62.001s9.5 30.5 9.5 38.5
c0 10.667 -4.5 19.167 -13.5 25.5s-18.833 9.5 -29.5 9.5c-16 0 -32.667 -5.16699 -50 -15.5s-33.333 -21.5 -48 -33.5c-15.333 -12.667 -27.833 -24 -37.5 -34s-14.5 -16.667 -14.5 -20c0 -4 1.16699 -7.66699 3.5 -11s5.83301 -5 10.5 -5c2 0 7.33301 4.5 16 13.5
s19 18.5 31 28.5c14 12 28 22.833 42 32.5s25.333 14.5 34 14.5c11.333 0 18.5 -2.16699 21.5 -6.5s4.5 -9.5 4.5 -15.5c0 -3.33301 -3 -12 -9 -26l-23.5 -53.5l-33.5 -74l-39 -87.5l-42 -94l-40 -87c-12 -26.667 -21.833 -49.667 -29.5 -69s-11.5 -33 -11.5 -41
c0 -12 4 -23.667 12 -35s18 -17 30 -17s25.167 4.16699 39.5 12.5s28.833 19 43.5 32s29.334 27.333 44.001 43s28 31.167 40 46.5l19 22l14 15.5l11 11.5l10 10c-1.33301 -2.66699 -4.83301 -10.834 -10.5 -24.501l-19 -45.5c-7 -16.667 -13.167 -32.5 -18.5 -47.5
s-8 -24.833 -8 -29.5c0 -14.667 4.5 -27 13.5 -37s20.167 -15 33.5 -15c4 0 9.16699 1.16699 15.5 3.5s12.5 5.16602 18.5 8.49902s11.5 6.66602 16.5 9.99902s8.83301 5.66602 11.5 6.99902c-12.667 -17.333 -26.5 -33.333 -41.5 -48l-41.5 -42
c-12.667 -13.333 -23.334 -26.666 -32.001 -39.999s-13 -27 -13 -41c0 -9.33301 3.16699 -18.5 9.5 -27.5s13.5 -13.5 21.5 -13.5c13.333 0 26.166 7.16699 38.499 21.5s24 32 35 53s21.5 43 31.5 66s19.333 43.5 28 61.5c19.333 14.667 37.666 29.834 54.999 45.501
s32.5 30 45.5 43s23.167 24.333 30.5 34s11 16.167 11 19.5zM350.003 -36.001l-13.9971 -29.499c-6 -12.333 -12.333 -24.333 -19 -36s-12.834 -21.834 -18.501 -30.501s-9.83398 -13 -12.501 -13c-6.66699 0 -10 4 -10 12c0 5.33301 3 12.666 9 21.999
s13.167 18.833 21.5 28.5s16.666 18.834 24.999 27.501z" />
    <glyph glyph-name="afii10041" unicode="&#x427;" horiz-adv-x="431" 
d="M504 620c0 3.33301 -1.66895 6.16309 -5.00195 8.49609s-6.66602 3.5 -9.99902 3.5c-2.66699 0 -6.5 -4.16699 -11.5 -12.5s-11 -19.333 -18 -33l-23 -47l-25.5 -54.5l-35.5 -48c-13 -18 -27 -35.333 -42 -52s-30.667 -30.667 -47 -42s-33.166 -17 -50.499 -17
c-1.33301 0 -4.33301 1.66699 -9 5s-7 13 -7 29c0 9.33301 4 24.5 12 45.5l26 66.5l17.5 41.5l15.5 37.5c4.66699 11.333 8.5 21.5 11.5 30.5s4.5 15.5 4.5 19.5c0 11.333 -5.16699 20.333 -15.5 27s-19.833 10 -28.5 10c-18.667 0 -36.5 -5.16699 -53.5 -15.5
s-32 -22 -45 -35s-23.333 -25.5 -31 -37.5s-11.5 -19.333 -11.5 -22c0 -6.66699 3.66699 -11 11 -13c4.66699 -1.33301 8.16699 -0.666016 10.5 2.00098s5.16602 6.33398 8.49902 11.001l20.5 24.5c7.66699 9 15.834 17.5 24.501 25.5s17.5 14.833 26.5 20.5
s17.833 8.5 26.5 8.5c4.66699 0 9.83398 -0.833008 15.501 -2.5s8.5 -7.16699 8.5 -16.5c0 -4.66699 -4 -16.5 -12 -35.5l-28 -64.5c-10.667 -24 -20.667 -48 -30 -72s-14 -45 -14 -63c0 -18.667 4.83301 -33.334 14.5 -44.001s18.5 -16 26.5 -16c17.333 0 31.5 3 42.5 9
s23.833 14.333 38.5 25c12 9.33301 22.5 18.333 31.5 27s17.167 17.334 24.5 26.001c-2 -6.66699 -6.5 -18.667 -13.5 -36l-25 -59.5l-31 -70.5l-30.5 -70.5c-9.33301 -22.333 -17 -42 -23 -59s-9 -28.5 -9 -34.5c0 -9.33301 1.5 -17.166 4.5 -23.499
s6.66699 -11.5 11 -15.5s9 -6.83301 14 -8.5s9.16699 -2.5 12.5 -2.5c10 0 20.333 3.33301 31 10s21.667 15.167 33 25.5s22.833 22 34.5 35l34.5 37.5l28 30c9.33301 10 14 17.333 14 22c0 3.33301 -1.33301 6.66602 -4 9.99902s-5.66699 5 -9 5
c-1.33301 0 -4.33301 -2.16699 -9 -6.5s-10.5 -10.166 -17.5 -17.499l-23.5 -25l-26 -29l-19.5 -22c-6.33301 -7.33301 -13 -14 -20 -20s-14.167 -11 -21.5 -15s-15 -6 -23 -6c-4.66699 0 -7.83398 2 -9.50098 6s-2.5 7.66699 -2.5 11c0 2 1.66699 8 5 18s8 22.667 14 38
l21.5 53l26.5 65l55.5 131l55 125.5l42 96c11 25.667 16.5 39.834 16.5 42.501z" />
    <glyph glyph-name="afii10042" unicode="&#x428;" horiz-adv-x="650" 
d="M727 622c0 3.33301 -1.83594 5.82617 -5.50293 7.49316s-7.5 2.5 -11.5 2.5c-2 0 -5.33301 -4.33301 -10 -13s-10.167 -20 -16.5 -34s-13.166 -30 -20.499 -48l-23 -55l-21.5 -50.5l-19.5 -46l-16 -38c-4.66699 -11 -8.33398 -19.167 -11.001 -24.5
c-6 -7.33301 -14.833 -19.166 -26.5 -35.499l-40 -55l-48.5 -63.5c-17.333 -22 -35 -42 -53 -60l-27 -26.5l-27 -25c-8.66699 -7.66699 -16.834 -13.834 -24.501 -18.501s-13.834 -7 -18.501 -7c-8 0 -13 2 -15 6s-3 8 -3 12c0 8.66699 5.83301 28.334 17.5 59.001
s26.167 66.834 43.5 108.501l56 131.5l56 128.5l43.5 100c11.667 27 17.5 41.833 17.5 44.5c0 3.33301 -1.83301 5.83301 -5.5 7.5s-7.5 2.5 -11.5 2.5c-2.66699 0 -7.5 -6.5 -14.5 -19.5s-15.333 -29.667 -25 -50l-30.5 -67.5l-30.5 -71.5l-26 -62.5l-16.5 -40
c-6 -7.33301 -13 -16.833 -21 -28.5l-27 -39.5c-10 -14.667 -21 -29.834 -33 -45.501s-24.333 -30.834 -37 -45.501l-45.5 -51.5c-14.333 -16.333 -28 -30.5 -41 -42.5s-25 -21.667 -36 -29s-20.5 -11 -28.5 -11c-4 0 -7.66699 1.83301 -11 5.5s-5 7.83398 -5 12.501
c0 6.66699 3.16699 19.334 9.5 38.001s14.833 40.834 25.5 66.501l35.5 84.5l40.5 94l38.5 88l33 79c9.66699 24 17.5 44.833 23.5 62.5s9 30.5 9 38.5c0 10.667 -4.66699 19.167 -14 25.5s-19.666 9.5 -30.999 9.5c-16 0 -32.667 -5.16699 -50 -15.5s-33 -21.5 -47 -33.5
c-15.333 -12.667 -28 -24 -38 -34s-15 -16.667 -15 -20c0 -4 1.16699 -7.66699 3.5 -11s5.83301 -5 10.5 -5c2 0 7.33301 4.5 16 13.5s19.334 18.5 32.001 28.5c14 12 27.833 22.833 41.5 32.5s24.834 14.5 33.501 14.5c11.333 0 18.5 -2.16699 21.5 -6.5
s4.5 -9.5 4.5 -15.5c0 -5.33301 -2.66699 -15.166 -8 -29.499s-12.5 -32 -21.5 -53l-31.5 -72l-38 -87.5l-41 -94l-38 -87c-11.333 -26.667 -20.5 -49.834 -27.5 -69.501s-10.5 -33.5 -10.5 -41.5c0 -11.333 3.83301 -22.166 11.5 -32.499s17.5 -15.5 29.5 -15.5
s25.333 4.16699 40 12.5s29.5 19 44.5 32s29.833 27.333 44.5 43s28 31.167 40 46.5c15.333 18 27.5 33.167 36.5 45.5s16.833 22.166 23.5 29.499l-20 -45l-18.5 -44c-5.66699 -14 -10.167 -27.167 -13.5 -39.5s-5 -23.166 -5 -32.499
c0 -17.333 4.66699 -29.166 14 -35.499s19.333 -9.5 30 -9.5c8 0 16.5 2.16699 25.5 6.5s18.167 10 27.5 17s18.333 14.667 27 23s16.667 16.5 24 24.5l50 56l62 72l-37 -85.5c-11.333 -27 -17 -49.833 -17 -68.5c0 -17.333 4.33301 -29.166 13 -35.499
s18.334 -9.5 29.001 -9.5c8 0 16 2.16699 24 6.5s16 9.66602 24 15.999s15.667 13.5 23 21.5l22 24l24.5 27.5l23.5 27.5c7.33301 8.66699 13.333 16.334 18 23.001s7 11 7 13c0 9.33301 -4.33301 14 -13 14c-2 0 -5.5 -2.66699 -10.5 -8s-11 -12.166 -18 -20.499l-23 -27.5
l-25.5 -30l-39 -38c-12.667 -12 -23.667 -18 -33 -18c-7.33301 0 -12.166 2 -14.499 6s-3.5 8 -3.5 12c0 5.33301 2.83301 15.833 8.5 31.5s13.167 34.5 22.5 56.5l32 74.5l37 85.5l48 112.5l43.5 102l31.5 75.5c8 20 12 31.333 12 34z" />
    <glyph glyph-name="afii10043" unicode="&#x429;" horiz-adv-x="773" 
d="M786 156c0 9.33301 -4.33105 13.999 -12.998 13.999c-2 0 -7 -4.16699 -15 -12.5l-27 -29c-10 -11 -20.333 -21.667 -31 -32s-19.334 -17.5 -26.001 -21.5c4 6.66699 6 12.334 6 17.001c0 12 -5 18 -15 18c-2 0 -7.33301 -4.16699 -16 -12.5s-18.834 -17.333 -30.501 -27
s-23.667 -18.667 -36 -27s-23.5 -12.5 -33.5 -12.5c-5.33301 0 -9.66602 1.66699 -12.999 5s-4.66602 7.33301 -3.99902 12c0.666992 8 4.16699 21 10.5 39s14.166 38.667 23.499 62l30.5 74l31.5 75l47.5 113l44 102l32 75.5c8.33301 19.667 12.5 30.834 12.5 33.501
c0 3.33301 -1.83301 5.83301 -5.5 7.5s-7.5 2.5 -11.5 2.5c-2 0 -5.33301 -4.33301 -10 -13s-10.167 -20 -16.5 -34s-13.166 -30 -20.499 -48l-23 -55l-21.5 -50.5l-19.5 -46l-16 -38c-4.66699 -11 -8.33398 -19.167 -11.001 -24.5c-6 -7.33301 -15.5 -20 -28.5 -38l-44 -61
c-16.333 -22.667 -34 -45.834 -53 -69.501s-37.5 -44.5 -55.5 -62.5c-17.333 -17.333 -33.333 -31.666 -48 -42.999s-26.667 -17 -36 -17c-8 0 -13 2 -15 6s-3 8 -3 12c0 8.66699 5.83301 28.334 17.5 59.001s26.167 66.834 43.5 108.501l56 131.5l56 128.5l43.5 100
c11.667 27 17.5 41.833 17.5 44.5c0 3.33301 -1.83301 5.83301 -5.5 7.5s-7.5 2.5 -11.5 2.5c-2.66699 0 -7.5 -6.5 -14.5 -19.5s-15.333 -29.667 -25 -50l-30.5 -67.5l-30.5 -71.5l-26 -62.5l-16.5 -40c-6 -7.33301 -13 -16.833 -21 -28.5l-27 -39.5
c-10 -14.667 -21 -29.834 -33 -45.501s-24.333 -30.834 -37 -45.501l-45.5 -51.5c-14.333 -16.333 -28 -30.5 -41 -42.5s-25 -21.667 -36 -29s-20.5 -11 -28.5 -11c-4 0 -7.66699 1.83301 -11 5.5s-5 7.83398 -5 12.501c0 6.66699 3.16699 19.334 9.5 38.001
s14.833 40.834 25.5 66.501l35.5 84.5l40.5 94l38.5 88l33 79c9.66699 24 17.5 44.833 23.5 62.5s9 30.5 9 38.5c0 10.667 -4.66699 19.167 -14 25.5s-19.666 9.5 -30.999 9.5c-16 0 -32.667 -5.16699 -50 -15.5s-33 -21.5 -47 -33.5c-15.333 -12.667 -28 -24 -38 -34
s-15 -16.667 -15 -20c0 -4 1.16699 -7.66699 3.5 -11s5.83301 -5 10.5 -5c2 0 7.33301 4.5 16 13.5s19.334 18.5 32.001 28.5c14 12 27.833 22.833 41.5 32.5s24.834 14.5 33.501 14.5c11.333 0 18.5 -2.16699 21.5 -6.5s4.5 -9.5 4.5 -15.5
c0 -5.33301 -2.66699 -15.166 -8 -29.499s-12.5 -32 -21.5 -53l-31.5 -72l-38 -87.5l-41 -94l-38 -87c-11.333 -26.667 -20.5 -49.834 -27.5 -69.501s-10.5 -33.5 -10.5 -41.5c0 -11.333 3.83301 -22.166 11.5 -32.499s17.5 -15.5 29.5 -15.5s25.333 4.16699 40 12.5
s29.5 19 44.5 32s29.833 27.333 44.5 43s28 31.167 40 46.5c15.333 18 27.5 33.167 36.5 45.5s16.833 22.166 23.5 29.499l-20 -45l-18.5 -44c-5.66699 -14 -10.167 -27.167 -13.5 -39.5s-5 -23.166 -5 -32.499c0 -17.333 4.66699 -29.166 14 -35.499s19.333 -9.5 30 -9.5
c8 0 16.667 2.16699 26 6.5s18.666 9.83301 27.999 16.5s18.5 14 27.5 22s17.167 15.667 24.5 23l51 57.5c18.667 21 38.334 45.5 59.001 73.5l-17.5 -46l-18 -45c-5.66699 -14 -10.334 -26.5 -14.001 -37.5s-5.5 -18.833 -5.5 -23.5c0 -15.333 4.33301 -28 13 -38
s19.667 -15 33 -15c4 0 9.16699 1.16699 15.5 3.5s12.5 5.16602 18.5 8.49902s11.5 6.66602 16.5 9.99902s8.83301 5.66602 11.5 6.99902c-12.667 -17.333 -26.5 -33.166 -41.5 -47.499s-28.833 -28.333 -41.5 -42s-23.334 -27 -32.001 -40s-13 -26.833 -13 -41.5
c0 -8.66699 3.16699 -17.667 9.5 -27s13.5 -14 21.5 -14c13.333 0 26.166 7.16699 38.499 21.5s24 32 35 53s21.5 43 31.5 66s19.333 43.5 28 61.5c19.333 15.333 37.666 30.666 54.999 45.999s32.5 29.666 45.5 42.999s23.167 24.666 30.5 33.999s11 15.666 11 18.999z
M588.002 -40.001l-13.9971 -29.498c-6 -12.333 -12.333 -24.333 -19 -36s-12.834 -21.834 -18.501 -30.501s-9.83398 -13 -12.501 -13c-4 0 -6.66699 1.16699 -8 3.5s-2 5.16602 -2 8.49902c0 5.33301 3 12.666 9 21.999s13.167 18.833 21.5 28.5
s16.666 18.834 24.999 27.501z" />
    <glyph glyph-name="afii10044" unicode="&#x42a;" 
d="M188 194c0 7.33301 -2.66797 14 -8.00098 20s-11.666 9 -18.999 9c-8 0 -14.667 -3 -20 -9s-8 -12.667 -8 -20s2.5 -13.666 7.5 -18.999s11.5 -8 19.5 -8c7.33301 0 13.833 2.66699 19.5 8s8.5 11.666 8.5 18.999z" />
    <glyph glyph-name="afii10045" unicode="&#x42b;" 
d="M188 194c0 7.33301 -2.66797 14 -8.00098 20s-11.666 9 -18.999 9c-8 0 -14.667 -3 -20 -9s-8 -12.667 -8 -20s2.5 -13.666 7.5 -18.999s11.5 -8 19.5 -8c7.33301 0 13.833 2.66699 19.5 8s8.5 11.666 8.5 18.999z" />
    <glyph glyph-name="afii10046" unicode="&#x42c;" 
d="M188 194c0 7.33301 -2.66797 14 -8.00098 20s-11.666 9 -18.999 9c-8 0 -14.667 -3 -20 -9s-8 -12.667 -8 -20s2.5 -13.666 7.5 -18.999s11.5 -8 19.5 -8c7.33301 0 13.833 2.66699 19.5 8s8.5 11.666 8.5 18.999z" />
    <glyph glyph-name="afii10047" unicode="&#x42d;" horiz-adv-x="374" 
d="M457 536c0 16.667 -2.83301 30.8369 -8.5 42.5039s-13.5 21.167 -23.5 28.5s-21.333 12.833 -34 16.5s-26 5.5 -40 5.5c-25.333 0 -51 -6.5 -77 -19.5s-50 -28.167 -72 -45.5c-25.333 -20 -45.666 -39 -60.999 -57s-23 -29.333 -23 -34c0 -8.66699 1.5 -14.167 4.5 -16.5
s7.16699 -3.5 12.5 -3.5c1.33301 0 4.66602 2.5 9.99902 7.5s11.833 11.5 19.5 19.5l26.5 27c10 10 20.667 19.667 32 29c21.333 18.667 42.333 33.667 63 45s39 17 55 17c5.33301 0 12.666 -0.333008 21.999 -1s18.5 -3.33398 27.5 -8.00098s16.833 -11.667 23.5 -21
s10 -22.666 10 -39.999c0 -28.667 -4 -59.334 -12 -92.001s-19.333 -65 -34 -97c-2 -4 -4.16699 -8 -6.5 -12s-4.5 -8 -6.5 -12h-142c-11.333 0 -21 -0.333008 -29 -1s-11.667 -5.33398 -11 -14.001c0.666992 -7.33301 3.33398 -12.333 8.00098 -15s12.667 -4 24 -4h132
c-11.333 -22 -23.833 -43.667 -37.5 -65s-27.667 -41.166 -42 -59.499s-29 -35.333 -44 -51s-29.5 -28.834 -43.5 -39.501c-16.667 -12.667 -33.167 -21.834 -49.5 -27.501s-30.833 -8.16699 -43.5 -7.5c-9.33301 0 -16.666 1.66699 -21.999 5s-9.5 7.33301 -12.5 12
s-5.16699 9.66699 -6.5 15s-2.33301 10.333 -3 15c-1.33301 5.33301 -3 11.333 -5 18s-6 10 -12 10c-4 0 -7.16699 -1.33301 -9.5 -4s-4.33301 -5.83398 -6 -9.50098s-2.66699 -7.33398 -3 -11.001s-0.5 -6.16699 -0.5 -7.5c0 -5.33301 1.5 -12.166 4.5 -20.499
s7.83301 -16.5 14.5 -24.5s15.667 -14.833 27 -20.5s25.666 -8.5 42.999 -8.5h18c19.333 -0 38.5 2.33301 57.5 7s37.167 11 54.5 19c23.333 10.667 45 23.5 65 38.5s37.333 29.333 52 43s26.167 25.667 34.5 36s12.5 16.166 12.5 17.499c0 3.33301 -1 6.66602 -3 9.99902
s-5.66699 5 -11 5c-2.66699 0 -7.83398 -3.66699 -15.501 -11l-27 -26.5c-10.333 -10.333 -21.833 -21.166 -34.5 -32.499s-25.334 -20.666 -38.001 -27.999l-23.5 -13.5c-6.33301 -3.66699 -13.833 -7.16699 -22.5 -10.5c15.333 14 31.5 30.333 48.5 49
s33.667 39.5 50 62.5s32.333 47.833 48 74.5s29.5 55 41.5 85l22 54c6.66699 16.667 12.334 33.167 17.001 49.5s8.33398 33 11.001 50s4 36.167 4 57.5z" />
    <glyph glyph-name="afii10048" unicode="&#x42e;" horiz-adv-x="676" 
d="M761 537c0 14 -1.50488 27.168 -4.50488 39.501s-8.33301 23.166 -16 32.499s-18 16.833 -31 22.5s-29.833 8.5 -50.5 8.5c-19.333 0 -39.166 -5.16699 -59.499 -15.5s-40.666 -24.333 -60.999 -42s-40.333 -38.5 -60 -62.5s-37.834 -49.333 -54.501 -76l-24 -37
c-9.33301 -14.667 -17 -27.334 -23 -38.001c-10 -3.33301 -21.167 -7.5 -33.5 -12.5l-37 -15l-34.5 -14.5c-10.667 -4.66699 -19 -8 -25 -10c5.33301 10.667 12 25.334 20 44.001l26 60.5l28 66l25.5 61.5c7.66699 18.667 13.834 34.334 18.501 47.001s7 19.667 7 21
c0 3.33301 -1.66699 6 -5 8s-6.66602 3 -9.99902 3s-11.666 -3.33301 -24.999 -10s-28.333 -13.667 -45 -21l-32 -12c-10.667 -4 -20.334 -7.83301 -29.001 -11.5s-15.667 -6.83398 -21 -9.50098s-8 -4.66699 -8 -6c0 -4.66699 1.83301 -8.16699 5.5 -10.5
s8.16699 -4.16602 13.5 -5.49902c2 -0.666992 7.5 0.166016 16.5 2.49902s19.333 5.5 31 9.5s23.667 8.66699 36 14s22.833 10.666 31.5 15.999c-12 -24.667 -23.667 -50 -35 -76l-33.5 -77l-32 -74.5c-10.333 -24.333 -20.5 -46.833 -30.5 -67.5
c-12 -12 -29 -26.833 -51 -44.5s-43.833 -36.667 -65.5 -57s-40.5 -41.333 -56.5 -63s-24 -42.167 -24 -61.5c0 -10.667 1.83301 -19.834 5.5 -27.501s8.33398 -14 14.001 -19s11.5 -8.66699 17.5 -11s11.333 -3.5 16 -3.5c12 0 23.667 4.83301 35 14.5
s22.166 22.334 32.499 38.001s20 33.167 29 52.5s17.5 38.833 25.5 58.5l22.5 56.5c7 18 13.167 33 18.5 45l37.5 17.5l26 12c8.33301 3.66699 18 7.66699 29 12l47.5 18.5c-16 -36 -28.333 -70.667 -37 -104s-13 -62.333 -13 -87c0 -45.333 9.33301 -79 28 -101
s44 -33 76 -33c28 0 54.333 3.66699 79 11s47.334 16.833 68.001 28.5s39 24.167 55 37.5s29.5 25.833 40.5 37.5s19.5 21.834 25.5 30.501s9 13.667 9 15c0 3.33301 -1 6.66602 -3 9.99902s-5.66699 5 -11 5c-2.66699 0 -8 -4.66699 -16 -14s-17.667 -19.833 -29 -31.5
s-23.666 -23 -36.999 -34s-26.333 -18.5 -39 -22.5l18 19c13.333 14.667 27.166 32.667 41.499 54s28.166 44 41.499 68c14.667 27.333 28.334 55.333 41.001 84s23.834 56.834 33.501 84.501s17.167 54.5 22.5 80.5s8 50 8 72zM731.995 535.001
c0 -16 -2.66211 -35.8281 -7.99512 -59.4951s-12.833 -49.334 -22.5 -77.001s-21 -56.5 -34 -86.5s-27.167 -59.333 -42.5 -88c-14 -25.333 -28.833 -49.5 -44.5 -72.5s-32.5 -43.167 -50.5 -60.5s-36.833 -31.333 -56.5 -42s-39.834 -16 -60.501 -16
c-4.66699 0 -11 1.33301 -19 4s-16 7.5 -24 14.5s-15 16.5 -21 28.5s-9 27.667 -9 47c0 11.333 2.16699 27.166 6.5 47.499s10.833 43.166 19.5 68.499s19 52.166 31 80.499s25.667 56.166 41 83.499c16 28 33.167 54.333 51.5 79s37.166 46.167 56.499 64.5
s38.666 33 57.999 44s37.666 16.5 54.999 16.5c16 0 28.667 -2.66699 38 -8s16.666 -11.833 21.999 -19.5s8.83301 -16 10.5 -25s2.5 -16.833 2.5 -23.5zM174 229.006c-0.666992 -4 -3.5 -11.499 -8.5 -22.499l-18 -38l-23 -45
c-8.33301 -15.667 -16.833 -29.834 -25.5 -42.501s-16.667 -23 -24 -31s-13.666 -11.667 -18.999 -11s-9.5 3.16699 -12.5 7.5s-4.83301 9.16602 -5.5 14.499c-0.666992 8.66699 3.66602 20.334 12.999 35.001s21 30.167 35 46.5s29 32.333 45 48s30.333 28.5 43 38.5z" />
    <glyph glyph-name="afii10049" unicode="&#x42f;" horiz-adv-x="445" 
d="M514 619c0 5.33301 -1.5 8.83496 -4.5 10.502s-6.16699 2.5 -9.5 2.5c-7.33301 0 -12.333 -2.16699 -15 -6.5s-6 -11.166 -10 -20.499l-9.5 -21.5c-3.66699 -8.33301 -7.5 -16.166 -11.5 -23.499c0 10.667 -2.16699 20.5 -6.5 29.5s-9.66602 16.667 -15.999 23
s-13.333 11.166 -21 14.499s-14.5 5 -20.5 5c-20.667 0 -40.5 -5.66699 -59.5 -17s-35.833 -26 -50.5 -44c-10.667 -14 -20.167 -29 -28.5 -45s-15.166 -31.667 -20.499 -47s-9.33301 -30 -12 -44s-4 -25.667 -4 -35c0.666992 -28 5.66699 -50.167 15 -66.5
s26 -25.833 50 -28.5c7.33301 -0.666992 15.5 0.833008 24.5 4.5s18.167 8.5 27.5 14.5c-8.66699 -9.33301 -19 -21.333 -31 -36l-37.5 -46l-39 -47c-13 -15.333 -24.833 -28 -35.5 -38c-41.333 -39.333 -76.5 -70.333 -105.5 -93s-51.5 -34 -67.5 -34
c-11.333 0 -20.666 4.16699 -27.999 12.5s-11 17.833 -11 28.5c0 4.66699 -1.16699 10 -3.5 16s-6.5 9.33301 -12.5 10c-7.33301 1.33301 -12.5 -1.16699 -15.5 -7.5s-4.5 -13.833 -4.5 -22.5c0 -16 6.5 -31.333 19.5 -46s30.167 -22 51.5 -22c14 0 29 4 45 12
s32.167 18.167 48.5 30.5s32.833 26.5 49.5 42.5l49 48c28 28 53 54.667 75 80l49 56c-4 -10.667 -10.333 -26.334 -19 -47.001l-26 -64.5c-8.66699 -22.333 -16.167 -43.333 -22.5 -63s-9.5 -33.834 -9.5 -42.501c0 -11.333 2.66699 -22.833 8 -34.5
s13.666 -17.5 24.999 -17.5c10.667 0 21.5 3.16699 32.5 9.5s22 14.5 33 24.5s22.167 21.167 33.5 33.5l34 36.5c10 11.333 20.5 22.5 31.5 33.5s16.5 18.833 16.5 23.5c0 3.33301 -1.66699 6.16602 -5 8.49902s-6.66602 3.5 -9.99902 3.5c-2 0 -8 -4.83301 -18 -14.5
l-33 -33.5l-29.5 -31c-10.333 -10.667 -20.333 -20.5 -30 -29.5s-18.834 -16.5 -27.501 -22.5s-15.667 -9 -21 -9c-2.66699 0 -5.16699 2 -7.5 6s-3.5 8.33301 -3.5 13c0 2.66699 2.66699 12.5 8 29.5s12.666 38.167 21.999 63.5l33 86l40 97l36 83
c8.66699 20 16 36.333 22 49l16 34.5l18 39.5c9.33301 20 18.166 37.667 26.499 53s12.5 26.333 12.5 33zM428 537.002c0 -6 -1.83301 -14.999 -5.5 -26.999s-8.83398 -25.5 -15.501 -40.5s-14.667 -30.5 -24 -46.5s-19.5 -30.5 -30.5 -43.5s-22.667 -23.667 -35 -32
s-25.166 -12.5 -38.499 -12.5c-8 0 -15.833 5.66699 -23.5 17s-11.5 26.666 -11.5 45.999c0 13.333 3.33301 32.833 10 58.5s18.334 51.167 35.001 76.5c10.667 16 24 31.5 40 46.5s33.333 22.5 52 22.5c8.66699 0 16.167 -2.66699 22.5 -8s11.166 -11.5 14.499 -18.5
s5.83301 -14.167 7.5 -21.5s2.5 -13 2.5 -17z" />
    <glyph glyph-name="afii10065" unicode="&#x430;" horiz-adv-x="418" 
d="M436 163c0 3.33301 -2.00195 6.66992 -6.00195 10.0029s-8 5 -12 5c-2.66699 0 -9.83398 -7 -21.501 -21s-27.167 -30.667 -46.5 -50c-8.66699 -8.66699 -18.167 -17.5 -28.5 -26.5s-20.166 -17.167 -29.499 -24.5s-17.666 -13.333 -24.999 -18s-12.333 -7 -15 -7
c-8 0 -12.667 4.5 -14 13.5s-2 16.5 -2 22.5c0 12.667 4.33301 29.5 13 50.5s18 42.167 28 63.5l20.5 43.5l19 39.5c5.66699 12 10.167 22.333 13.5 31s5 15.334 5 20.001c0 3.33301 -1 6.5 -3 9.5s-4.66699 4.5 -8 4.5c-4 0 -8.16699 -2.66699 -12.5 -8s-8.5 -12 -12.5 -20
s-7.83301 -16.667 -11.5 -26l-10.5 -26c0 26.667 -8.83301 46.667 -26.5 60s-37.834 20 -60.501 20c-10 0 -20.5 -2.5 -31.5 -7.5s-22.167 -11.667 -33.5 -20s-23 -18 -35 -29s-23.667 -22.833 -35 -35.5l-19.5 -20.5l-22 -24c-7 -7.66699 -13 -14.667 -18 -21
s-7.5 -10.166 -7.5 -11.499c0 -13.333 4 -20 12 -20c2.66699 0 6.33398 2.33301 11.001 7s10.167 10.5 16.5 17.5l20 22.5c7 8 14.167 15.667 21.5 23c-5.33301 -8 -10.5 -17.333 -15.5 -28s-9.16699 -21.334 -12.5 -32.001s-6 -20.334 -8 -29.001s-3 -15.334 -3 -20.001
c0 -16 2.16699 -30.333 6.5 -43s9.5 -23.334 15.5 -32.001s12.333 -15.167 19 -19.5s12.667 -6.5 18 -6.5c26.667 0 48.5 5.66699 65.5 17s34.167 28 51.5 50c0 -6.66699 0.333008 -14.834 1 -24.501s2.66699 -17.5 6 -23.5c3.33301 -7.33301 8 -12.333 14 -15
s12.667 -4 20 -4c8.66699 0 17.834 2.66699 27.501 8s19.5 12 29.5 20s20 17 30 27l29 29l51 51c14.667 14 22 23.333 22 28zM242.998 237.004c0 -16 -3.83301 -35.665 -11.5 -58.998s-18.167 -45.833 -31.5 -67.5s-28.833 -40.334 -46.5 -56.001s-36.167 -23.5 -55.5 -23.5
c-6.66699 0 -12.334 2.16699 -17.001 6.5s-8.66699 10 -12 17s-5.66602 14.667 -6.99902 23s-2 16.166 -2 23.499c1.33301 16 7 37 17 63s22.333 50.333 37 73c11.333 18.667 23.5 33.5 36.5 44.5s29.167 16.5 48.5 16.5c13.333 0 24 -5.33301 32 -16s12 -25.667 12 -45z
" />
    <glyph glyph-name="afii10066" unicode="&#x431;" horiz-adv-x="317" 
d="M647 638c0 2.66699 -2.5 5.50098 -7.5 8.50098s-11.833 4.5 -20.5 4.5h-91c-24 0 -43.333 -1.66699 -58 -5s-26.834 -8.5 -36.501 -15.5s-17.667 -15.833 -24 -26.5s-13.166 -23.667 -20.499 -39c-9.33301 -19.333 -18.666 -40.166 -27.999 -62.499l-29 -66.5l-39.5 -85
l-34.5 -77c0 16 -6 29 -18 39s-26 15 -42 15c-15.333 0 -29.166 -2.5 -41.499 -7.5s-24 -11.667 -35 -20s-21.833 -18 -32.5 -29l-34 -34.5l-22.5 -23.5l-21.5 -23.5c-6.66699 -7.33301 -12.167 -13.833 -16.5 -19.5s-6.5 -9.16699 -6.5 -10.5c0 -13.333 4 -20 12 -20
c2 0 5.16699 2.16699 9.5 6.5s9.16602 9.66602 14.499 15.999l16.5 20.5l16.5 21c-8 -20.667 -14.667 -44 -20 -70s-8 -50.667 -8 -74c0 -4 1 -9.33301 3 -16s5.16699 -13.334 9.5 -20.001s9.66602 -12.334 15.999 -17.001s13.833 -7 22.5 -7c22.667 0 43.5 3 62.5 9
s36.5 13.833 52.5 23.5s31 20.667 45 33s27.333 24.833 40 37.5l35 35.5c11.333 11.667 17 19.5 17 23.5c0 5.33301 -1.66699 9.33301 -5 12s-6.66602 4 -9.99902 4s-10.333 -6.16699 -21 -18.5s-23.334 -25.833 -38.001 -40.5l-31.5 -33c-13 -14 -27.833 -25.333 -44.5 -34
c6.66699 6 13.5 14.833 20.5 26.5s12.167 21.5 15.5 29.5l33.5 77l30 71l29.5 70l33 74l41.5 93.5c14.333 31.667 27.833 59.834 40.5 84.501c7.33301 14.667 18.333 25.834 33 33.501s32 11.5 52 11.5h108c6.66699 0 13 0.666992 19 2s9 5.66602 9 12.999zM235 255.001
c0 -14 -3.33398 -32.3311 -10.001 -54.998s-15.667 -46.334 -27 -71.001c-6 -13.333 -12.833 -26.333 -20.5 -39s-16 -23.667 -25 -33s-18.5 -16.833 -28.5 -22.5s-20.333 -8.5 -31 -8.5c-13.333 0 -22.666 5.5 -27.999 16.5s-8 23.833 -8 38.5c0 20 3.5 42.667 10.5 68
s16.5 49.166 28.5 71.499s26.5 41 43.5 56s35.5 22.5 55.5 22.5c7.33301 0 15.833 -3 25.5 -9s14.5 -17.667 14.5 -35z" />
    <glyph glyph-name="afii10067" unicode="&#x432;" horiz-adv-x="327" 
d="M365 555c0 5.33301 -0.832031 11.6641 -2.49902 18.9971s-4.66699 14.333 -9 21s-10.333 12.334 -18 17.001s-17.167 7 -28.5 7c-18 0 -34.167 -6.16699 -48.5 -18.5s-27 -27 -38 -44s-20 -34.167 -27 -51.5l-16.5 -40c-9.33301 -22 -16.833 -40.5 -22.5 -55.5
l-15.5 -40.5c-4.66699 -12 -9.5 -23.667 -14.5 -35l-17.5 -39l-38.5 -43.5l-38 -42l-29.5 -33.5c-8 -9.33301 -12 -15.333 -12 -18c0 -4.66699 0.666992 -8.33398 2 -11.001s5.33301 -4 12 -4c2 0 5.33301 2.33301 10 7s10 10.334 16 17.001l19 21.5
c6.66699 7.66699 13.667 14.5 21 20.5l-9 -18c-5.33301 -8 -9.83301 -18.333 -13.5 -31s-6.5 -25.167 -8.5 -37.5s-3.5 -23 -4.5 -32l-1.5 -13.5c0 -22 6.16699 -40.667 18.5 -56s31.166 -23 56.499 -23c20.667 0 39.667 2.83301 57 8.5s33.833 13.5 49.5 23.5
s30.667 21.667 45 35s29.166 28 44.499 44c24 26 36 43.667 36 53c0 4 -0.5 7 -1.5 9s-3.5 3 -7.5 3s-8.5 -3 -13.5 -9s-14.167 -16 -27.5 -30l-39 -40c-14 -14.667 -28.667 -26.334 -44 -35.001c8.66699 9.33301 17.167 21 25.5 35s15.5 29.333 21.5 46
s10.833 33.667 14.5 51s5.5 34 5.5 50c0 15.333 -2.16699 28.333 -6.5 39s-9.66602 19.5 -15.999 26.5s-13.5 12 -21.5 15s-15.667 4.5 -23 4.5c-9.33301 0 -15.333 -0.333008 -18 -1s-6.33398 -1.66699 -11.001 -3c16 12.667 34.667 28.834 56 48.501
s41.833 40.334 61.5 62.001s36.334 43.334 50.001 65.001s20.5 40.5 20.5 56.5zM330.001 550.998c0 -15.333 -6.33105 -32.667 -18.998 -52s-28 -38.833 -46 -58.5s-36.833 -38 -56.5 -55s-36.5 -30.833 -50.5 -41.5c3.33301 6 7.83301 16.167 13.5 30.5l19.5 48.5
c7.33301 18 15.5 36.667 24.5 56s18.167 36.833 27.5 52.5s19.166 28.667 29.499 39s20.5 15.5 30.5 15.5c11.333 0 18.666 -3 21.999 -9s5 -14.667 5 -26zM243.003 234.997c0 -17.333 -3.50098 -37.835 -10.501 -61.502s-16.333 -46.167 -28 -67.5
s-25.5 -39.666 -41.5 -54.999s-33 -23 -51 -23c-20 0 -33 6 -39 18s-9 24 -9 36c0 10.667 1.33301 22.5 4 35.5s6.33398 26.333 11.001 40s10 27.167 16 40.5s12.667 25.666 20 36.999c14 22.667 28.333 38.334 43 47.001s27.667 13 39 13c14 0 25.167 -4.16699 33.5 -12.5
s12.5 -24.166 12.5 -47.499z" />
    <glyph glyph-name="afii10068" unicode="&#x433;" horiz-adv-x="296" 
d="M317 164c0 3.33301 -0.835938 6.32812 -2.50293 8.99512s-4.5 4 -8.5 4s-9.5 -3.83301 -16.5 -11.5l-35.5 -37.5l-67.5 -72.5c-17.667 -18.333 -35.167 -27.5 -52.5 -27.5c-5.33301 0 -10.666 0.5 -15.999 1.5s-8 5.16699 -8 12.5c0 8.66699 4.5 22.667 13.5 42l29.5 63
c10.667 22.667 20.5 44.834 29.5 66.501s13.5 39.5 13.5 53.5v20c0 7.33301 -1.16699 14 -3.5 20s-6.16602 10.833 -11.499 14.5s-13.333 5.5 -24 5.5c-8.66699 0 -18.334 -4.16699 -29.001 -12.5s-21.834 -18.666 -33.501 -30.999l-35.5 -39.5l-34 -38
c-15.333 -16 -26.333 -29 -33 -39s-10 -16.333 -10 -19c0 -3.33301 -0.333008 -6.66602 -1 -9.99902s2.66602 -5 9.99902 -5c4 0 10 4.33301 18 13l29 31c10.667 10.667 21.334 22.834 32.001 36.501l31 38.5c10 12 19.167 22 27.5 30s15.5 12 21.5 12
c10 0 15 -2.33301 15 -7v-24c0 -16 -4.5 -34.333 -13.5 -55s-18.667 -41.667 -29 -63l-29 -61.5c-9 -19.667 -13.5 -35.834 -13.5 -48.501c0 -3.33301 0.333008 -7.16602 1 -11.499s2.83398 -8.33301 6.50098 -12s8.83398 -6.66699 15.501 -9s16 -3.5 28 -3.5
c11.333 0 22.5 2.83301 33.5 8.5s22 13 33 22s21.833 19.333 32.5 31l33 34.5c16.667 16.667 29.834 30.834 39.501 42.501s14.5 20.5 14.5 26.5z" />
    <glyph glyph-name="afii10069" unicode="&#x434;" horiz-adv-x="343" 
d="M359 163c0 3.33301 -0.337891 6.66406 -1.00488 9.99707s-4.66699 5 -12 5c-6 0 -13.167 -6 -21.5 -18s-22.833 -27.667 -43.5 -47c-16 -15.333 -30.667 -28.666 -44 -39.999s-24 -19.666 -32 -24.999c0.666992 0.666992 2 3.33398 4 8.00098s5 11 9 19s7.33301 15 10 21
l34 70.5l33.5 72.5l25.5 57c6.66699 15.333 10 23.333 10 24c0 3.33301 -1.66699 5.83301 -5 7.5s-6 3.83398 -8 6.50098c-10 -10.667 -18.667 -20.5 -26 -29.5s-14.666 -20.167 -21.999 -33.5c0 15.333 -6.16699 28.666 -18.5 39.999s-26.5 17 -42.5 17
c-29.333 0 -56.333 -9.16699 -81 -27.5s-49 -39.5 -73 -63.5l-23 -23l-23 -23.5c-7.33301 -7.66699 -13.333 -14.667 -18 -21s-7 -10.833 -7 -13.5c0 -6 1.66699 -9.83301 5 -11.5s6.66602 -2.5 9.99902 -2.5c2 0 5.16699 2 9.5 6l14.5 14
c5.33301 5.33301 10.833 11.166 16.5 17.499l15.5 17.5c2.66699 2 5.33398 4.83301 8.00098 8.5s5.66699 6.83398 9 9.50098c-13.333 -22.667 -23.666 -44.334 -30.999 -65.001s-11 -40.334 -11 -59.001c0 -6 1 -14.167 3 -24.5s5.5 -20.5 10.5 -30.5
s11.667 -18.833 20 -26.5s18.833 -11.5 31.5 -11.5c5.33301 0 12.833 1.16699 22.5 3.5s17.834 5.83301 24.501 10.5c-4.66699 -6.66699 -11.667 -14.5 -21 -23.5l-32 -30l-37.5 -35c-13 -12.333 -25.5 -24.833 -37.5 -37.5c-16 -17.333 -29.667 -36 -41 -56
s-17 -38.667 -17 -56c0 -14 4.66699 -26.333 14 -37s22.666 -16 39.999 -16c12.667 0 25.334 5.33301 38.001 16s24.667 24.5 36 41.5s22 36 32 57s19.333 41.833 28 62.5s16.334 39.834 23.001 57.501s12.334 31.834 17.001 42.501l25 17.5l23 16.5c8 6 16.833 13 26.5 21
s21.167 18.667 34.5 32c24 23.333 41 40.833 51 52.5s15 20.167 15 25.5zM240.995 252.998c0 -20.667 -4 -44.001 -12 -70.001s-18.5 -50.5 -31.5 -73.5s-27.833 -42.333 -44.5 -58s-33.667 -23.5 -51 -23.5c-14 0 -24.333 5.83301 -31 17.5s-10 24.834 -10 39.501
c0 16 3.83301 36 11.5 60s18 47.167 31 69.5s28.167 41.333 45.5 57s36 23.5 56 23.5c24 0 36 -14 36 -42zM141.995 -28.0029c-2 -4.66699 -5.33301 -13.168 -10 -25.501s-10.5 -26.5 -17.5 -42.5s-14.833 -32.667 -23.5 -50s-17.5 -33.166 -26.5 -47.499
s-18.167 -26.166 -27.5 -35.499s-18.333 -14 -27 -14c-4.66699 0 -9.5 1.5 -14.5 4.5s-7.5 7.16699 -7.5 12.5c0 13.333 4.83301 27 14.5 41s21.167 29 34.5 45c9.33301 11.333 19.333 22.666 30 33.999l30 32l26 27z" />
    <glyph glyph-name="afii10070" unicode="&#x435;" horiz-adv-x="274" 
d="M289 164c0 5.33301 -1.66699 8.50488 -5 9.50488s-6.66602 1.5 -9.99902 1.5c-4 0 -12.333 -6.66699 -25 -20l-45 -48c-8.66699 -9.33301 -18.167 -18.666 -28.5 -27.999s-20.833 -17.833 -31.5 -25.5s-21.167 -14 -31.5 -19s-19.5 -7.5 -27.5 -7.5
c-14 0 -24.167 5.33301 -30.5 16s-9.5 23 -9.5 37c0 17.333 3 34.166 9 50.499s12.667 31.166 20 44.499l57.5 11.5c21.667 4.33301 42 10.5 61 18.5s35 18 48 30s19.5 27.333 19.5 46c0 8.66699 -2 16 -6 22s-9 10.833 -15 14.5s-12.667 6.16699 -20 7.5s-14.333 2 -21 2
h-11c-15.333 0 -29.333 -4 -42 -12s-24.334 -18 -35.001 -30s-20.5 -24.667 -29.5 -38s-17.5 -25.333 -25.5 -36c-8 -3.33301 -16 -7.5 -24 -12.5s-15.167 -10 -21.5 -15s-11.5 -10 -15.5 -15s-6 -8.83301 -6 -11.5c0 -10.667 4 -16 12 -16c2.66699 0 5.5 1.16699 8.5 3.5
s6 5.16602 9 8.49902s6.33301 6.66602 10 9.99902s7.5 6 11.5 8c-6.66699 -16.667 -12 -31.334 -16 -44.001s-6 -28.334 -6 -47.001c0 -20.667 4.5 -39 13.5 -55s25.167 -24 48.5 -24c14.667 0 29.167 3.33301 43.5 10s28.5 15 42.5 25s27.167 21 39.5 33l34.5 35
c4.66699 5.33301 10 10.833 16 16.5s11.5 11.334 16.5 17.001s9.16699 10.667 12.5 15s5 8.16602 5 11.499zM226 272.005c0 -8.66699 -5.5 -16.501 -16.5 -23.501s-23.833 -13 -38.5 -18s-29.667 -9.16699 -45 -12.5s-27.333 -5.66602 -36 -6.99902c6 8 12.333 17 19 27
s14 19.333 22 28s17 16 27 22s22 9 36 9c9.33301 0 17 -1.83301 23 -5.5s9 -10.167 9 -19.5z" />
    <glyph glyph-name="afii10072" unicode="&#x436;" horiz-adv-x="675" 
d="M691 169c0 3.33301 -0.500977 5.83594 -1.50098 7.50293s-4.16699 2.5 -9.5 2.5c-1.33301 0 -4.33301 -2.33301 -9 -7s-10.334 -10.834 -17.001 -18.501l-22.5 -25.5l-25.5 -28c-16.667 -18.667 -33.667 -34.667 -51 -48s-36 -20 -56 -20c-16 0 -30.5 4.66699 -43.5 14
s-19.5 26 -19.5 50c0 20.667 4.83301 42.834 14.5 66.501s21.834 45.5 36.501 65.5s30 36.667 46 50s30.667 20 44 20c6.66699 0 11.667 -0.833008 15 -2.5s5.83301 -3.83398 7.5 -6.50098s2.83398 -5.66699 3.50098 -9s1.66699 -6.33301 3 -9
c3.33301 -10.667 7.66602 -16 12.999 -16s9.16602 1.66699 11.499 5s3.5 7 3.5 11c0 18 -6 31.667 -18 41s-23 14 -33 14c-14 0 -27.5 -3.16699 -40.5 -9.5s-25.5 -14.666 -37.5 -24.999s-23.5 -22 -34.5 -35s-21.167 -26.167 -30.5 -39.5l-29 -33l-35 -39l-34.5 -39
l-28.5 -32c7.33301 16 13.666 31.167 18.999 45.5l19 49.5l17.5 45.5l17.5 46.5l13.5 37.5c3.66699 10.333 5.5 16.166 5.5 17.499s-0.666992 3.33301 -2 6s-3.66602 4 -6.99902 4c-6 0 -10.333 -1.83301 -13 -5.5s-6.66699 -8.16699 -12 -13.5l-30.5 -34l-38.5 -43.5
l-40 -44.5c-13.333 -14.667 -25.333 -27.334 -36 -38.001c13.333 28.667 20 58.667 20 90c0 10.667 -1.5 21.334 -4.5 32.001s-7.66699 20.167 -14 28.5s-15 15.166 -26 20.499s-24.5 8 -40.5 8c-11.333 0 -25.666 -7 -42.999 -21s-34 -29 -50 -45
c-21.333 -22 -39.333 -42.667 -54 -62s-22 -31.666 -22 -36.999c0 -3.33301 1.16699 -6.5 3.5 -9.5s5.5 -4.5 9.5 -4.5c2 0 5.33301 2.66699 10 8s10.334 12.166 17.001 20.499l22.5 28c8.33301 10.333 17.166 20.5 26.499 30.5c17.333 17.333 34.166 32.333 50.499 45
s29.833 19 40.5 19c8 0 14.833 -2.33301 20.5 -7s10.167 -10.334 13.5 -17.001s5.83301 -13.667 7.5 -21s2.5 -13.666 2.5 -18.999c0 -11.333 -3.5 -28.5 -10.5 -51.5s-16.5 -46 -28.5 -69s-26.333 -43.167 -43 -60.5s-34.334 -26 -53.001 -26
c-6.66699 0 -13.5 3.33301 -20.5 10s-11.5 13.667 -13.5 21c-2 8.66699 -4.33301 13.5 -7 14.5s-5.33398 1.5 -8.00098 1.5c-4.66699 0 -7.66699 -2.66699 -9 -8s-2 -9.66602 -2 -12.999c0 -4 1.16699 -9.16699 3.5 -15.5s5.83301 -12.5 10.5 -18.5s10.834 -11 18.501 -15
s16.834 -6 27.501 -6c22.667 0 43 7.16699 61 21.5s36 34.166 54 59.499l81 86l69 69l-15 -37.5l-19 -46.5l-20.5 -47.5c-7 -15.667 -13.833 -29.5 -20.5 -41.5c-8 -14.667 -13.5 -25.334 -16.5 -32.001s-4.5 -11.334 -4.5 -14.001c0 -6 2 -10.333 6 -13s7.66699 -4 11 -4
s8 1.66699 14 5s10.667 7.33301 14 12c6 8 15 19 27 33l37 42l35 37.5c10.667 11 17.334 17.5 20.001 19.5c-3.33301 -7.33301 -5.66602 -16.666 -6.99902 -27.999s-2 -21 -2 -29c0 -9.33301 1.33301 -19.166 4 -29.499s7.5 -19.833 14.5 -28.5s16.5 -15.834 28.5 -21.501
s27.667 -8.5 47 -8.5c24.667 0 46.334 7.16699 65.001 21.5s37 31.166 55 50.499c19.333 21.333 36.166 40.833 50.499 58.5s21.5 29.834 21.5 36.501z" />
    <glyph glyph-name="afii10073" unicode="&#x437;" horiz-adv-x="295" 
d="M305 159c0 7.33301 -3.32812 10.998 -9.99512 10.998s-23.667 -13.667 -51 -41c-6 -6.66699 -14 -14.167 -24 -22.5l-31 -25l-31 -24.5c-10 -8 -18.333 -15 -25 -21c0 10.667 -0.333008 20.5 -1 29.5s-5.66699 15.167 -15 18.5c7.33301 4.66699 15.333 10.5 24 17.5
l33 27.5c21.333 19.333 40.666 40.666 57.999 63.999s26.666 49.666 27.999 78.999c0.666992 22.667 -3.16602 37.5 -11.499 44.5s-19.833 10.5 -34.5 10.5c-28 0 -54.667 -7.66699 -80 -23s-47 -32.666 -65 -51.999l-55 -60c-14.667 -16.667 -22 -27.667 -22 -33
c0 -3.33301 0.666992 -6.66602 2 -9.99902s3.66602 -5 6.99902 -5c1.33301 0 4.83301 3 10.5 9l20 22l24 28c8.33301 10 16.166 19 23.499 27c6 6.66699 13.833 14 23.5 22s20.167 15.5 31.5 22.5s23 12.833 35 17.5s23.667 7 35 7c4.66699 0 10.334 -1.33301 17.001 -4
s10 -8.33398 10 -17.001c0 -13.333 -2.33301 -26.333 -7 -39s-10.834 -24.667 -18.501 -36s-15.834 -21.666 -24.501 -30.999s-17 -17.333 -25 -24c-12 -10 -24.333 -19.667 -37 -29l-34.5 -25l-25.5 -18c-6.66699 -4.66699 -10 -8 -10 -10
c0 -3.33301 0.166992 -6.83301 0.5 -10.5s2.16602 -5.5 5.49902 -5.5c7.33301 0 14.333 2 21 6s12.334 6 17.001 6c7.33301 0 11.5 -4.66699 12.5 -14s1.5 -19.666 1.5 -30.999l-29 -25l-42.5 -37c-15.667 -14 -31.667 -29.167 -48 -45.5s-31.166 -32.666 -44.499 -48.999
s-24.333 -32.333 -33 -48s-13 -29.834 -13 -42.501c0 -15.333 4 -27.5 12 -36.5s18.333 -13.5 31 -13.5c20 0 36.167 4 48.5 12s22.5 18 30.5 30s14.667 25.167 20 39.5s10.666 27.5 15.999 39.5l13.5 29l21 43.5l21 44.5c6.33301 14 10.833 24.333 13.5 31l82 70.5
c26 21.667 47 40.167 63 55.5c9.33301 8.66699 17.666 16.834 24.999 24.501s11 14.167 11 19.5zM83.0049 -38.002l-34 -71.998l-37 -80c-10 -22.667 -21 -38.334 -33 -47.001s-22 -13 -30 -13c-6 0 -10.833 2.83301 -14.5 8.5s-5.5 12.167 -5.5 19.5
c0 8 4.33301 19.167 13 33.5s20.334 30 35.001 47s31.167 34.667 49.5 53s37.166 35.166 56.499 50.499z" />
    <glyph glyph-name="afii10074" unicode="&#x438;" horiz-adv-x="395" 
d="M413 170c0 4.66699 -1.00098 7.33105 -3.00098 7.99805s-4.33301 1 -7 1s-7.66699 -3.66699 -15 -11l-26.5 -27l-34 -35.5c-12.333 -13 -24.333 -24.833 -36 -35.5s-22.334 -19.667 -32.001 -27s-17.5 -11 -23.5 -11c-9.33301 0 -14 2 -14 6v14
c0 5.33301 2.5 15.333 7.5 30s11.167 31.167 18.5 49.5s15.5 37.666 24.5 57.999l24.5 56.5l18.5 44c5 12 7.5 19 7.5 21c0 4 -1.16699 7.5 -3.5 10.5s-5.5 4.5 -9.5 4.5c-3.33301 0 -7.66602 -4.16699 -12.999 -12.5s-11 -18.666 -17 -30.999l-19.5 -40l-19.5 -40.5
l-53 -59.5l-51 -56c-16 -17 -30.333 -31 -43 -42s-22 -16.5 -28 -16.5c-7.33301 0 -12.333 2.66699 -15 8s-4 10.666 -4 15.999c0 2.66699 1.33301 7.83398 4 15.501l10 28.5l14 38l16 42l18 47.5l16.5 42l12.5 30l5 11.5c0 12.667 -3.33301 19 -10 19
c-2 0 -5.66699 -3 -11 -9l-20 -23l-26 -30.5c-9.33301 -11 -19 -21.833 -29 -32.5l-41.5 -47c-12.333 -14 -18.5 -23.667 -18.5 -29c0 -3.33301 1.5 -6.16602 4.5 -8.49902s5.5 -3.5 7.5 -3.5s5.83301 2.5 11.5 7.5s12.334 11.5 20.001 19.5l24.5 26.5l25 27.5l-18.5 -43.5
c-7 -16.333 -13.5 -32.833 -19.5 -49.5s-11.167 -32.834 -15.5 -48.501s-6.5 -29.5 -6.5 -41.5c0 -13.333 4.33301 -23.666 13 -30.999s19.667 -11 33 -11c10.667 0 22.834 5.16699 36.501 15.5s27.167 22.5 40.5 36.5s26.166 28.333 38.499 43s22.5 26.334 30.5 35.001
c-1.33301 -4 -3 -9.66699 -5 -17s-4.33301 -15 -7 -23s-4.83398 -16 -6.50098 -24s-2.5 -14.667 -2.5 -20c0 -12 2.33301 -22.667 7 -32s15.334 -14 32.001 -14c10 0 22.5 5.33301 37.5 16s30.5 23.5 46.5 38.5s31.333 30.333 46 46l36 38.5c11.333 11.333 17 22 17 32z" />
    <glyph glyph-name="afii10075" unicode="&#x439;" horiz-adv-x="396" 
d="M318 440c0 3.33301 -0.499023 6.16797 -1.49902 8.50098s-3.16699 3.5 -6.5 3.5s-7.83301 -2.83301 -13.5 -8.5l-16.5 -16.5c-5.33301 -3.33301 -10.833 -6.5 -16.5 -9.5s-12.167 -4.5 -19.5 -4.5c-19.333 0 -31 6 -35 18c-2.66699 8 -5.16699 13.5 -7.5 16.5
s-4.5 4.5 -6.5 4.5c-3.33301 0 -6.33301 -2 -9 -6s-4 -7.33301 -4 -10c0 -14 4.16699 -26.167 12.5 -36.5s22.166 -15.5 41.499 -15.5c10.667 0 21.167 2 31.5 6s19.5 9.33301 27.5 16c6 5.33301 11.333 11.166 16 17.499s7 11.833 7 16.5zM413.001 170.002
c0 4.66699 -1.00098 7.33105 -3.00098 7.99805s-4.33301 1 -7 1s-7.66699 -3.66699 -15 -11l-26.5 -27l-34 -35.5c-12.333 -13 -24.333 -24.833 -36 -35.5s-22.334 -19.667 -32.001 -27s-17.5 -11 -23.5 -11c-9.33301 0 -14 2 -14 6v14c0 5.33301 2.5 15.333 7.5 30
s11.167 31.167 18.5 49.5s15.5 37.666 24.5 57.999l24.5 56.5l18.5 44c5 12 7.5 19 7.5 21c0 4 -1.16699 7.5 -3.5 10.5s-5.5 4.5 -9.5 4.5c-3.33301 0 -7.66602 -4.16699 -12.999 -12.5s-11 -18.666 -17 -30.999l-19.5 -40l-19.5 -40.5l-53 -59.5l-51 -56
c-16 -17 -30.333 -31 -43 -42s-22 -16.5 -28 -16.5c-7.33301 0 -12.333 2.66699 -15 8s-4 10.666 -4 15.999c0 2.66699 1.33301 7.83398 4 15.501l10 28.5l14 38l16 42l18 47.5l16.5 42l12.5 30l5 11.5c0 12.667 -3.33301 19 -10 19c-2 0 -5.66699 -3 -11 -9l-20 -23
l-26 -30.5c-9.33301 -11 -19 -21.833 -29 -32.5l-41.5 -47c-12.333 -14 -18.5 -23.667 -18.5 -29c0 -3.33301 1.5 -6.16602 4.5 -8.49902s5.5 -3.5 7.5 -3.5s5.83301 2.5 11.5 7.5s12.334 11.5 20.001 19.5l24.5 26.5l25 27.5l-18.5 -43.5
c-7 -16.333 -13.5 -32.833 -19.5 -49.5s-11.167 -32.834 -15.5 -48.501s-6.5 -29.5 -6.5 -41.5c0 -13.333 4.33301 -23.666 13 -30.999s19.667 -11 33 -11c10.667 0 22.834 5.16699 36.501 15.5s27.167 22.5 40.5 36.5s26.166 28.333 38.499 43s22.5 26.334 30.5 35.001
c-1.33301 -4 -3 -9.66699 -5 -17s-4.33301 -15 -7 -23s-4.83398 -16 -6.50098 -24s-2.5 -14.667 -2.5 -20c0 -12 2.33301 -22.667 7 -32s15.334 -14 32.001 -14c10 0 22.5 5.33301 37.5 16s30.5 23.5 46.5 38.5s31.333 30.333 46 46l36 38.5c11.333 11.333 17 22 17 32z" />
    <glyph glyph-name="afii10076" unicode="&#x43a;" horiz-adv-x="390" 
d="M408 164c0 5.33301 -1.82812 8.83398 -5.49512 10.501s-7.16699 2.5 -10.5 2.5c-2 0 -6.33301 -3.66699 -13 -11l-25 -27.5l-32.5 -36c-11.667 -13 -23 -25 -34 -36s-21.167 -20.167 -30.5 -27.5s-16.666 -11 -21.999 -11c-9.33301 0 -15.666 2.16699 -18.999 6.5
s-5 9.83301 -5 16.5c0 5.33301 1.66699 12.666 5 21.999s7.16602 19.333 11.499 30s8.16602 21.834 11.499 33.501s5 22.5 5 32.5c0 14 -5.5 24 -16.5 30s-22.167 9.66699 -33.5 11c-8.66699 0.666992 -18.834 -0.333008 -30.501 -3s-21.5 -5.66699 -29.5 -9
c6.66699 10.667 15.667 21.834 27 33.501s23.166 22.5 35.499 32.5s24 18.167 35 24.5s19.167 9.5 24.5 9.5c6 0 10 -3 12 -9s3.5 -12.5 4.5 -19.5s2 -13.5 3 -19.5s3.5 -9 7.5 -9c7.33301 0 11.5 4 12.5 12s1.5 15.667 1.5 23c0 12 -2.83301 23.333 -8.5 34
s-15.167 16 -28.5 16c-12.667 0 -25.667 -3.66699 -39 -11s-26 -15.833 -38 -25.5s-22.833 -19.5 -32.5 -29.5l-23.5 -24c5.33301 12 10.5 25.833 15.5 41.5s7.5 26.5 7.5 32.5c0 4 -0.666992 7.66699 -2 11s-4.66602 5 -9.99902 5c-2 0 -7 -4.33301 -15 -13l-28 -31
l-32.5 -37l-27.5 -31l-25 -27c-6 -6.66699 -10.333 -12.167 -13 -16.5s-4.16699 -7.83301 -4.5 -10.5s-0.5 -5.33398 -0.5 -8.00098c0 -6.66699 4 -10 12 -10c2 0 5.5 2.5 10.5 7.5s10.5 11 16.5 18l19.5 23l19.5 23.5l25 27.5l13 14.5l-15.5 -36l-21 -48l-23.5 -52.5
l-22 -48.5c-6.66699 -14.667 -12 -27 -16 -37s-6 -16 -6 -18v-11c0 -3.33301 3.33301 -5 10 -5c3.33301 0 7.16602 2.83301 11.499 8.5s8.83301 13.167 13.5 22.5l15 31.5l16 35.5c4 8.66699 9.66699 18 17 28s15.666 19.167 24.999 27.5s19.5 15.166 30.5 20.499
s22.167 8 33.5 8c7.33301 0 15 -1.33301 23 -4s12 -8.66699 12 -18c0 -8.66699 -1.5 -17.5 -4.5 -26.5s-6.16699 -18 -9.5 -27s-6.5 -18.167 -9.5 -27.5s-4.5 -18.666 -4.5 -27.999c0 -14 3.83301 -26 11.5 -36s19.167 -15 34.5 -15c10 0 20.167 2.83301 30.5 8.5
s20.666 13.167 30.999 22.5s20.666 19.833 30.999 31.5l31.5 35.5c12 13.333 24.167 26.166 36.5 38.499s18.5 21.5 18.5 27.5z" />
    <glyph glyph-name="afii10077" unicode="&#x43b;" horiz-adv-x="393" 
d="M406 163c0 7.33301 -4.33203 10.999 -12.999 10.999c-3.33301 0 -10.333 -5.66699 -21 -17l-38 -42l-28.5 -29.5c-9.66699 -9.66699 -19.167 -18.334 -28.5 -26.001s-17.833 -14 -25.5 -19s-13.834 -7.5 -18.501 -7.5c-4 0 -6.83301 1.66699 -8.5 5s-2.5 7 -2.5 11
c0 6 2.83301 19 8.5 39s13.167 41.667 22.5 65c6.66699 17.333 13.834 35 21.501 53l21 49c6.33301 14.667 11.5 27.167 15.5 37.5s6 16.833 6 19.5s-1.5 5.83398 -4.5 9.50098s-6.16699 5.5 -9.5 5.5c-8 0 -13.667 -3 -17 -9s-8 -12.333 -14 -19
c-8 -8.66699 -18.333 -21.167 -31 -37.5l-42 -54l-49.5 -60.5c-17.667 -20.667 -34.834 -39.5 -51.501 -56.5s-32.834 -30.833 -48.501 -41.5s-29.167 -16 -40.5 -16c-3.33301 0 -7 1.5 -11 4.5s-7.66699 6.5 -11 10.5s-6 8 -8 12s-3 7 -3 9c0 13.333 3 26.5 9 39.5
s12.667 23.5 20 31.5c3.33301 3.33301 5.83301 6.83301 7.5 10.5s1.83398 7.83398 0.500977 12.501c-3.33301 7.33301 -7.33301 11 -12 11c-2.66699 0 -7.16699 -3.16699 -13.5 -9.5s-12.666 -14.166 -18.999 -23.499s-12 -19.833 -17 -31.5s-7.5 -22.834 -7.5 -33.501
c0 -18 5 -34.833 15 -50.5s25.333 -23.5 46 -23.5c18.667 0 39.167 8.66699 61.5 26s44.666 37.833 66.999 61.5s43.5 47.667 63.5 72s36.667 43.166 50 56.499c-5.33301 -11.333 -11.333 -24.833 -18 -40.5s-13 -31.667 -19 -48s-11 -32.333 -15 -48s-6 -28.5 -6 -38.5
c0 -11.333 2.33301 -21.666 7 -30.999s13.334 -14 26.001 -14c9.33301 0 20.833 4.33301 34.5 13s27.167 19 40.5 31s25.833 24 37.5 36l26.5 27c13.333 14 24.166 25.833 32.499 35.5s12.5 17.167 12.5 22.5z" />
    <glyph glyph-name="afii10078" unicode="&#x43c;" horiz-adv-x="573" 
d="M586 163c0 5.33301 -1.16895 8.50098 -3.50195 9.50098s-5.16602 1.5 -8.49902 1.5c-5.33301 0 -12.666 -5.33301 -21.999 -16l-39 -43l-29 -31.5c-9.33301 -10.333 -18.166 -19.5 -26.499 -27.5s-15.833 -14.333 -22.5 -19s-12 -7 -16 -7
c-5.33301 0 -9.66602 3.66699 -12.999 11s-4.66602 13.666 -3.99902 18.999c0.666992 7.33301 3.5 18.166 8.5 32.499s11.167 30.166 18.5 47.499s15.333 35.333 24 54l23.5 52.5c7 16.333 12.833 30.5 17.5 42.5s7 19.667 7 23c0 2.66699 -0.5 5.83398 -1.5 9.50098
s-3.5 5.5 -7.5 5.5c-2.66699 0 -6.5 -3.33301 -11.5 -10s-10.667 -15.334 -17 -26.001l-21 -36.5l-23.5 -41.5c-16 -22.667 -32.5 -42.834 -49.5 -60.501l-35.5 -37.5l-28.5 -29.5c-9.66699 -9.66699 -19.167 -18.334 -28.5 -26.001s-17.833 -14 -25.5 -19
s-13.834 -7.5 -18.501 -7.5c-4 0 -6.83301 1.66699 -8.5 5s-2.5 7 -2.5 11c0 6 2.83301 19 8.5 39s13.167 41.667 22.5 65c6.66699 17.333 13.834 35 21.501 53l21 49c6.33301 14.667 11.5 27.167 15.5 37.5s6 16.833 6 19.5s-1.5 5.83398 -4.5 9.50098
s-6.16699 5.5 -9.5 5.5c-8 0 -13.667 -3 -17 -9s-8 -12.333 -14 -19c-8 -8.66699 -18.333 -21.167 -31 -37.5l-42 -54l-49.5 -60.5c-17.667 -20.667 -34.834 -39.5 -51.501 -56.5s-32.834 -30.833 -48.501 -41.5s-29.167 -16 -40.5 -16c-3.33301 0 -7 1.5 -11 4.5
s-7.66699 6.5 -11 10.5s-6 8 -8 12s-3 7 -3 9c0 13.333 3 26.5 9 39.5s12.667 23.5 20 31.5c3.33301 3.33301 5.83301 6.83301 7.5 10.5s1.83398 7.83398 0.500977 12.501c-3.33301 7.33301 -7.33301 11 -12 11c-2.66699 0 -7.16699 -3.16699 -13.5 -9.5
s-12.666 -14.166 -18.999 -23.499s-12 -19.833 -17 -31.5s-7.5 -22.834 -7.5 -33.501c0 -18 5 -34.833 15 -50.5s25.333 -23.5 46 -23.5c18.667 0 39.167 8.66699 61.5 26s44.666 37.833 66.999 61.5s43.5 47.667 63.5 72s36.667 43.166 50 56.499
c-5.33301 -11.333 -11.333 -24.833 -18 -40.5s-13 -31.667 -19 -48s-11 -32.333 -15 -48s-6 -28.5 -6 -38.5c0 -11.333 2.33301 -21.666 7 -30.999s13.334 -14 26.001 -14c9.33301 0 22.333 5.83301 39 17.5s33.667 25.334 51 41.001s33.666 31.334 48.999 47.001
s26.666 27.834 33.999 36.501c-1.33301 -4 -3.33301 -9.66699 -6 -17s-5.33398 -15.333 -8.00098 -24s-5 -17.5 -7 -26.5s-3 -16.833 -3 -23.5c0 -10.667 4 -21.834 12 -33.501s17.667 -17.5 29 -17.5c8 0 16.833 3 26.5 9s19.667 13.667 30 23s21 19.833 32 31.5l32.5 34.5
c14.667 15.333 27.167 29 37.5 41s15.5 20.667 15.5 26z" />
    <glyph glyph-name="afii10079" unicode="&#x43d;" horiz-adv-x="389" 
d="M399 160c0 5.33301 -0.666016 9.16992 -1.99902 11.5029s-4.66602 3.5 -9.99902 3.5c-1.33301 0 -4.33301 -2.33301 -9 -7s-10.667 -11 -18 -19l-24.5 -27l-27.5 -31c-13.333 -15.333 -26.666 -28.333 -39.999 -39s-23.666 -16 -30.999 -16s-11.833 2.33301 -13.5 7
s-2.5 9 -2.5 13c0 4.66699 3.16699 16.667 9.5 36s14.166 39.666 23.499 60.999l25 54.5l24 50.5c7.33301 15.333 13.333 28.5 18 39.5s7 17.833 7 20.5c0 8 -3.66699 12 -11 12c-5.33301 0 -10.5 -3.16699 -15.5 -9.5s-10 -14.333 -15 -24s-9.83301 -20.167 -14.5 -31.5
l-13 -31c-18.667 -18.667 -35.834 -33.334 -51.501 -44.001s-29.834 -18.834 -42.501 -24.501s-23.834 -9.16699 -33.501 -10.5s-18.167 -2 -25.5 -2h-10c-2 0 -5.66699 0.333008 -11 1c0 2 3 10 9 24l19.5 47.5c7 17.667 13.5 35.334 19.5 53.001s9 30.834 9 39.501
c0 3.33301 -1.5 5.33301 -4.5 6s-5.5 2.66699 -7.5 6l-10.5 -12.5l-26.5 -31.5l-34.5 -40.5l-34.5 -40.5c-10.667 -13.333 -19.334 -23.833 -26.001 -31.5s-10 -12.167 -10 -13.5v-13c0 -5.33301 2.66699 -8 8 -8c4.66699 0 9.5 3.16699 14.5 9.5s12.5 15.166 22.5 26.499
c-2.66699 -8.66699 -2.33398 -17.334 0.999023 -26.001s8 -14 14 -16c-2 -2.66699 -5.83301 -9.66699 -11.5 -21l-17.5 -36.5c-6 -13 -11.333 -25.167 -16 -36.5s-7 -18 -7 -20c0 -9.33301 4.33301 -15 13 -17c6 -1.33301 11.167 3 15.5 13l16.5 37c6 14 11.667 28 17 42
s10 24 14 30c8.66699 0 19.667 0.5 33 1.5s27.5 3.16699 42.5 6.5s30 8.5 45 15.5s28.167 16.167 39.5 27.5l-5.5 -11l-10.5 -22c-7.33301 -18 -13.166 -36.333 -17.499 -55s-6.5 -33.667 -6.5 -45s4 -20.833 12 -28.5s16 -11.5 24 -11.5s16.333 2.16699 25 6.5
s17.334 10 26.001 17s17.167 14.667 25.5 23l23.5 24.5c21.333 21.333 38.5 40.5 51.5 57.5s19.5 26.833 19.5 29.5zM76.001 216.004c-2 -5.33301 -4.83301 -11.333 -8.5 -18s-6.5 -13 -8.5 -19c-2 2 -3.83301 4 -5.5 6s-3.5 3 -5.5 3l14 14.5
c4 4.33301 8.66699 8.83301 14 13.5z" />
    <glyph glyph-name="afii10080" unicode="&#x43e;" horiz-adv-x="326" 
d="M342 163c0 9.33301 -4.99707 13.9941 -14.9971 13.9941c-1.33301 0 -6.5 -5 -15.5 -15s-19.167 -20.667 -30.5 -32c-11.333 -12 -22.333 -22.667 -33 -32s-21.667 -17.666 -33 -24.999c4 6.66699 9.16699 16.5 15.5 29.5s12.5 27.333 18.5 43s11.167 31.834 15.5 48.501
s6.5 32 6.5 46c0 12 -0.833008 23.333 -2.5 34s-5.16699 19.834 -10.5 27.501s-12.666 13.834 -21.999 18.501s-22 7 -38 7c-19.333 0 -36 -3.16699 -50 -9.5s-27 -14.666 -39 -24.999s-23.5 -22 -34.5 -35s-23.5 -26.5 -37.5 -40.5
c-5.33301 -5.33301 -10.833 -11.166 -16.5 -17.499l-16 -17.5c-5 -5.33301 -9 -10.166 -12 -14.499s-4.5 -6.83301 -4.5 -7.5c0 -13.333 4 -20 12 -20c5.33301 0 12.666 5.66699 21.999 17s25.666 28.666 48.999 51.999c-2.66699 -5.33301 -5.83398 -13 -9.50098 -23
l-11 -31.5c-3.66699 -11 -6.83398 -21.5 -9.50098 -31.5s-4 -17.667 -4 -23c0 -6.66699 0.333008 -15.667 1 -27s3 -22.333 7 -33s10.333 -20 19 -28s21 -12 37 -12c21.333 0 41.833 3.66699 61.5 11s37.834 16.5 54.501 27.5s32 23 46 36s26.333 25.167 37 36.5
c15.333 15.333 26.166 27.333 32.499 36s9.5 14 9.5 16zM243.003 246.994c0 -50.667 -18.998 -105.334 -56.998 -164.001c-14 -22 -27.833 -36.333 -41.5 -43s-27.5 -10 -41.5 -10c-14.667 0 -25 5.83301 -31 17.5s-9 27.167 -9 46.5c0 4 1 10.333 3 19
s4.66699 18.834 8 30.501s7.66602 24 12.999 37s11.666 25.833 18.999 38.5c12 22 26.167 41 42.5 57s34.5 24 54.5 24c16.667 0 27.5 -3.83301 32.5 -11.5s7.5 -21.5 7.5 -41.5z" />
    <glyph glyph-name="afii10081" unicode="&#x43f;" horiz-adv-x="411" 
d="M424 160c2 8 -0.660156 12.0029 -7.99316 12.0029c-4 0 -8.66699 -2.5 -14 -7.5s-11.333 -11.167 -18 -18.5s-13.667 -15.5 -21 -24.5s-15 -17.5 -23 -25.5l-21.5 -21.5c-7.66699 -7.66699 -15.334 -14.667 -23.001 -21s-15.334 -11.666 -23.001 -15.999
s-14.834 -6.5 -21.501 -6.5c-9.33301 0 -15.333 3.16699 -18 9.5s-4 12.166 -4 17.499c0 16 4.33301 34.333 13 55s18.334 41.667 29.001 63c9.33301 19.333 18 39.166 26 59.499s12 36.166 12 47.499c0 10 -3.5 20 -10.5 30s-16.167 15 -27.5 15
c-10 0 -21.333 -3.5 -34 -10.5s-25.667 -15.833 -39 -26.5s-26.5 -22.167 -39.5 -34.5l-35.5 -34.5l19.5 51.5c5.66699 14.333 8.5 26.833 8.5 37.5v12c0 3.33301 -2.33301 5 -7 5c-1.33301 0 -4.5 -2.33301 -9.5 -7s-11.167 -11 -18.5 -19l-24 -26.5l-27 -29.5l-27 -29.5
l-23.5 -26c-7 -7.66699 -12.667 -14.167 -17 -19.5s-6.5 -9 -6.5 -11c0 -3.33301 0.666992 -7 2 -11s3.66602 -6 6.99902 -6c5.33301 0 13.666 6.33301 24.999 19l40 45l20.5 20l20.5 19c-2.66699 -5.33301 -7 -14.666 -13 -27.999l-20.5 -45l-24.5 -52.5l-23.5 -51
l-17.5 -40.5c-4.66699 -11.333 -7 -18 -7 -20c0 -2.66699 1.16699 -4.66699 3.5 -6s5.16602 -2.33301 8.49902 -3c5.33301 -1.33301 9.5 0 12.5 4s5.5 8.66699 7.5 14c5.33301 11.333 12.833 28.166 22.5 50.499s23.167 47.166 40.5 74.499c8 13.333 18 27 30 41
s23.667 26.667 35 38c20.667 21.333 40.167 39 58.5 53s32.5 21 42.5 21c6.66699 0 11.167 -2.16699 13.5 -6.5s3.5 -8.83301 3.5 -13.5c0 -9.33301 -3.5 -21.666 -10.5 -36.999s-15.167 -32.333 -24.5 -51c-10.667 -22.667 -20.5 -45.834 -29.5 -69.501
s-13.5 -45.167 -13.5 -64.5c0 -12 3.5 -24 10.5 -36s16.167 -18 27.5 -18c14 0 27 2.66699 39 8s23 12 33 20s19 16.333 27 25l22 24c23.333 24.667 39.666 43.5 48.999 56.5s14.666 21.833 15.999 26.5z" />
    <glyph glyph-name="afii10082" unicode="&#x440;" horiz-adv-x="410" 
d="M426 163c0.666992 4.66699 -0.666016 8.49805 -3.99902 11.498s-6.66602 4.5 -9.99902 4.5c-2 0 -4.83301 -1.66699 -8.5 -5s-7.83398 -7.5 -12.501 -12.5s-9.33398 -10.5 -14.001 -16.5s-9.33398 -11.333 -14.001 -16l-25.5 -27.5c-10.333 -11 -21 -21.667 -32 -32
s-22 -19.166 -33 -26.499s-20.833 -11 -29.5 -11c-9.33301 0 -15.666 1.5 -18.999 4.5s-5 8.83301 -5 17.5c0 9.33301 4.16699 25 12.5 47s17.833 45 28.5 69l26.5 66c8.33301 21.333 12.5 38 12.5 50s-3.5 22 -10.5 30s-17.167 12 -30.5 12
c-12.667 0 -25.334 -3.5 -38.001 -10.5s-23.667 -14.167 -33 -21.5c-14.667 -11.333 -26.667 -22.833 -36 -34.5s-17.666 -21.5 -24.999 -29.5c3.33301 17.333 7.16602 32 11.499 44s6.5 23.333 6.5 34s-3.66699 16 -11 16c-4 0 -8.16699 -2.16699 -12.5 -6.5
s-8.66602 -9.66602 -12.999 -15.999l-14 -20.5c-5 -7.33301 -10.167 -14 -15.5 -20c-2 -2.66699 -2.16699 -3.16699 -0.5 -1.5s2.66699 2.83398 3 3.50098s-1 -0.666016 -4 -3.99902l-21.5 -24l-19.5 -20.5l-22 -24c-7 -7.66699 -13 -14.667 -18 -21
s-7.5 -10.166 -7.5 -11.499c0 -13.333 4 -20 12 -20c2.66699 0 8.16699 4.16699 16.5 12.5s17.833 18.333 28.5 30l32 36.5l27 32c-2.66699 -4.66699 -8.83398 -18 -18.501 -40l-36 -79l-46.5 -101.5l-49 -108l-44 -97l-31.5 -70.5
c-7.66699 -17.333 -11.834 -26.333 -12.501 -27v-22h35c-1.33301 11.333 8.16699 41.666 28.5 90.999l93.5 217c26.667 60.667 56 112.667 88 156s60 75 84 95c12.667 11.333 22.834 18.5 30.501 21.5s14.167 4.5 19.5 4.5c12.667 0 19 -6.66699 19 -20
c0 -6.66699 -3.16699 -18.834 -9.5 -36.501s-13.833 -36.834 -22.5 -57.501l-28.5 -73.5c-9 -24.333 -13.5 -45.5 -13.5 -63.5c0 -3.33301 1.16699 -7.33301 3.5 -12s5.5 -9 9.5 -13s8.5 -7.33301 13.5 -10s10.167 -4 15.5 -4c10.667 0 22.5 3.16699 35.5 9.5
s25.667 14.333 38 24s24.333 20.167 36 31.5s21.834 22 30.501 32l34.5 37.5c11.667 13 18.167 22.167 19.5 27.5z" />
    <glyph glyph-name="afii10083" unicode="&#x441;" horiz-adv-x="298" 
d="M312 159c0 4.66699 -1 9.16016 -3 13.4932s-5 6.5 -9 6.5s-11 -5.83301 -21 -17.5s-23.333 -26.167 -40 -43.5c-23.333 -23.333 -45.333 -43.666 -66 -60.999s-40 -26 -58 -26c-12.667 0 -22.667 1.66699 -30 5s-12.833 8 -16.5 14s-6 13 -7 21s-1.5 16.333 -1.5 25
c0 34 6.66699 65.167 20 93.5s29 51.5 47 69.5c15.333 14.667 30.5 25.334 45.5 32.001s26.5 10 34.5 10c7.33301 0 13.5 -3.16699 18.5 -9.5s8.83301 -13.166 11.5 -20.499c3.33301 -7.33301 6 -13.5 8 -18.5s5.66699 -7.5 11 -7.5c7.33301 0 11 3 11 9v17
c0 5.33301 -1.66699 11.333 -5 18s-7.83301 12.834 -13.5 18.501s-12 10.334 -19 14.001s-13.833 5.5 -20.5 5.5c-14 0 -29.5 -4.16699 -46.5 -12.5s-34.5 -19.5 -52.5 -33.5s-36 -29.667 -54 -47s-35 -35 -51 -53c-3.33301 -3.33301 -7 -7.33301 -11 -12s-6 -7.66699 -6 -9
c0 -13.333 4 -20 12 -20c2.66699 0 7 2.83301 13 8.5s12.667 12.834 20 21.501c4.66699 2.66699 8 5.66699 10 9c-2 -5.33301 -3.83301 -13 -5.5 -23s-3 -20.167 -4 -30.5s-1.66699 -19.833 -2 -28.5s-0.5 -15 -0.5 -19c0 -22 5.83301 -40.5 17.5 -55.5
s29.167 -22.5 52.5 -22.5c16.667 0 32.5 3.5 47.5 10.5s29.5 15.667 43.5 26s27.5 22 40.5 35l38.5 37.5c12 11.333 21.833 21.333 29.5 30s11.5 15.334 11.5 20.001z" />
    <glyph glyph-name="afii10084" unicode="&#x442;" horiz-adv-x="572" 
d="M585 164c0 6 -0.99707 9.16699 -2.99707 9.5s-5 0.5 -9 0.5c-2 0 -8.33301 -5 -19 -15s-22.667 -22.333 -36 -37c-9.33301 -10.667 -19.166 -21.334 -29.499 -32.001l-29 -29c-9 -8.66699 -17.333 -15.667 -25 -21s-13.5 -8 -17.5 -8c-6.66699 0 -13 1.5 -19 4.5
s-9 10.833 -9 23.5c0 11.333 4 26.5 12 45.5l26 60.5c9.33301 21.333 18 43 26 65s12 42 12 60c0 10 -4 18.5 -12 25.5s-16.667 10.5 -26 10.5c-10.667 0 -22.334 -2.83301 -35.001 -8.5s-25 -12.5 -37 -20.5s-23 -16.333 -33 -25s-18 -16 -24 -22
c0.666992 3.33301 1.83398 8.83301 3.50098 16.5s2.5 14.834 2.5 21.501c0 7.33301 -4.5 15.5 -13.5 24.5s-20.167 13.5 -33.5 13.5c-10 0 -20.833 -2.83301 -32.5 -8.5s-23.334 -12.834 -35.001 -21.501s-22.667 -18.167 -33 -28.5s-19.5 -20.166 -27.5 -29.499
c6 13.333 11.167 26 15.5 38s6.5 23.333 6.5 34v12c0 3.33301 -2.33301 5 -7 5c-1.33301 0 -4.5 -2.33301 -9.5 -7s-11.167 -11 -18.5 -19l-24 -26.5l-27 -29.5l-27 -29.5l-23.5 -26c-7 -7.66699 -12.667 -14.167 -17 -19.5s-6.5 -9 -6.5 -11c0 -3.33301 0.666992 -7 2 -11
s3.66602 -6 6.99902 -6c5.33301 0 13.666 6.33301 24.999 19l40 45l20.5 20l20.5 19c-2.66699 -5.33301 -7 -14.666 -13 -27.999l-20.5 -45l-24.5 -52.5l-23.5 -51l-17.5 -40.5c-4.66699 -11.333 -7 -18 -7 -20c0 -2.66699 1.16699 -4.66699 3.5 -6
s5.16602 -2.33301 8.49902 -3c5.33301 -1.33301 9.5 0 12.5 4s5.5 8.66699 7.5 14c5.33301 11.333 12.833 28.166 22.5 50.499s23.167 47.166 40.5 74.499c8 13.333 17.5 27.833 28.5 43.5s21.833 29.167 32.5 40.5c6.66699 7.33301 14.167 15.166 22.5 23.499
s16.666 16 24.999 23s16.333 12.833 24 17.5s13.834 7 18.501 7c6.66699 0 11.834 -1.16699 15.501 -3.5s6.33398 -5 8.00098 -8s2.5 -6.16699 2.5 -9.5v-8c0 -2 -2.66699 -9.33301 -8 -22l-20 -46l-25.5 -58l-25.5 -58l-20 -46c-5.33301 -12.667 -8 -20 -8 -22v-12
c0 -3.33301 4 -5 12 -5c6 0 10.333 2.5 13 7.5s5 10.167 7 15.5l25.5 57l42.5 91c11.333 14.667 23.166 29.167 35.499 43.5s24.833 27.333 37.5 39s25.667 21.167 39 28.5s26.666 11 39.999 11c4.66699 0 8.66699 -2.5 12 -7.5s5 -9.5 5 -13.5
c0 -5.33301 -3.83301 -17.5 -11.5 -36.5l-25.5 -62c-9.33301 -22.333 -17.833 -43.833 -25.5 -64.5s-11.5 -36 -11.5 -46c0 -16.667 4.16699 -31.334 12.5 -44.001s20.833 -19 37.5 -19c8.66699 0 18.5 3.33301 29.5 10s22 14.834 33 24.501s21.833 20.167 32.5 31.5l30 31
l15 17c6 6.66699 11.5 13.334 16.5 20.001s9.33301 12.834 13 18.501s5.5 9.5 5.5 11.5z" />
    <glyph glyph-name="afii10085" unicode="&#x443;" horiz-adv-x="338" 
d="M352 161c0 4 -1.67188 6.99902 -5.00488 8.99902s-6.66602 3 -9.99902 3c-2 0 -8 -4.83301 -18 -14.5s-20.333 -20.5 -31 -32.5c-9.33301 -10 -21.166 -21.667 -35.499 -35l-46.5 -43c0 0.666992 1.16699 3.5 3.5 8.5s5.16602 11.5 8.49902 19.5l9 21
c8.66699 20 18.667 41.833 30 65.5l32 67c10 21 18.333 39.167 25 54.5s10 25 10 29c0 3.33301 -0.5 6.33301 -1.5 9s-4.16699 4 -9.5 4s-11.833 -5.66699 -19.5 -17s-14.167 -23 -19.5 -35c-5.33301 -12.667 -15.833 -31 -31.5 -55s-34.167 -50 -55.5 -78
c-10 -13.333 -20.667 -26.333 -32 -39s-22.333 -24.334 -33 -35.001s-20.667 -19.167 -30 -25.5s-17 -9.5 -23 -9.5c-7.33301 0 -12 1.83301 -14 5.5s-3 7.83398 -3 12.501c0 8.66699 1.83301 20 5.5 34s8.5 29 14.5 45s12.667 32.667 20 50l21 50
c6.66699 16 14 32.333 22 49s12 28.334 12 35.001c0 8.66699 -2.66699 13 -8 13c-4 0 -9.5 -3.33301 -16.5 -10s-14.5 -14.667 -22.5 -24l-24.5 -30c-8.33301 -10.667 -16.166 -20 -23.499 -28l-45 -50c-12.667 -14 -19 -21.667 -19 -23c0 -4 1.16699 -8 3.5 -12
s4.83301 -5.66699 7.5 -5c4.66699 1.33301 10.167 4 16.5 8s13.166 11 20.499 21c4.66699 6 10.334 12.667 17.001 20s12.334 13.166 17.001 17.499s7.33398 6.83301 8.00098 7.5c-4 -10 -9 -23.167 -15 -39.5l-18 -50.5c-6 -17.333 -11 -33.5 -15 -48.5
s-6 -26.167 -6 -33.5c0 -10.667 2.83301 -20.834 8.5 -30.501s16.5 -14.5 32.5 -14.5c10 0 20 2.66699 30 8s19.5 12 28.5 20s17.833 16.833 26.5 26.5s16.667 19.167 24 28.5l37 46l-9.5 -21.5l-12 -27.5l-13 -30.5l-12.5 -28.5l-66 -54c-24.667 -20.667 -48 -42 -70 -64
s-40.5 -44 -55.5 -66s-22.5 -41.667 -22.5 -59c0 -11.333 2.16699 -20.666 6.5 -27.999s9.66602 -13.166 15.999 -17.499s13.333 -7.5 21 -9.5s14.5 -3 20.5 -3c11.333 0 23 3.33301 35 10s22.667 16 32 28c8.66699 11.333 18.334 28.5 29.001 51.5
s20.834 46.833 30.501 71.5s18 47 25 67s11.5 32.667 13.5 38l25 24.5l32 30.5l35.5 33l35.5 32l29.5 30c10.333 10.667 15.5 18.667 15.5 24zM138.995 -38.001l-8 -22.0029l-16.5 -44.5c-5.66699 -15.667 -11.5 -30.667 -17.5 -45s-12.167 -27.833 -18.5 -40.5
s-12.5 -23 -18.5 -31c-8 -11.333 -15 -18.666 -21 -21.999s-15 -5.66602 -27 -6.99902c-11.333 -1.33301 -19.5 1.83398 -24.5 9.50098s-7.16699 15.167 -6.5 22.5c0.666992 12 7 26.5 19 43.5s26.5 34 43.5 51s34.333 33.167 52 48.5z" />
    <glyph glyph-name="afii10086" unicode="&#x444;" horiz-adv-x="483" 
d="M498 159c0 4.66699 -1.17773 8.99707 -3.51074 12.9971s-5.83301 6 -10.5 6s-11.167 -5.33301 -19.5 -16s-16.833 -20.334 -25.5 -29.001c-11.333 -11.333 -20.666 -21.166 -27.999 -29.499s-17.333 -18.166 -30 -29.499c8.66699 13.333 16.834 28.5 24.501 45.5
s14.334 33.667 20.001 50s10.167 31.333 13.5 45s5 23.834 5 30.501c0 10 -1 19.833 -3 29.5s-5.16699 18.5 -9.5 26.5s-10.5 14.5 -18.5 19.5s-18 7.5 -30 7.5c-10.667 0 -23.167 -2.66699 -37.5 -8s-27.166 -12.333 -38.499 -21c4 19.333 0 29 -12 29l-19 -25
c-5.33301 -6.66699 -10.666 -15.667 -15.999 -27c-6.66699 13.333 -16.167 25 -28.5 35s-27.166 15 -44.499 15c-13.333 0 -26.166 -3.16699 -38.499 -9.5s-24.666 -14.833 -36.999 -25.5s-24.666 -22.5 -36.999 -35.5l-37.5 -38.5l-16.5 -17
c-5.66699 -6 -10.834 -11.833 -15.501 -17.5l-12 -15c-3.33301 -4.33301 -5 -6.83301 -5 -7.5c0 -13.333 4 -20 12 -20c2.66699 0 6.16699 2 10.5 6s9 8.83301 14 14.5l15.5 17.5l14 16c-7.33301 -17.333 -13.166 -35.333 -17.499 -54s-6.5 -32.667 -6.5 -42
c0 -20.667 1.66699 -37.334 5 -50.001s8 -22.5 14 -29.5s12.833 -11.833 20.5 -14.5s15.834 -4 24.501 -4c13.333 0 27 4.66699 41 14s25 18.333 33 27l-7 -15c-4.66699 -9.33301 -10 -21.166 -16 -35.499l-19.5 -45.5l-21.5 -50l-21 -49
c-7.33301 -18 -14.666 -35 -21.999 -51l-19 -41c-2 -6 -3.83301 -12 -5.5 -18s0.166016 -10.667 5.49902 -14c6 -3.33301 11.333 -2 16 4s8.33398 12.333 11.001 19l17.5 41l22.5 53l30.5 70l29.5 67l24.5 54l14.5 32c4 -15.333 10.5 -29.5 19.5 -42.5
s21.167 -19.5 36.5 -19.5c10.667 0 22.834 1.83301 36.501 5.5s25.5 7.83398 35.5 12.501c18 8 34.667 17.167 50 27.5s31.666 24.166 48.999 41.499l21.5 21.5c7.66699 7.66699 14.5 14.834 20.5 21.501s11 12.667 15 18s6 9 6 11zM414.989 249.997
c0 -13.333 -2.33105 -27.9961 -6.99805 -43.9961s-10.334 -31.833 -17.001 -47.5s-13.834 -30.334 -21.501 -44.001s-14.5 -24.834 -20.5 -33.501c-11.333 -15.333 -21.833 -27.333 -31.5 -36s-25.167 -13 -46.5 -13c-6 0 -11.5 2.5 -16.5 7.5s-9.5 11.167 -13.5 18.5
s-7.16699 15 -9.5 23s-3.5 15 -3.5 21c0 2.66699 1.33301 8.16699 4 16.5s6.33398 18.333 11.001 30s10.5 24 17.5 37s14.833 26.167 23.5 39.5c12.667 19.333 27 37 43 53s32.333 24 49 24c10.667 0 18.667 -1.33301 24 -4s9.16602 -6.33398 11.499 -11.001
s3.5 -10.334 3.5 -17.001v-20zM232.991 245.001c0 -11.333 -1.99805 -24.1689 -5.99805 -38.502s-9 -29 -15 -44s-12.833 -29.667 -20.5 -44s-14.834 -26.833 -21.501 -37.5c-9.33301 -14.667 -20.833 -26.834 -34.5 -36.501s-28.167 -14.5 -43.5 -14.5
c-7.33301 0 -13.333 2.33301 -18 7s-8.33398 10.334 -11.001 17.001s-4.33398 13.5 -5.00098 20.5s-1 12.5 -1 16.5c0 8.66699 1.83301 21 5.5 37s8.83398 32.667 15.501 50c6 14.667 12.833 29.334 20.5 44.001s16 27.667 25 39s18.5 20.5 28.5 27.5s20.667 10.5 32 10.5
c15.333 0 27.333 -4.66699 36 -14s13 -22.666 13 -39.999z" />
    <glyph glyph-name="afii10087" unicode="&#x445;" horiz-adv-x="496" 
d="M511 161c0 4 -1.32812 7.00488 -3.99512 9.00488s-5.66699 3 -9 3c-1.33301 0 -4 -1.5 -8 -4.5s-8.33301 -6.83301 -13 -11.5l-14.5 -15l-13.5 -15l-32.5 -33.5c-11.667 -11.667 -23.5 -22.5 -35.5 -32.5s-24 -18.167 -36 -24.5s-23.333 -9.5 -34 -9.5
c-6 0 -12.5 1 -19.5 3s-13.333 5.5 -19 10.5s-10.334 11.667 -14.001 20s-5.5 19.166 -5.5 32.499c0 22.667 5 46 15 70s22.167 45.667 36.5 65s29.666 35.333 45.999 48s30.833 19 43.5 19c9.33301 0 18.666 -3.33301 27.999 -10s14.666 -15 15.999 -25
c2 -10.667 7 -16.334 15 -17.001c10 0 15 7.66699 15 23c0 6 -2.16699 12.333 -6.5 19s-9.83301 12.834 -16.5 18.501s-14 10.5 -22 14.5s-15.333 6 -22 6c-15.333 0 -29.333 -2.83301 -42 -8.5s-24 -12.334 -34 -20.001s-18.667 -15.667 -26 -24l-17 -19.5
c-1.33301 18.667 -9.66602 35.334 -24.999 50.001s-34 22 -56 22c-16 0 -31.333 -3 -46 -9s-28.667 -13.833 -42 -23.5s-26 -20.334 -38 -32.001s-23 -23.167 -33 -34.5l-39.5 -44c-11 -12 -16.5 -18.667 -16.5 -20c0 -5.33301 1.5 -9.33301 4.5 -12s6.5 -4 10.5 -4
c2 0 5.16699 2 9.5 6s9.16602 8.83301 14.499 14.5l16.5 18l15.5 17.5l31 32c10.667 10.667 21.667 20.5 33 29.5s22.833 16.5 34.5 22.5s23.5 9.33301 35.5 10c5.33301 0 11.833 -0.333008 19.5 -1s14.667 -3.33398 21 -8.00098s11.666 -11.834 15.999 -21.501
s6.16602 -22.834 5.49902 -39.501c0 -7.33301 -1.5 -15.833 -4.5 -25.5s-6.83301 -20 -11.5 -31s-9.83398 -22.167 -15.501 -33.5s-11.5 -22 -17.5 -32c-14 -23.333 -29.167 -41.5 -45.5 -54.5s-31.5 -19.5 -45.5 -19.5c-16.667 0 -27.834 4.33301 -33.501 13
s-10.167 17.667 -13.5 27c-4 9.33301 -10.333 14 -19 14c-4 0 -7.16699 -2 -9.5 -6s-3.5 -7.66699 -3.5 -11c0 -6.66699 1.83301 -13.834 5.5 -21.501s8.83398 -14.834 15.501 -21.501s14.167 -12.167 22.5 -16.5s17.5 -6.5 27.5 -6.5c14 0 26.667 2.5 38 7.5
s21.833 11.333 31.5 19s18.334 16.5 26.001 26.5l22.5 30c2.66699 -12 5.83398 -23 9.50098 -33s8.5 -18.667 14.5 -26s13.667 -13.166 23 -17.499s21 -6.5 35 -6.5c15.333 0 30 3 44 9s27.667 13.833 41 23.5s26.333 20.834 39 33.501l39 40l28.5 31.5
c9.66699 11 14.5 18.833 14.5 23.5z" />
    <glyph glyph-name="afii10088" unicode="&#x446;" horiz-adv-x="463" 
d="M478 159c0 4 -1.32617 7.67969 -3.99316 11.0127s-6.33398 4.33301 -11.001 3c-1.33301 0 -6.66602 -4.83301 -15.999 -14.5l-32.5 -33.5l-37.5 -38.5c-12.667 -13 -23 -22.833 -31 -29.5c1.33301 6 4.66602 13.667 9.99902 23s7.66602 17.666 6.99902 24.999
c-1.33301 8.66699 -6.33301 13 -15 13c-2 0 -7.5 -4.5 -16.5 -13.5s-19.333 -18.833 -31 -29.5s-23.5 -20.5 -35.5 -29.5s-22.333 -13.5 -31 -13.5c-4.66699 0 -8.16699 3.16699 -10.5 9.5s-3.5 12.166 -3.5 17.499c0 12.667 2.83301 27 8.5 43s13.167 35 22.5 57
c6.66699 16 13.834 31.833 21.501 47.5l21.5 44.5l17 36.5c4.66699 10.333 7 18.166 7 23.499c0 3.33301 -0.666992 6.83301 -2 10.5s-3.66602 5.5 -6.99902 5.5c-5.33301 0 -9.83301 -2.5 -13.5 -7.5s-7.5 -12.167 -11.5 -21.5l-18 -37
c-7.33301 -14.667 -14.333 -29.667 -21 -45l-47.5 -59.5c-17 -21.667 -33.833 -41.834 -50.5 -60.501s-32.667 -34.334 -48 -47.001s-28.333 -19 -39 -19c-5.33301 0 -9.33301 2.33301 -12 7s-4 9 -4 13c0 6 2.16699 15.5 6.5 28.5s9.83301 27.667 16.5 44l21.5 51
l21.5 48.5l17 37c4.66699 10 7 15.333 7 16c3.33301 5.33301 7.16602 11.833 11.499 19.5s6.5 13.167 6.5 16.5c0 10.667 -3 16 -9 16c-4.66699 0 -11.167 -4 -19.5 -12s-17.166 -17.333 -26.499 -28s-18.333 -21.5 -27 -32.5s-15.667 -19.5 -21 -25.5
c-18 -20.667 -32.667 -36.834 -44 -48.501s-17 -18.834 -17 -21.501c0 -4 1 -7.83301 3 -11.5s5.66699 -5.5 11 -5.5c2.66699 0 7.16699 3 13.5 9s13.166 13 20.499 21l21.5 23.5c7 7.66699 12.833 13.167 17.5 16.5c-4 -10 -9.33301 -22.5 -16 -37.5l-19.5 -46
c-6.33301 -15.667 -12 -30.834 -17 -45.501s-7.5 -26.334 -7.5 -35.001c0 -10.667 3 -21.334 9 -32.001s16.667 -16 32 -16c8 0 16.5 2.33301 25.5 7s18.167 10.5 27.5 17.5s18.333 15 27 24s16.667 17.833 24 26.5c9.33301 10.667 17.833 21.167 25.5 31.5
s15.167 19.5 22.5 27.5c-0.666992 -4 -1.83398 -9.5 -3.50098 -16.5s-3.33398 -14.5 -5.00098 -22.5l-4.5 -22.5c-1.33301 -7 -2 -12.167 -2 -15.5c0 -5.33301 0.666992 -11.166 2 -17.499s3.5 -12.333 6.5 -18s6.66699 -10.334 11 -14.001s9.16602 -5.5 14.499 -5.5
c8 0 16.167 1.83301 24.5 5.5s16.5 8 24.5 13s15.5 10.167 22.5 15.5s12.5 10 16.5 14l-19 -37l-28.5 -23c-11 -8.66699 -21.5 -18.334 -31.5 -29.001s-18.667 -21.834 -26 -33.501s-11.333 -23.5 -12 -35.5c0 -5.33301 1.16699 -12 3.5 -20s9.16602 -12 20.499 -12
s21.166 4.33301 29.499 13s15.666 19.167 21.999 31.5s12 25.5 17 39.5s9.5 26 13.5 36l25.5 23.5l36 34l39.5 39l36 37.5c10.667 11.333 19.5 21.166 26.5 29.499s10.5 13.5 10.5 15.5zM260.007 -55.9873c-3.33301 -6 -5.33203 -10.833 -5.99902 -14.5
s-2.33398 -7.83398 -5.00098 -12.501c-2.66699 -3.33301 -5.5 -7.16602 -8.5 -11.499s-5.5 -6.5 -7.5 -6.5c-4 0 -6 1.66699 -6 5c0 1.33301 1.33301 3.83301 4 7.5s5.66699 7.5 9 11.5s7 8 11 12z" />
    <glyph glyph-name="afii10089" unicode="&#x447;" horiz-adv-x="390" 
d="M403 166c0 4.66699 -0.500977 7.66895 -1.50098 9.00195s-4.16699 2 -9.5 2c-2 0 -4.5 -1.16699 -7.5 -3.5s-7.16699 -6.16602 -12.5 -11.499l-20.5 -21.5l-31.5 -33.5c-20.667 -22 -41 -39.833 -61 -53.5s-35 -20.5 -45 -20.5c-12.667 0 -19 5.66699 -19 17
c0 4.66699 1.33301 11.5 4 20.5s6.16699 19.167 10.5 30.5s9.5 23.666 15.5 36.999l18 41l20 44l18 39c5.33301 11.333 9.5 21 12.5 29s4.5 13 4.5 15c0 5.33301 -0.166992 9.16602 -0.5 11.499s-2.5 3.5 -6.5 3.5c-2.66699 0 -9.16699 -3.16699 -19.5 -9.5l-34.5 -21
c-12.667 -7.66699 -25.167 -14.667 -37.5 -21s-21.5 -9.5 -27.5 -9.5c-6.66699 0 -12 1.5 -16 4.5s-7 6.5 -9 10.5s-3.16699 8.16699 -3.5 12.5s-0.5 8.16602 -0.5 11.499c0 4 -0.333008 9.5 -1 16.5s-3 10.5 -7 10.5c-6.66699 -0.666992 -16.834 -10.5 -30.501 -29.5
s-35.834 -44.833 -66.501 -77.5l-40.5 -43.5c-7 -7.66699 -10.5 -14.167 -10.5 -19.5c0 -3.33301 0.5 -6 1.5 -8s5.16699 -3 12.5 -3c2 0 5.16699 1.83301 9.5 5.5s9.33301 8.16699 15 13.5s11.334 11 17.001 17l16.5 17c12.667 13.333 23.834 26.166 33.501 38.499
l25.5 32.5c2 -4.66699 5.83301 -9.16699 11.5 -13.5s11.834 -8.33301 18.501 -12s12.5 -6.5 17.5 -8.5s7.83301 -3 8.5 -3c4 0 9.5 1 16.5 3s14.167 4.5 21.5 7.5s14.333 6.33301 21 10s11.667 7.16699 15 10.5c-2.66699 -7.33301 -7.5 -18.666 -14.5 -33.999
s-13.5 -31 -19.5 -47c-10.667 -26.667 -21.5 -52.334 -32.5 -77.001s-16.5 -45 -16.5 -61c0 -10.667 3 -20.667 9 -30s14.333 -14 25 -14c19.333 0 41.166 8.33301 65.499 25s48.833 37.334 73.5 62.001l33.5 34.5c8.33301 9 14.833 16.5 19.5 22.5
s7.83398 10.667 9.50098 14s2.5 6 2.5 8z" />
    </font>
</defs>
</svg>
